<svg height="512pt" viewBox="-54 0 512 512" width="512pt" xmlns="http://www.w3.org/2000/svg"><path d="m184.007812 296.066406c4.796876-17.902344 2.828126-36.019531-4.324218-51.65625-23.875 7.746094-43.472656 27.035156-50.453125 53.085938-4.796875 17.902344-2.828125 36.019531 4.320312 51.65625 23.878907-7.742188 43.476563-27.03125 50.457031-53.085938zm0 0" fill="#36d28f"/><path d="m388.929688 241.066406-2.941407-23.492187c-3.363281-26.902344-16.375-50.898438-35.644531-68.25-3.738281-1.320313-7.566406-2.460938-11.488281-3.386719-53.011719-12.480469-107.191407 15.609375-127.542969 66.125l-10.570312 26.234375-26.808594-3.796875c14.597656 18.367188 20.613281 43.167969 14.074218 67.566406-7.492187 27.964844-29.523437 48.140625-55.777343 54.605469-19.503907-18.722656-28.492188-47.210937-21-75.175781 5.761719-21.503906 20.125-38.394532 38.390625-47.992188-44.917969 3.105469-84.496094 33.609375-97.921875 78.222656-13.277344 44.128907 2.285156 91.859376 39.027343 119.679688l18.875 14.289062c10.109376 7.65625 20.484376 14.9375 31.09375 21.851563 15.816407 8.535156 32.078126 16.253906 48.753907 23.050781 1.898437.773438 3.800781 1.535156 5.710937 2.289063l11.734375 4.632812c18.019531 7.117188 38.296875 5.617188 55.070313-4.066406 14.8125-8.554687 25.550781-22.71875 29.777344-39.292969 1.566406-6.144531 7.890624-9.796875 13.996093-8.082031 16.46875 4.625 34.105469 2.410156 48.917969-6.140625 16.773438-9.683594 28.210938-26.496094 31.058594-45.65625l1.855468-12.484375c.300782-2.027344.589844-4.058594.871094-6.089844 6.136719-44.644531 6.082032-89.921875.488282-134.640625zm0 0" fill="#ff5d5d"/><path d="m398.851562 239.828125-2.941406-23.492187c-3.058594-24.472657-13.390625-47.101563-29.871094-65.445313-7.816406-8.695313-16.742187-16.101563-26.519531-22.109375.007813-.152344.023438-.296875.023438-.449219v-118.332031c0-5.523438-4.476563-10-10-10-5.523438 0-10 4.476562-10 10v108.949219c-4.992188-1.902344-10.125-3.5-15.394531-4.742188-27.960938-6.582031-57.40625-2.929687-82.914063 10.292969-25.503906 13.222656-45.460937 35.179688-56.195313 61.828125l-1.648437 4.089844c-4.671875-15.988281-4.910156-32.992188-.488281-49.492188 1.429687-5.332031-1.738282-10.816406-7.070313-12.246093-5.335937-1.429688-10.816406 1.738281-12.246093 7.070312-6.109376 22.792969-4.921876 46.382812 3.183593 68.046875l-9.628906-1.363281c-28.445313-4.023438-57.4375 2.277344-81.640625 17.753906s-42.09375 39.152344-50.371094 66.660156c-7.105468 23.617188-6.824218 48.492188.824219 71.9375 7.644531 23.445313 22.078125 43.707032 41.738281 58.59375l18.875 14.292969c37.28125 28.226563 77.355469 51.167969 119.105469 68.183594 1.933594.789062 3.871094 1.5625 5.8125 2.332031l11.738281 4.632812c8.769532 3.464844 17.929688 5.179688 27.054688 5.179688 12.699218 0 25.320312-3.324219 36.6875-9.886719 17.039062-9.839843 29.601562-26.414062 34.464844-45.480469.089843-.351562.292968-.621093.609374-.800781.3125-.179687.648438-.222656.996094-.125 18.945313 5.320313 39.582032 2.730469 56.621094-7.109375 19.53125-11.277344 32.636719-30.539062 35.949219-52.847656l1.855469-12.484375c.308593-2.0625.601562-4.128906.886718-6.195313 6.136719-44.667968 6.308594-90.84375.503906-137.242187zm-224.503906 53.652344c-5.800781 21.648437-22.058594 38.808593-43.089844 45.90625-14.664062-16.664063-20.167968-39.652344-14.367187-61.300781 5.800781-21.648438 22.0625-38.808594 43.09375-45.90625 14.664063 16.664062 20.164063 39.652343 14.363281 61.300781zm204.1875 80.867187c-.273437 1.996094-.5625 3.988282-.855468 5.980469l-1.855469 12.480469c-2.414063 16.238281-11.949219 30.261718-26.167969 38.46875-12.402344 7.160156-27.421875 9.046875-41.210938 5.175781-5.570312-1.566406-11.394531-.832031-16.40625 2.058594-5.007812 2.894531-8.554687 7.574219-9.984374 13.175781-3.539063 13.878906-12.683594 25.945312-25.085938 33.105469-14.21875 8.207031-31.128906 9.457031-46.398438 3.425781l-11.738281-4.632812c-1.871093-.742188-3.742187-1.492188-5.605469-2.25-40.140624-16.359376-78.691406-38.433594-114.585937-65.609376l-18.875-14.292968c-33.238281-25.164063-47.5-68.898438-35.484375-108.824219 12.96875-43.089844 51.898438-71.394531 95.65625-71.394531 4.75 0 9.5625.335937 14.402344 1.019531l.359375.054687c-17.992188 11.476563-31.433594 29.382813-37.125 50.621094-8.175781 30.511719.917969 63.074219 23.734375 84.976563 1.882812 1.808593 4.375 2.789062 6.925781 2.789062.796875 0 1.597656-.097656 2.390625-.292969 30.707031-7.558593 54.867188-31.210937 63.042969-61.726562 7.675781-28.644531.128906-59.09375-19.699219-80.835938.007812-.0625.015625-.125.019531-.1875l9.601563-23.832031c18.640625-46.273437 67.417968-71.5625 115.976562-60.125 40.582032 9.554688 71.328125 43.773438 76.503906 85.144531l2.9375 23.492188c5.589844 44.667969 5.429688 89.09375-.472656 132.035156zm0 0"/><path d="m201.550781 85.164062c5.523438 0 10-4.480468 10-10v-65.164062c0-5.523438-4.476562-10-10-10-5.519531 0-9.996093 4.476562-9.996093 10v65.164062c0 5.519532 4.476562 10 9.996093 10zm0 0"/><path d="m73.5625 138.328125c5.523438 0 10-4.476563 10-9.996094v-118.332031c0-5.523438-4.476562-10-10-10s-10 4.476562-10 10v118.332031c0 5.519531 4.476562 9.996094 10 9.996094zm0 0"/><path d="m73.5625 180.335938c2.628906 0 5.210938-1.070313 7.070312-2.929688 1.859376-1.859375 2.929688-4.441406 2.929688-7.070312 0-2.628907-1.070312-5.210938-2.929688-7.070313-1.859374-1.859375-4.441406-2.929687-7.070312-2.929687s-5.210938 1.070312-7.070312 2.929687c-1.859376 1.859375-2.929688 4.441406-2.929688 7.070313 0 2.628906 1.070312 5.210937 2.929688 7.070312 1.859374 1.859375 4.441406 2.929688 7.070312 2.929688zm0 0"/><path d="m222.535156 198.578125c-5.140625-2.019531-10.933594.480469-12.953125 5.621094-.011719.035156-.042969.109375-.054687.140625-2.019532 5.140625.5 10.976562 5.636718 12.992187 1.210938.476563 2.453126.699219 3.675782.699219 3.976562 0 7.730468-2.386719 9.277344-6.316406.011718-.035156.042968-.109375.054687-.144532 2.019531-5.136718-.496094-10.972656-5.636719-12.992187zm0 0"/><path d="m293.148438 160.925781c-18.359376-4.324219-37.316407-1.46875-53.378907 8.03125-4.753906 2.8125-6.328125 8.945313-3.515625 13.699219 2.8125 4.75 8.945313 6.324219 13.695313 3.515625 11.59375-6.859375 25.308593-8.910156 38.617187-5.78125 21.152344 4.984375 37.179688 22.820313 39.878906 44.382813.632813 5.058593 4.9375 8.761718 9.90625 8.761718.414063 0 .832032-.027344 1.253907-.078125 5.480469-.6875 9.367187-5.683593 8.683593-11.164062-3.734374-29.820313-25.890624-54.480469-55.140624-61.367188zm0 0"/></svg>