<svg height="512pt" viewBox="0 0 512 512" width="512pt" xmlns="http://www.w3.org/2000/svg"><g fill="#ff5d5d"><path d="m27 154c0 4.234375 1.101562 8.210938 3.027344 11.667969 1.292968.214843 2.617187.332031 3.972656.332031 13.253906 0 24-10.746094 24-24 0-4.234375-1.101562-8.210938-3.027344-11.667969-1.292968-.214843-2.617187-.332031-3.972656-.332031-13.253906 0-24 10.746094-24 24zm0 0"/><path d="m364.667969 153.332031c0 4.621094 1.308593 8.933594 3.570312 12.597657.582031.042968 1.167969.070312 1.761719.070312 13.253906 0 24-10.746094 24-24 0-4.621094-1.308594-8.933594-3.570312-12.59375-.582032-.042969-1.167969-.070312-1.765626-.070312-13.253906-.003907-23.996093 10.742187-23.996093 23.996093zm0 0"/><path d="m23.75 491c0 3.386719.707031 6.609375 1.972656 9.535156 2.582032.945313 5.367188 1.464844 8.277344 1.464844 13.253906 0 24-10.746094 24-24 0-3.386719-.707031-6.609375-1.972656-9.535156-2.582032-.945313-5.367188-1.464844-8.277344-1.464844-13.253906 0-24 10.746094-24 24zm0 0"/><path d="m362.667969 491.332031c0 3.617188.804687 7.046875 2.238281 10.121094 1.640625.355469 3.347656.546875 5.09375.546875 13.257812 0 24-10.746094 24-24 0-3.617188-.804688-7.046875-2.234375-10.121094-1.644531-.355468-3.347656-.546875-5.097656-.546875-13.257813 0-24 10.746094-24 24zm0 0"/><path d="m133.5 48.5c0 2.984375.546875 5.835938 1.542969 8.472656 2.203125.664063 4.535156 1.027344 6.957031 1.027344 13.253906 0 24-10.746094 24-24 0-2.984375-.546875-5.835938-1.542969-8.472656-2.203125-.664063-4.535156-1.027344-6.957031-1.027344-13.253906 0-24 10.746094-24 24zm0 0"/><path d="m471.332031 48c0 3.390625.707031 6.613281 1.976563 9.539062 1.515625.300782 3.085937.460938 4.691406.460938 13.253906 0 24-10.746094 24-24 0-3.390625-.707031-6.613281-1.976562-9.539062-1.515626-.300782-3.085938-.460938-4.691407-.460938-13.253906 0-24 10.746094-24 24zm0 0"/><path d="m468 383.332031c0 3.277344.660156 6.398438 1.847656 9.246094 2.546875.917969 5.289063 1.421875 8.152344 1.421875 13.253906 0 24-10.746094 24-24 0-3.277344-.660156-6.398438-1.847656-9.242188-2.546875-.921874-5.289063-1.425781-8.152344-1.425781-13.253906 0-24 10.746094-24 24zm0 0"/><path d="m134.667969 382c0 4.207031 1.085937 8.160156 2.988281 11.601562 1.410156.257813 2.859375.398438 4.34375.398438 13.253906 0 24-10.746094 24-24 0-4.207031-1.085938-8.160156-2.988281-11.601562-1.410157-.257813-2.859375-.398438-4.347657-.398438-13.253906 0-23.996093 10.746094-23.996093 24zm0 0"/></g><path d="m478 336c-15.269531 0-28.21875 10.117188-32.496094 24h-65.324218v-185.558594c13.789062-4.335937 23.820312-17.238281 23.820312-32.441406 0-5.742188-1.4375-11.152344-3.960938-15.898438l62.0625-62.0625c1.871094.996094 3.84375 1.824219 5.898438 2.457032v202.503906c0 5.523438 4.476562 10 10 10s10-4.476562 10-10v-202.503906c13.882812-4.28125 24-17.226563 24-32.496094 0-18.746094-15.253906-34-34-34-15.269531 0-28.21875 10.117188-32.496094 24h-271.007812c-4.277344-13.882812-17.226563-24-32.496094-24-18.746094 0-34 15.253906-34 34 0 5.371094 1.257812 10.457031 3.488281 14.980469l-62.507812 62.507812c-4.523438-2.230469-9.605469-3.488281-14.980469-3.488281-18.746094 0-34 15.253906-34 34s15.253906 34 34 34c15.269531 0 28.21875-10.117188 32.496094-24h65.503906v185.503906c-13.882812 4.28125-24 17.226563-24 32.496094 0 6.488281 1.828125 12.558594 4.996094 17.722656l-61.273438 61.273438c-2.34375-1.4375-4.871094-2.597656-7.542968-3.4375v-211.558594c0-5.523438-4.480469-10-10-10-5.523438 0-10 4.476562-10 10v211.453125c-13.976563 4.222656-24.179688 17.214844-24.179688 32.546875 0 18.746094 15.253906 34 34 34 15.269531 0 28.21875-10.117188 32.496094-24h271.007812c4.277344 13.882812 17.226563 24 32.496094 24 18.746094 0 34-15.253906 34-34 0-4.980469-1.085938-9.710938-3.019531-13.976562l63.042969-63.042969c4.265624 1.933593 8.996093 3.019531 13.976562 3.019531 18.746094 0 34-15.253906 34-34s-15.253906-34-34-34zm-32.496094 44c.84375 2.738281 2.023438 5.328125 3.492188 7.722656l-61.273438 61.273438c-2.34375-1.4375-4.871094-2.597656-7.542968-3.4375v-65.558594zm-108 88h-271.007812c-.421875-1.367188-.933594-2.691406-1.515625-3.976562l63.042969-63.042969c4.265624 1.933593 8.996093 3.019531 13.976562 3.019531 15.269531 0 28.21875-10.117188 32.496094-24h185.683594v65.453125c-10.804688 3.265625-19.355469 11.769531-22.675782 22.546875zm33.984375-312.082031c-.429687-.058594-.867187-.097657-1.3125-.097657-.484375 0-.960937.046876-1.429687.117188-7.132813-.636719-12.746094-6.640625-12.746094-13.9375 0-7.71875 6.28125-14 14-14s14 6.28125 14 14c0 7.21875-5.488281 13.171875-12.511719 13.917969zm-33.984375-23.917969h-185.503906v-65.503906c10.71875-3.304688 19.191406-11.777344 22.496094-22.496094h271.007812c.632813 2.054688 1.460938 4.027344 2.457032 5.898438l-62.0625 62.058593c-4.746094-2.519531-10.15625-3.957031-15.898438-3.957031-15.269531 0-28.21875 10.117188-32.496094 24zm140.496094-112c7.71875 0 14 6.28125 14 14s-6.28125 14-14 14c-3.734375 0-7.125-1.480469-9.636719-3.871094-.082031-.085937-.152343-.175781-.234375-.257812-.082031-.085938-.171875-.152344-.257812-.234375-2.390625-2.511719-3.871094-5.902344-3.871094-9.636719 0-7.71875 6.28125-14 14-14zm-336 0c7.71875 0 14 6.28125 14 14s-6.28125 14-14 14-14-6.28125-14-14 6.28125-14 14-14zm-108 136c-7.71875 0-14-6.28125-14-14s6.28125-14 14-14 14 6.28125 14 14-6.28125 14-14 14zm32.496094-24c-.734375-2.386719-1.734375-4.660156-2.949219-6.792969l61.660156-61.660156c2.132813 1.214844 4.40625 2.214844 6.792969 2.949219v65.503906zm271.007812 20c3.320313 10.777344 11.871094 19.28125 22.675782 22.546875v185.453125h-185.683594c-3.304688-10.71875-11.777344-19.191406-22.496094-22.496094v-185.503906zm-195.503906 204c7.71875 0 14 6.28125 14 14s-6.28125 14-14 14-14-6.28125-14-14 6.28125-14 14-14zm-108 136c-7.71875 0-14-6.28125-14-14 0-7.296875 5.613281-13.300781 12.746094-13.9375.46875.066406.945312.113281 1.433594.113281.441406 0 .878906-.039062 1.308593-.09375 7.023438.746094 12.511719 6.699219 12.511719 13.917969 0 7.71875-6.28125 14-14 14zm336 0c-7.71875 0-14-6.28125-14-14 0-7.296875 5.613281-13.300781 12.746094-13.9375.46875.066406.945312.113281 1.433594.113281.441406 0 .878906-.039062 1.308593-.09375 7.023438.746094 12.511719 6.699219 12.511719 13.917969 0 7.71875-6.28125 14-14 14zm108-108c-7.71875 0-14-6.28125-14-14s6.28125-14 14-14 14 6.28125 14 14-6.28125 14-14 14zm0 0"/><path d="m34.179688 212c2.628906 0 5.210937-1.070312 7.070312-2.929688 1.859375-1.859374 2.929688-4.441406 2.929688-7.070312s-1.070313-5.210938-2.929688-7.070312c-1.859375-1.859376-4.441406-2.929688-7.070312-2.929688-2.640626 0-5.210938 1.070312-7.070313 2.929688-1.867187 1.859374-2.929687 4.441406-2.929687 7.070312s1.0625 5.210938 2.929687 7.070312c1.859375 1.859376 4.441406 2.929688 7.070313 2.929688zm0 0"/><path d="m478 296.671875c-2.628906 0-5.210938 1.058594-7.070312 2.917969-1.859376 1.871094-2.929688 4.441406-2.929688 7.082031 0 2.628906 1.070312 5.207031 2.929688 7.066406 1.859374 1.863281 4.441406 2.933594 7.070312 2.933594 2.640625 0 5.210938-1.070313 7.070312-2.933594 1.859376-1.867187 2.929688-4.4375 2.929688-7.066406 0-2.632813-1.070312-5.210937-2.929688-7.082031-1.859374-1.859375-4.441406-2.917969-7.070312-2.917969zm0 0"/></svg>