<svg height="512pt" viewBox="0 -54 512 512" width="512pt" xmlns="http://www.w3.org/2000/svg"><path d="m45 54h457v340h-457zm0 0" fill="#feda9b"/><path d="m102 156.101562c5.523438 0 10-4.476562 10-10 0-5.523437-4.476562-10-10-10h-51.742188c-5.523437 0-10 4.476563-10 10v144c0 5.523438 4.476563 10 10 10h51.742188c5.523438 0 10-4.476562 10-10 0-5.523437-4.476562-10-10-10h-41.742188v-52h26.1875c5.523438 0 10-4.476562 10-10 0-5.523437-4.476562-10-10-10h-26.1875v-52zm0 0"/><path d="m140.925781 299.972656h34.074219c5.523438 0 10-4.476562 10-10 0-5.523437-4.476562-10-10-10h-34.074219c-5.523437 0-10 4.476563-10 10 0 5.523438 4.476563 10 10 10zm0 0"/><path d="m140.925781 227.972656h34.074219c5.523438 0 10-4.476562 10-10 0-5.523437-4.476562-10-10-10h-34.074219c-5.523437 0-10 4.476563-10 10 0 5.523438 4.476563 10 10 10zm0 0"/><path d="m334.707031 300.101562c5.523438 0 10-4.476562 10-10v-51.5c0-21.230468-17.269531-38.5-38.5-38.5-11.285156 0-21.449219 4.878907-28.5 12.640626-7.046875-7.757813-17.214843-12.640626-28.5-12.640626-21.226562 0-38.5 17.269532-38.5 38.5v51.5c0 5.523438 4.476563 10 10 10 5.523438 0 10-4.476562 10-10v-51.5c0-10.203124 8.300781-18.5 18.5-18.5 10.203125 0 18.5 8.296876 18.5 18.5v51.5c0 5.523438 4.476563 10 10 10 5.523438 0 10-4.476562 10-10v-51.5c0-10.203124 8.300781-18.5 18.5-18.5 10.203125 0 18.5 8.296876 18.5 18.5v51.5c0 5.523438 4.476563 10 10 10zm0 0"/><path d="m357.832031 250.101562c0 27.570313 22.429688 50 50 50h12.460938c5.523437 0 10-4.476562 10-10 0-5.523437-4.476563-10-10-10h-12.460938c-16.542969 0-30-13.457031-30-30 0-16.542968 13.457031-30 30-30h12.460938c5.523437 0 10-4.476562 10-10 0-5.523437-4.476563-10-10-10h-12.460938c-27.570312 0-50 22.429688-50 50zm0 0"/><path d="m477 131.96875c0-15.476562-12.59375-28.070312-28.070312-28.070312h-.871094c-15.480469 0-28.070313 12.59375-28.070313 28.070312 0 5.523438 4.476563 10 10 10 5.523438 0 10-4.476562 10-10 0-4.449219 3.621094-8.070312 8.070313-8.070312h.871094c4.449218 0 8.070312 3.621093 8.070312 8.070312 0 6.347656-2.765625 12.359375-7.582031 16.496094l-25.941407 22.246094c-3.175781 2.722656-4.320312 7.136718-2.867187 11.0625 1.453125 3.921874 5.195313 6.527343 9.378906 6.527343h37.011719c5.523438 0 10-4.476562 10-10 0-5.523437-4.476562-10-10-10h-9.992188l5.429688-4.65625c9.253906-7.9375 14.5625-19.484375 14.5625-31.675781zm0 0"/><path d="m502 0h-312c-5.523438 0-10 4.476562-10 10s4.476562 10 10 10h302v364h-472v-364h82c5.523438 0 10-4.476562 10-10s-4.476562-10-10-10h-92c-5.523438 0-10 4.476562-10 10v384c0 5.523438 4.476562 10 10 10h492c5.523438 0 10-4.476562 10-10v-384c0-5.523438-4.476562-10-10-10zm0 0"/><path d="m143.671875 20c2.628906 0 5.207031-1.070312 7.066406-2.929688 1.863281-1.859374 2.933594-4.441406 2.933594-7.070312s-1.070313-5.210938-2.933594-7.070312c-1.867187-1.859376-4.4375-2.929688-7.066406-2.929688-2.632813 0-5.210937 1.070312-7.082031 2.929688-1.859375 1.859374-2.917969 4.441406-2.917969 7.070312s1.058594 5.210938 2.917969 7.070312c1.871094 1.859376 4.449218 2.929688 7.082031 2.929688zm0 0"/></svg>