<svg height="512pt" viewBox="0 -27 512 512" width="512pt" xmlns="http://www.w3.org/2000/svg"><path d="m172.332031 10.667969h206.667969v47.332031h-206.667969zm0 0" fill="#a7c5ff"/><path d="m234 428.863281c0 4.738281.828125 9.28125 2.339844 13.5 5.808594 3.285157 12.511718 5.167969 19.660156 5.167969 22.089844 0 40-17.910156 40-40 0-4.738281-.828125-9.28125-2.34375-13.496094-5.804688-3.285156-12.507812-5.171875-19.65625-5.171875-22.09375 0-40 17.910157-40 40zm0 0" fill="#898998"/><path d="m460.488281 327.082031c-16.449219 11.953125-21.105469 34.089844-11.621093 51.472657 11.941406 4.136718 25.644531 2.574218 36.644531-5.417969 16.449219-11.949219 21.101562-34.085938 11.617187-51.46875-11.941406-4.140625-25.640625-2.574219-36.640625 5.414062zm0 0" fill="#d8d8e4"/><path d="m82.363281 364.289062c8.550781-11.773437 9.75-26.644531 4.464844-39.132812-17-7.902344-37.753906-2.960938-49.1875 12.777344-8.550781 11.773437-9.75 26.640625-4.464844 39.132812 17 7.902344 37.753907 2.957032 49.1875-12.777344zm0 0" fill="#d8d8e4"/><path d="m266 358.539062v-270.890624c1.875 1.714843 4.289062 2.625 6.738281 2.625 2.039063 0 4.097657-.621094 5.871094-1.910157 4.46875-3.246093 5.457031-9.5 2.210937-13.96875l-4.644531-6.394531h102.820313c5.523437 0 10-4.476562 10-10v-38h69.335937c5.523438 0 10-4.476562 10-10s-4.476562-10-10-10h-448.332031c-5.523438 0-10 4.476562-10 10s4.476562 10 10 10h113v38c0 5.523438 4.476562 10 10 10h102.824219l-4.648438 6.394531c-3.246093 4.46875-2.253906 10.722657 2.214844 13.96875 1.773437 1.289063 3.832031 1.910157 5.867187 1.910157 2.453126 0 4.867188-.910157 6.738282-2.625v270.890624c-22.792969 4.644532-40 24.847657-40 48.992188 0 27.570312 22.433594 50 50 50 27.570312 0 50-22.429688 50-50 .003906-24.144531-17.203125-44.347656-39.996094-48.992188zm-123-338.539062h226v28h-226zm113 417.53125c-16.542969 0-30-13.457031-30-30s13.457031-30 30-30c16.539062 0 30 13.457031 30 30s-13.460938 30-30 30zm0 0"/><path d="m469.820312 291.394531c-9.835937-1.558593-19.679687-.191406-28.535156 3.863281l-.585937-.808593c-3.246094-4.46875-9.5-5.460938-13.96875-2.214844-4.46875 3.25-5.457031 9.5-2.210938 13.96875l.585938.808594c-6.585938 7.167969-10.933594 16.109375-12.492188 25.945312-1.34375 8.484375-.5 16.972657 2.355469 24.832031-.96875.515626-1.9375 1.042969-2.90625 1.546876-4.898438 2.550781-6.800781 8.589843-4.25 13.488281 1.785156 3.421875 5.269531 5.382812 8.878906 5.382812 1.554688 0 3.132813-.363281 4.609375-1.132812 1.378907-.71875 2.757813-1.460938 4.136719-2.203125 7.570312 8.152344 17.578125 13.523437 28.738281 15.289062 2.648438.421875 5.296875.628906 7.929688.628906 10.46875 0 20.648437-3.285156 29.28125-9.5625 22.304687-16.203124 27.265625-47.535156 11.0625-69.839843-7.847657-10.804688-19.4375-17.90625-32.628907-19.992188zm9.8125 73.652344c-6.484374 4.710937-14.414062 6.613281-22.328124 5.359375-7.914063-1.253906-14.867188-5.511719-19.578126-11.996094-4.710937-6.484375-6.613281-14.414062-5.359374-22.328125 1.253906-7.914062 5.515624-14.867187 11.996093-19.574219 5.183594-3.765624 11.285157-5.738281 17.570313-5.738281 1.578125 0 3.167968.125 4.757812.375 7.914063 1.253907 14.867188 5.515625 19.578125 12 9.722657 13.382813 6.746094 32.179688-6.636719 41.902344zm0 0"/><path d="m371.480469 216.1875c-4.46875 3.246094-5.460938 9.5-2.214844 13.96875l5.878906 8.089844c1.957031 2.691406 5.007813 4.121094 8.097657 4.121094 2.039062 0 4.097656-.621094 5.871093-1.90625 4.46875-3.25 5.457031-9.5 2.210938-13.96875l-5.875-8.089844c-3.246094-4.46875-9.5-5.460938-13.96875-2.214844zm0 0"/><path d="m416.738281 278.480469c4.46875-3.246094 5.457031-9.5 2.210938-13.964844l-5.875-8.089844c-3.246094-4.46875-9.5-5.460937-13.96875-2.214843-4.46875 3.246093-5.457031 9.5-2.210938 13.96875l5.875 8.089843c1.957031 2.695313 5.007813 4.125 8.097657 4.125 2.039062 0 4.097656-.621093 5.871093-1.914062zm0 0"/><path d="m302.570312 104.328125c-3.246093-4.46875-9.5-5.457031-13.96875-2.210937-4.46875 3.246093-5.457031 9.5-2.210937 13.96875l5.878906 8.089843c1.957031 2.691407 5.003907 4.121094 8.097657 4.121094 2.035156 0 4.09375-.621094 5.867187-1.910156 4.46875-3.246094 5.460937-9.5 2.214844-13.96875zm0 0"/><path d="m363.699219 188.46875-5.875-8.089844c-3.246094-4.46875-9.5-5.460937-13.96875-2.214844-4.46875 3.246094-5.460938 9.5-2.214844 13.96875l5.878906 8.089844c1.957031 2.695313 5.003907 4.125 8.097657 4.125 2.039062 0 4.097656-.621094 5.871093-1.910156 4.464844-3.25 5.457031-9.5 2.210938-13.96875zm0 0"/><path d="m327.992188 166.320312c2.039062 0 4.09375-.621093 5.867187-1.910156 4.46875-3.246094 5.460937-9.5 2.214844-13.964844l-5.878907-8.089843c-3.242187-4.46875-9.496093-5.460938-13.964843-2.214844s-5.460938 9.5-2.214844 13.96875l5.878906 8.089844c1.957031 2.691406 5.003907 4.121093 8.097657 4.121093zm0 0"/><path d="m164.480469 200.222656 5.878906-8.089844c3.246094-4.46875 2.253906-10.722656-2.214844-13.96875-4.464843-3.242187-10.722656-2.253906-13.96875 2.214844l-5.875 8.089844c-3.246093 4.46875-2.253906 10.722656 2.210938 13.96875 1.777343 1.289062 3.832031 1.910156 5.871093 1.910156 3.09375 0 6.140626-1.433594 8.097657-4.125zm0 0"/><path d="m122.886719 240.460938c1.773437 1.289062 3.832031 1.90625 5.871093 1.90625 3.089844 0 6.140626-1.429688 8.097657-4.121094l5.878906-8.089844c3.246094-4.46875 2.253906-10.722656-2.210937-13.96875-4.46875-3.246094-10.722657-2.253906-13.96875 2.210938l-5.878907 8.089843c-3.246093 4.472657-2.257812 10.726563 2.210938 13.972657zm0 0"/><path d="m112.894531 254.214844c-4.464843-3.246094-10.71875-2.257813-13.96875 2.210937l-5.875 8.089844c-3.25 4.46875-2.257812 10.722656 2.210938 13.96875 1.773437 1.289063 3.832031 1.910156 5.871093 1.910156 3.089844 0 6.140626-1.429687 8.097657-4.125l5.875-8.089843c3.246093-4.464844 2.257812-10.71875-2.210938-13.964844zm0 0"/><path d="m219.730469 124.175781 5.878906-8.089843c3.246094-4.46875 2.257813-10.722657-2.210937-13.96875-4.46875-3.246094-10.722657-2.253907-13.96875 2.210937l-5.878907 8.089844c-3.246093 4.46875-2.253906 10.722656 2.214844 13.96875 1.773437 1.289062 3.832031 1.910156 5.867187 1.910156 3.09375 0 6.140626-1.429687 8.097657-4.121094zm0 0"/><path d="m195.769531 140.140625c-4.464843-3.246094-10.71875-2.253906-13.964843 2.214844l-5.878907 8.089843c-3.246093 4.464844-2.253906 10.71875 2.214844 13.964844 1.773437 1.292969 3.828125 1.910156 5.867187 1.910156 3.09375 0 6.140626-1.429687 8.097657-4.121093l5.878906-8.089844c3.246094-4.46875 2.253906-10.722656-2.214844-13.96875zm0 0"/><path d="m381.175781 373.496094c-3.886719 1.550781-7.859375 3.050781-11.808593 4.457031-5.203126 1.851563-7.917969 7.570313-6.066407 12.773437 1.460938 4.09375 5.3125 6.648438 9.421875 6.648438 1.113282 0 2.246094-.1875 3.355469-.582031 4.179687-1.488281 8.386719-3.078125 12.507813-4.722657 5.128906-2.042968 7.628906-7.859374 5.585937-12.992187-2.046875-5.128906-7.863281-7.625-12.996094-5.582031zm0 0"/><path d="m336.828125 387.71875c-4.0625 1-8.207031 1.9375-12.3125 2.785156-5.410156 1.117188-8.886719 6.410156-7.769531 11.820313.976562 4.726562 5.140625 7.976562 9.785156 7.976562.667969 0 1.351562-.070312 2.035156-.210937 4.347656-.898438 8.734375-1.890625 13.035156-2.949219 5.363282-1.316406 8.644532-6.734375 7.324219-12.097656-1.320312-5.363281-6.738281-8.636719-12.097656-7.324219zm0 0"/><path d="m99.933594 359.335938c-.96875-.503907-1.9375-1.03125-2.902344-1.546876 2.855469-7.859374 3.699219-16.347656 2.355469-24.835937-1.558594-9.832031-5.90625-18.773437-12.492188-25.941406l.585938-.808594c3.246093-4.46875 2.253906-10.722656-2.210938-13.96875-4.46875-3.246094-10.722656-2.253906-13.96875 2.210937l-.585937.808594c-8.851563-4.050781-18.699219-5.417968-28.535156-3.863281-13.191407 2.089844-24.777344 9.191406-32.628907 19.996094-16.203125 22.304687-11.242187 53.636719 11.0625 69.839843 8.636719 6.273438 18.8125 9.5625 29.28125 9.5625 2.632813 0 5.28125-.210937 7.929688-.628906 11.160156-1.765625 21.167969-7.136718 28.738281-15.289062 1.378906.742187 2.757812 1.484375 4.136719 2.203125 1.476562.769531 3.054687 1.132812 4.609375 1.132812 3.609375 0 7.09375-1.960937 8.878906-5.382812 2.546875-4.898438.644531-10.9375-4.253906-13.488281zm-45.238282 11.070312c-7.914062 1.257812-15.84375-.648438-22.328124-5.359375-13.382813-9.722656-16.359376-28.519531-6.636719-41.902344 4.710937-6.484375 11.664062-10.746093 19.578125-11.996093 7.914062-1.253907 15.84375.648437 22.324218 5.359374 6.484376 4.710938 10.746094 11.664063 12 19.578126 1.253907 7.914062-.652343 15.84375-5.363281 22.324218-4.707031 6.484375-11.660156 10.742188-19.574219 11.996094zm0 0"/><path d="m142.628906 377.953125c-3.945312-1.40625-7.917968-2.902344-11.808594-4.457031-5.132812-2.046875-10.949218.457031-12.992187 5.585937-2.046875 5.128907.453125 10.945313 5.582031 12.992188 4.121094 1.644531 8.332032 3.230469 12.511719 4.71875 1.109375.394531 2.238281.585937 3.351563.585937 4.113281 0 7.964843-2.554687 9.421874-6.648437 1.855469-5.207031-.863281-10.925781-6.066406-12.777344zm0 0"/><path d="m187.484375 390.503906c-4.109375-.847656-8.253906-1.785156-12.3125-2.785156-5.367187-1.316406-10.78125 1.960938-12.101563 7.324219-1.316406 5.363281 1.960938 10.78125 7.324219 12.097656 4.300781 1.058594 8.6875 2.050781 13.039063 2.949219.683594.140625 1.363281.210937 2.035156.210937 4.640625 0 8.804688-3.253906 9.78125-7.976562 1.117188-5.410157-2.359375-10.703125-7.765625-11.820313zm0 0"/><path d="m502 19.996094c2.628906 0 5.210938-1.058594 7.070312-2.921875 1.859376-1.867188 2.929688-4.4375 2.929688-7.078125 0-2.628906-1.070312-5.199219-2.929688-7.070313-1.859374-1.859375-4.441406-2.9179685-7.070312-2.9179685s-5.210938 1.0585935-7.070312 2.9179685c-1.859376 1.871094-2.929688 4.441407-2.929688 7.070313 0 2.640625 1.070312 5.210937 2.929688 7.078125 1.859374 1.863281 4.441406 2.921875 7.070312 2.921875zm0 0"/></svg>