<svg height="512pt" viewBox="0 0 511 512" width="512pt" xmlns="http://www.w3.org/2000/svg"><path d="m238.441406 10h84c11.046875 0 20 8.953125 20 20v452c0 11.046875-8.953125 20-20 20h-84c-11.046875 0-20-8.953125-20-20v-452c0-11.046875 8.953125-20 20-20zm0 0" fill="#fff"/><path d="m285.855469 324.488281c-28.09375-26.425781-71.273438-28.382812-101.640625-4.605469l-15.773438 12.347657-15.773437-12.347657c-30.371094-23.777343-73.550781-21.820312-101.640625 4.605469-23.773438 22.363281-31.128906 57.152344-18.445313 87.222657l3.03125 7.191406c10.109375 19.578125 21.929688 38.238281 35.460938 55.664062.890625 1.148438 1.789062 2.289063 2.691406 3.429688l5.558594 6.996094c8.527343 10.746093 21.496093 17.007812 35.214843 17.007812 12.113282 0 23.714844-4.886719 32.175782-13.554688 3.140625-3.214843 8.3125-3.214843 11.449218 0 8.460938 8.667969 20.0625 13.554688 32.175782 13.554688 13.71875 0 26.6875-6.261719 35.21875-17.003906l5.554687-7c.902344-1.136719 1.800781-2.28125 2.691407-3.425782 19.574218-25.210937 35.574218-53 47.976562-82.410156l6.515625-15.445312c6.039063-14.316406 7.527344-29.699219 4.871094-44.304688-2.234375-2.777344-4.664063-5.429687-7.3125-7.921875zm0 0" fill="#ff5d5d"/><path d="m342.441406 82.042969h-101v181.605469c6.148438 1.546874 12.140625 3.855468 17.832032 6.910156 14.425781 2.601562 28.234374 9.257812 39.582031 19.929687 23.769531 22.363281 31.128906 57.152344 18.445312 87.222657l-6.515625 15.449218c-6.507812 15.429688-14.023437 30.40625-22.507812 44.808594h54.164062zm0 0" fill="#ffc66c"/><path d="m120.902344 200.597656c-4.722656 16.289063-1.664063 34.351563 9.167968 48.34375 11.085938 4.246094 23.28125 4.730469 34.617188 1.445313 4.722656-16.292969 1.667969-34.355469-9.164062-48.34375-11.085938-4.246094-23.28125-4.730469-34.621094-1.445313zm0 0" fill="#36d28f"/><path d="m482.441406 88.332031h-120c-11.046875 0-20 8.953125-20 20v373.667969c0 11.046875 8.953125 20 20 20h120c11.046875 0 20-8.953125 20-20v-373.667969c0-11.042969-8.957031-20-20-20zm0 0" fill="#fff"/><path d="m377.773438 143.832031h124.667968v302.667969h-124.667968zm0 0" fill="#6a80ff"/><path d="m482.441406 78.332031h-120c-3.507812 0-6.871094.609375-10 1.722657v-50.054688c0-16.542969-13.457031-30-30-30h-84c-16.542968 0-30 13.457031-30 30v228.640625c-15.441406 1.394531-30.300781 6.847656-43.019531 15.859375 3.75-13.640625 10.96875-26.152344 21.242187-36.429688 3.90625-3.90625 3.90625-10.234374 0-14.140624-3.035156-3.039063-7.535156-3.703126-11.222656-2.019532-2.53125-11.972656-8.464844-23.1875-17.421875-32.144531-16.570312-16.570313-40.863281-22.808594-63.402343-16.273437-3.289063.953124-5.863282 3.527343-6.820313 6.820312-6.53125 22.535156-.296875 46.828125 16.277344 63.402344 11.894531 11.898437 27.773437 18.449218 44.125 18.789062-1.765625 5.03125-3.132813 10.210938-4.089844 15.5l-1.277344-.996094c-16.570312-12.972656-37.273437-19.59375-58.292969-18.640624-21.023437.953124-41.039062 9.417968-56.367187 23.835937-26.679687 25.101563-35.042969 64.644531-20.804687 98.394531l6.515624 15.449219c12.96875 30.75 29.554688 59.230469 49.292969 84.652344.910157 1.175781 1.828125 2.347656 2.753907 3.515625l5.558593 6.996094c10.492188 13.210937 26.183594 20.789062 43.050781 20.789062 14.046876 0 27.746094-5.5 37.902344-15.15625 10.15625 9.65625 23.855469 15.15625 37.898438 15.15625 10.066406 0 19.699218-2.714844 28.074218-7.699219 5.4375 4.867188 12.558594 7.699219 20.027344 7.699219h84c7.675782 0 14.6875-2.902344 20-7.664062 5.3125 4.761718 12.320313 7.664062 20 7.664062h120c16.542969 0 30-13.457031 30-30v-373.667969c0-16.539062-13.457031-30-30-30zm-120 20h120c5.511719 0 10 4.488281 10 10v25.5h-140v-25.5c0-5.511719 4.484375-10 10-10zm-85.734375 183.875c-13.34375-12.554687-30.246093-20.589843-48.265625-23.089843v-175.074219h104v343.925781h-56.648437c5.507812-10.332031 10.589843-20.980469 15.203125-31.921875l6.515625-15.449219c14.238281-33.75 5.875-73.292968-20.804688-98.390625zm-38.265625-262.207031h84c5.511719 0 10 4.484375 10 10v34.042969h-104v-34.042969c0-5.515625 4.484375-10 10-10zm-132.671875 171.464844c13.859375-2.148438 28.050781 2.386718 38.105469 12.445312 10.058594 10.058594 14.589844 24.25 12.445312 38.105469-13.855468 2.148437-28.046874-2.382813-38.105468-12.445313-10.058594-10.054687-14.589844-24.25-12.445313-38.105468zm84.570313 300.535156c-9.363282 0-18.480469-3.84375-25.019532-10.539062-3.417968-3.5-7.988281-5.425782-12.878906-5.425782s-9.464844 1.925782-12.878906 5.425782c-6.539062 6.699218-15.660156 10.539062-25.023438 10.539062-10.730468 0-20.710937-4.820312-27.382812-13.222656l-5.558594-6.996094c-.878906-1.109375-1.753906-2.226562-2.625-3.34375-18.667968-24.046875-34.367187-51.015625-46.660156-80.164062l-6.515625-15.449219c-11.003906-26.085938-4.542969-56.648438 16.082031-76.050781 24.675782-23.214844 61.949219-24.90625 88.625-4.019532l14.03125 10.988282c1.828125 2.363281 4.6875 3.890624 7.90625 3.890624s6.078125-1.527343 7.90625-3.890624l14.03125-10.988282c26.675782-20.886718 63.949219-19.195312 88.625 4.019532 20.625 19.402343 27.085938 49.964843 16.082032 76.050781l-6.515626 15.449219c-5.796874 13.746093-12.359374 26.996093-19.625 39.695312h-32.167968c-5.523438 0-10 4.476562-10 10s4.476562 10 10 10h19.824218c-4.671874 7.03125-9.5625 13.863281-14.691406 20.464844-.871094 1.121094-1.746094 2.234375-2.625 3.34375l-5.558594 7c-6.671874 8.402344-16.65625 13.222656-27.386718 13.222656zm132.101562 0h-84c-1.695312 0-3.304687-.425781-4.730468-1.191406l5.238281-6.597656c.925781-1.164063 1.84375-2.332032 2.753906-3.511719 8.085937-10.410157 15.632813-21.34375 22.628906-32.730469h68.109375v34.03125c0 5.515625-4.488281 10-10 10zm160 0h-120c-5.515625 0-10-4.484375-10-10v-328.167969h140v282.667969h-76c-5.523437 0-10 4.476562-10 10s4.476563 10 10 10h76v25.5c0 5.515625-4.488281 10-10 10zm0 0"/><path d="m380.441406 436.5c-2.632812 0-5.210937 1.070312-7.070312 2.929688-1.859375 1.859374-2.929688 4.441406-2.929688 7.070312s1.070313 5.210938 2.929688 7.070312c1.859375 1.859376 4.4375 2.929688 7.070312 2.929688 2.628906 0 5.210938-1.070312 7.070313-2.929688 1.859375-1.859374 2.929687-4.441406 2.929687-7.070312s-1.070312-5.210938-2.929687-7.070312c-1.859375-1.859376-4.441407-2.929688-7.070313-2.929688zm0 0"/><path d="m386.691406 353.167969h71.5c5.523438 0 10-4.476563 10-10 0-5.523438-4.476562-10-10-10h-71.5c-5.523437 0-10 4.476562-10 10 0 5.523437 4.476563 10 10 10zm0 0"/><path d="m386.691406 305.167969h71.5c5.523438 0 10-4.476563 10-10 0-5.523438-4.476562-10-10-10h-71.5c-5.523437 0-10 4.476562-10 10 0 5.523437 4.476563 10 10 10zm0 0"/><path d="m386.691406 257.167969h71.5c5.523438 0 10-4.476563 10-10 0-5.523438-4.476562-10-10-10h-71.5c-5.523437 0-10 4.476562-10 10 0 5.523437 4.476563 10 10 10zm0 0"/></svg>