<svg height="512pt" viewBox="0 -27 512 512" width="512pt" xmlns="http://www.w3.org/2000/svg"><path d="m99.332031 74.667969c-11.046875 0-20 8.953125-20 20v155.332031h362.667969c11.046875 0 20-8.953125 20-20v-155.332031zm0 0" fill="#36d28f"/><path d="m482 10h-452c-11.046875 0-20 8.953125-20 20v398c0 11.046875 8.953125 20 20 20h452c11.046875 0 20-8.953125 20-20v-398c0-11.046875-8.953125-20-20-20zm-18.667969 220.667969c0 11.046875-8.953125 20-20 20h-372c-11.046875 0-20-8.953125-20-20v-160c0-11.046875 8.953125-20 20-20h372c11.046875 0 20 8.953125 20 20zm0 0" fill="#edf2fa"/><path d="m138 350c0 24.300781-19.699219 44-44 44s-44-19.699219-44-44 19.699219-44 44-44 44 19.699219 44 44zm0 0" fill="#fff"/><path d="m280.667969 350c0 24.300781-19.699219 44-44 44s-44-19.699219-44-44 19.699219-44 44-44 44 19.699219 44 44zm0 0" fill="#fff"/><path d="m462 370c0 13.253906-10.746094 24-24 24s-24-10.746094-24-24 10.746094-24 24-24 24 10.746094 24 24zm0 0" fill="#7d9bff"/><path d="m372.6875 370c0 13.253906-10.746094 24-24 24-13.257812 0-24-10.746094-24-24s10.742188-24 24-24c13.253906 0 24 10.746094 24 24zm0 0" fill="#7d9bff"/><path d="m482 0h-452c-16.542969 0-30 13.457031-30 30v398c0 16.542969 13.457031 30 30 30h226c5.523438 0 10-4.476562 10-10s-4.476562-10-10-10h-226c-5.515625 0-10-4.484375-10-10v-398c0-5.515625 4.484375-10 10-10h452c5.515625 0 10 4.484375 10 10v398c0 5.515625-4.484375 10-10 10h-133.3125c-5.523438 0-10 4.476562-10 10s4.476562 10 10 10h133.3125c16.542969 0 30-13.457031 30-30v-398c0-16.542969-13.457031-30-30-30zm0 0"/><path d="m304.199219 438c-2.628907 0-5.210938 1.070312-7.070313 2.929688-1.859375 1.859374-2.929687 4.441406-2.929687 7.070312s1.070312 5.210938 2.929687 7.070312c1.859375 1.859376 4.441406 2.929688 7.070313 2.929688 2.628906 0 5.210937-1.070312 7.070312-2.929688 1.859375-1.859374 2.929688-4.441406 2.929688-7.070312s-1.070313-5.210938-2.929688-7.070312c-1.859375-1.859376-4.441406-2.929688-7.070312-2.929688zm0 0"/><path d="m159.171875 57.070312c1.859375-1.859374 2.929687-4.441406 2.929687-7.070312s-1.070312-5.210938-2.929687-7.070312c-1.863281-1.859376-4.441406-2.929688-7.070313-2.929688-2.632812 0-5.210937 1.070312-7.070312 2.929688-1.859375 1.859374-2.929688 4.441406-2.929688 7.070312s1.070313 5.210938 2.929688 7.070312c1.859375 1.859376 4.4375 2.929688 7.070312 2.929688 2.628907 0 5.207032-1.070312 7.070313-2.929688zm0 0"/><path d="m472 230v-160c0-16.542969-13.457031-30-30-30h-249.332031c-5.523438 0-10 4.476562-10 10s4.476562 10 10 10h249.332031c5.515625 0 10 4.484375 10 10v5.050781c-31.46875 2.214844-56.398438 28.507813-56.398438 60.53125v19.210938c0 22.441406-18.257812 40.699219-40.703124 40.699219-22.441407 0-40.699219-18.257813-40.699219-40.699219v-19.210938c0-33.46875-27.230469-60.699219-60.699219-60.699219s-60.699219 27.230469-60.699219 60.699219v19.210938c0 22.441406-18.257812 40.699219-40.699219 40.699219-22.445312 0-40.703124-18.257813-40.703124-40.699219v-19.210938c0-30.308593-22.328126-55.496093-51.398438-59.984375v-5.597656c0-5.515625 4.484375-10 10-10h40c5.523438 0 10-4.476562 10-10s-4.476562-10-10-10h-40c-16.542969 0-30 13.457031-30 30v160c0 16.542969 13.457031 30 30 30h372c16.542969 0 30-13.457031 30-30zm-412 0v-134.03125c17.972656 4.21875 31.398438 20.371094 31.398438 39.613281v19.210938c0 33.46875 27.230468 60.699219 60.703124 60.699219 33.46875 0 60.699219-27.230469 60.699219-60.699219v-19.210938c0-22.441406 18.257813-40.699219 40.699219-40.699219s40.699219 18.257813 40.699219 40.699219v19.210938c0 33.46875 27.230469 60.699219 60.699219 60.699219 33.472656 0 60.703124-27.230469 60.703124-60.699219v-19.210938c0-20.988281 15.96875-38.316406 36.398438-40.46875v134.886719c0 5.515625-4.484375 10-10 10h-372c-5.515625 0-10-4.484375-10-10zm0 0"/><path d="m40 350c0 29.777344 24.222656 54 54 54s54-24.222656 54-54-24.222656-54-54-54-54 24.222656-54 54zm88 0c0 18.746094-15.253906 34-34 34s-34-15.253906-34-34 15.253906-34 34-34 34 15.253906 34 34zm0 0"/><path d="m68 350c0 14.335938 11.664062 26 26 26s26-11.664062 26-26-11.664062-26-26-26-26 11.664062-26 26zm32 0c0 3.308594-2.691406 6-6 6s-6-2.691406-6-6 2.691406-6 6-6 6 2.691406 6 6zm0 0"/><path d="m438 404c18.746094 0 34-15.253906 34-34s-15.253906-34-34-34-34 15.253906-34 34 15.253906 34 34 34zm0-48c7.71875 0 14 6.28125 14 14s-6.28125 14-14 14-14-6.28125-14-14 6.28125-14 14-14zm0 0"/><path d="m382.6875 370c0-18.746094-15.253906-34-34-34-18.75 0-34 15.253906-34 34s15.25 34 34 34c18.746094 0 34-15.253906 34-34zm-48 0c0-7.71875 6.277344-14 14-14 7.71875 0 14 6.28125 14 14s-6.28125 14-14 14c-7.722656 0-14-6.28125-14-14zm0 0"/><path d="m335.929688 305.609375c-1.859376 1.859375-2.929688 4.441406-2.929688 7.070313 0 2.628906 1.070312 5.210937 2.929688 7.070312 1.859374 1.859375 4.441406 2.929688 7.070312 2.929688s5.210938-1.070313 7.070312-2.929688c1.859376-1.859375 2.929688-4.441406 2.929688-7.070312 0-2.628907-1.070312-5.210938-2.929688-7.070313-1.859374-1.859375-4.441406-2.929687-7.070312-2.929687s-5.210938 1.070312-7.070312 2.929687zm0 0"/><path d="m395.5 302.679688c-2.628906 0-5.210938 1.070312-7.070312 2.929687-1.859376 1.859375-2.929688 4.441406-2.929688 7.070313 0 2.628906 1.070312 5.210937 2.929688 7.070312 1.859374 1.859375 4.441406 2.929688 7.070312 2.929688s5.210938-1.070313 7.070312-2.929688c1.859376-1.859375 2.929688-4.441406 2.929688-7.070312 0-2.628907-1.070312-5.210938-2.929688-7.070313-1.859374-1.859375-4.441406-2.929687-7.070312-2.929687zm0 0"/><path d="m455.070312 319.75c1.859376-1.859375 2.929688-4.441406 2.929688-7.070312 0-2.628907-1.070312-5.210938-2.929688-7.070313-1.859374-1.859375-4.441406-2.929687-7.070312-2.929687s-5.210938 1.070312-7.070312 2.929687c-1.859376 1.859375-2.929688 4.441406-2.929688 7.070313 0 2.628906 1.070312 5.210937 2.929688 7.070312 1.859374 1.859375 4.441406 2.929688 7.070312 2.929688s5.210938-1.070313 7.070312-2.929688zm0 0"/><path d="m236.667969 296c-29.777344 0-54 24.222656-54 54s24.222656 54 54 54c29.773437 0 54-24.222656 54-54s-24.226563-54-54-54zm0 88c-18.75 0-34-15.253906-34-34s15.25-34 34-34c18.746093 0 34 15.253906 34 34s-15.253907 34-34 34zm0 0"/><path d="m236.667969 324c-14.335938 0-26 11.664062-26 26s11.664062 26 26 26c14.335937 0 26-11.664062 26-26s-11.664063-26-26-26zm0 32c-3.308594 0-6-2.691406-6-6s2.691406-6 6-6c3.308593 0 6 2.691406 6 6s-2.691407 6-6 6zm0 0"/></svg>