<svg height="512pt" viewBox="0 -54 512.0005 512" width="512pt" xmlns="http://www.w3.org/2000/svg"><path d="m293.460938 150h112.539062v102h-112.539062zm0 0" fill="#ff5d5d"/><path d="m141.332031 152h110.796875v102h-110.796875zm0 0" fill="#36d28f"/><path d="m356.332031 172c-5.519531 0-10 4.476562-10 10v15.859375l-22.925781-22.929687c-2.863281-2.859376-7.164062-3.714844-10.898438-2.167969-3.738281 1.546875-6.175781 5.195312-6.175781 9.238281v40c0 5.523438 4.480469 10 10 10 5.523438 0 10-4.476562 10-10v-15.855469l22.929688 22.925781c1.914062 1.914063 4.472656 2.929688 7.074219 2.929688 1.289062 0 2.585937-.25 3.824218-.761719 3.738282-1.546875 6.171875-5.191406 6.171875-9.238281v-40c0-5.523438-4.476562-10-10-10zm0 0"/><path d="m174.074219 192h5.839843c5.523438 0 10-4.476562 10-10s-4.476562-10-10-10h-12.859374c-6.9375 0-13.136719 4.140625-15.789063 10.550781-2.65625 6.410157-1.203125 13.722657 3.703125 18.628907l10.820312 10.820312h-4.855468c-5.523438 0-10 4.476562-10 10s4.476562 10 10 10h11.875c6.9375 0 13.136718-4.140625 15.789062-10.550781 2.65625-6.410157 1.203125-13.722657-3.703125-18.628907zm0 0"/><path d="m326 20c2.628906 0 5.210938-1.070312 7.070312-2.929688 1.859376-1.859374 2.929688-4.441406 2.929688-7.070312s-1.070312-5.210938-2.929688-7.070312c-1.859374-1.859376-4.441406-2.929688-7.070312-2.929688s-5.210938 1.070312-7.070312 2.929688c-1.859376 1.859374-2.929688 4.441406-2.929688 7.070312s1.070312 5.210938 2.929688 7.070312c1.859374 1.859376 4.441406 2.929688 7.070312 2.929688zm0 0"/><path d="m189 384c-2.628906 0-5.210938 1.070312-7.070312 2.929688-1.859376 1.859374-2.929688 4.441406-2.929688 7.070312s1.070312 5.210938 2.929688 7.070312c1.859374 1.859376 4.441406 2.929688 7.070312 2.929688s5.210938-1.070312 7.070312-2.929688c1.859376-1.859374 2.929688-4.441406 2.929688-7.070312s-1.070312-5.210938-2.929688-7.070312c-1.859374-1.859376-4.441406-2.929688-7.070312-2.929688zm0 0"/><path d="m485.050781 202.058594c8.765625-4.445313 16.871094-10.300782 24.019531-17.449219 3.90625-3.90625 3.90625-10.238281 0-14.144531-3.902343-3.90625-10.234374-3.90625-14.140624 0-9.5625 9.558594-21.277344 16.175781-34.054688 19.402344 25.152344-19.488282 41.125-49.988282 41.125-83.867188 0-58.449219-47.550781-106-106-106h-30c-5.523438 0-10 4.476562-10 10s4.476562 10 10 10h30c47.421875 0 86 38.582031 86 86 0 28.6875-14.105469 54.386719-36.066406 70.0625 10.238281-14.304688 16.066406-31.710938 16.066406-50.0625 0-47.417969-38.578125-86-86-86h-240c-47.417969 0-86 38.582031-86 86 0 18.339844 5.804688 35.714844 16.011719 50.003906-21.921875-15.691406-36.011719-41.375-36.011719-70.003906 0-47.417969 38.582031-86 86-86h171.667969c5.523437 0 10-4.476562 10-10s-4.476563-10-10-10h-171.667969c-58.449219 0-106 47.550781-106 106 0 33.859375 15.996094 64.378906 41.171875 83.882812-12.792969-3.222656-24.527344-9.84375-34.101563-19.417968-3.902343-3.902344-10.234374-3.902344-14.140624 0-3.90625 3.90625-3.90625 10.238281 0 14.144531 7.148437 7.152344 15.253906 13.003906 24.019531 17.449219-8.765625 4.445312-16.871094 10.296875-24.019531 17.449218-3.90625 3.90625-3.90625 10.238282 0 14.140626 1.953124 1.953124 4.511718 2.929687 7.070312 2.929687s5.117188-.976563 7.070312-2.929687c9.511719-9.511719 21.164063-16.105469 33.867188-19.351563-25.039062 19.511719-40.9375 49.945313-40.9375 83.703125 0 58.449219 47.550781 106 106 106h27.667969c5.523437 0 10-4.476562 10-10s-4.476563-10-10-10h-27.667969c-47.417969 0-86-38.578125-86-86 0-28.628906 14.089844-54.3125 36.011719-70.003906-10.207031 14.289062-16.011719 31.664062-16.011719 50.003906 0 47.421875 38.582031 86 86 86h240c47.421875 0 86-38.578125 86-86 0-18.351562-5.839844-35.761719-16.09375-50.082031 21.976562 15.675781 36.09375 41.382812 36.09375 70.082031 0 47.421875-38.578125 86-86 86h-163c-5.523438 0-10 4.476562-10 10s4.476562 10 10 10h163c58.449219 0 106-47.550781 106-106 0-33.773438-15.871094-64.191406-40.890625-83.6875 12.683594 3.246094 24.320313 9.835938 33.820313 19.335938 1.953124 1.953124 4.511718 2.929687 7.070312 2.929687s5.121094-.976563 7.070312-2.929687c3.90625-3.902344 3.90625-10.234376 0-14.140626-7.148437-7.152343-15.25-13.007812-24.019531-17.449218zm-79.050781-62.058594h-300c-.535156 0-1.054688.054688-1.566406.136719 2.890625-22.605469 22.238281-40.136719 45.613281-40.136719h211.90625c23.375 0 42.722656 17.53125 45.613281 40.136719-.511718-.082031-1.03125-.136719-1.566406-.136719zm-290 68.25c0-.097656.003906-.195312 0-.292969v-11.914062c.003906-.097657 0-.195313 0-.292969v-35.75h130v84h-130zm150-48.25h130v84h-130zm-160 104h300c.535156 0 1.054688-.054688 1.566406-.132812-2.890625 22.601562-22.238281 40.132812-45.613281 40.132812h-211.90625c-23.375 0-42.722656-17.53125-45.613281-40.132812.511718.078124 1.03125.132812 1.566406.132812zm30-204h240c36.394531 0 66 29.605469 66 66 0 18.136719-7.410156 35.0625-19.917969 47.265625 3.863281-8.5 5.871094-17.742187 5.871094-27.265625 0-36.394531-29.605469-66-66-66h-211.90625c-36.394531 0-66 29.605469-66 66 0 9.574219 2.011719 18.796875 5.871094 27.277344-12.511719-12.199219-19.917969-29.125-19.917969-47.277344 0-36.394531 29.609375-66 66-66zm240 284h-240c-36.390625 0-66-29.605469-66-66 0-18.152344 7.40625-35.078125 19.917969-47.277344-3.859375 8.480469-5.871094 17.703125-5.871094 27.277344 0 36.394531 29.605469 66 66 66h211.90625c36.394531 0 66-29.605469 66-66 0-9.515625-2.003906-18.753906-5.863281-27.25 12.5 12.207031 19.910156 29.136719 19.910156 47.25 0 36.390625-29.605469 66-66 66zm0 0"/></svg>