<svg height="512pt" viewBox="1 0 511 512" width="512pt" xmlns="http://www.w3.org/2000/svg"><path d="m208.496094 256c0-26.507812 21.492187-48 48-48 26.511718 0 48 21.492188 48 48 0 26.511719-21.488282 48-48 48-26.507813 0-48-21.488281-48-48zm0 0" fill="#686c83"/><g fill="#898998"><path d="m414.128906 132.902344c-11.355468-10.777344-23.976562-20.238282-37.617187-28.132813l-76.019531 131.667969c7.9375 4.59375 14.429687 11.398438 18.65625 19.5625h137.347656c0-46.425781-15.824219-89.15625-42.367188-123.097656zm0 0"/><path d="m173.390625 112.058594c-54.136719 32.132812-87.664063 85.9375-95.90625 143.941406h131.019531c.015625-16.570312 8.609375-32.6875 23.992188-41.566406zm0 0"/><path d="m287.085938 308.984375c-7.570313-.054687-15.21875-1.914063-22.316407-5.734375-.613281.109375-1.222656.222656-1.84375.308594l-75.429687 130.648437c16.902344 9.757813 34.636718 16.765625 52.683594 21.167969 40.570312 3.289062 81.242187-5.929688 116.332031-26.144531zm0 0"/></g><path d="m433.742188 85.429688c-41.167969-31.027344-92.390626-49.429688-147.914063-49.429688-135.859375 0-246 110.136719-246 246 0 66.234375 26.183594 126.347656 68.757813 170.574219 41.167968 31.027343 92.386718 49.429687 147.910156 49.429687 135.863281 0 246-110.140625 246-246.003906 0-66.234375-26.183594-126.34375-68.753906-170.570312zm-381.273438 166.570312c.0625-69.054688 35.921875-136.195312 100.027344-173.203125l76 131.636719c-15.382813 8.878906-23.976563 24.996094-23.992188 41.566406zm108.027344 179.207031 76-131.636719c15.386718 8.882813 33.636718 8.269532 47.996094-.003906l76.019531 131.664063c-59.835938 34.472656-135.910157 36.988281-200.015625-.023438zm147-177.207031c0-17.765625-9.65625-33.261719-24.003906-41.5625l76.019531-131.667969c59.769531 34.585938 99.984375 99.210938 99.984375 173.230469zm0 0" fill="#ffc66c"/><path d="m437.515625 74.980469c-48.351563-48.351563-112.636719-74.980469-181.019531-74.980469-68.378906 0-132.667969 26.628906-181.019532 74.980469-42.761718 42.765625-69.078124 99.457031-74.089843 159.640625-4.957031 59.472656 11.019531 119.027344 44.992187 167.695312 3.160156 4.527344 9.394532 5.636719 13.921875 2.476563 4.527344-3.164063 5.636719-9.394531 2.476563-13.925781-65.480469-93.808594-54.191406-220.710938 26.84375-301.742188 92.015625-92.019531 241.738281-92.019531 333.753906 0 44.574219 44.574219 69.121094 103.835938 69.121094 166.875s-24.546875 122.304688-69.121094 166.878906c-82.007812 82.011719-209.867188 92.625-304.015625 25.234375-4.492187-3.214843-10.738281-2.175781-13.953125 2.3125-3.214844 4.492188-2.179688 10.738281 2.3125 13.953125 43.351562 31.027344 95.554688 47.621094 148.847656 47.621094 6.609375 0 13.242188-.257812 19.871094-.769531 60.738281-4.71875 117.945312-31.074219 161.082031-74.210938 48.351563-48.351562 74.976563-112.636719 74.976563-181.019531 0-68.378906-26.628906-132.667969-74.980469-181.019531zm0 0"/><path d="m89.636719 422.898438c-3.894531-3.917969-10.226563-3.933594-14.140625-.039063-3.917969 3.894531-3.933594 10.226563-.039063 14.140625l.28125.285156c1.953125 1.953125 4.515625 2.929688 7.074219 2.929688s5.117188-.976563 7.070312-2.929688c3.90625-3.90625 3.90625-10.238281 0-14.140625zm0 0"/><path d="m313.617188 266h142.878906c5.523437 0 10-4.476562 10-10 0-37.515625-10.015625-74.335938-28.964844-106.480469-18.386719-31.195312-44.671875-57.269531-76.011719-75.402343-2.296875-1.332032-5.027343-1.691407-7.59375-1.007813-2.5625.6875-4.75 2.363281-6.074219 4.660156l-71.449218 123.75c-6.210938-2.277343-12.914063-3.519531-19.90625-3.519531-6.988282 0-13.695313 1.242188-19.90625 3.519531l-71.433594-123.722656c-2.761719-4.785156-8.875-6.421875-13.660156-3.660156-32.488282 18.753906-59.367188 45.839843-77.734375 78.324219-17.820313 31.523437-27.257813 67.320312-27.292969 103.53125-.003906 2.652343 1.050781 5.199218 2.925781 7.078124 1.875 1.875 4.421875 2.929688 7.074219 2.929688h142.910156c2.398438 13.742188 9.640625 25.839844 19.910156 34.449219l-71.453124 123.757812c-1.324219 2.296875-1.683594 5.027344-.996094 7.589844s2.359375 4.746094 4.65625 6.070313c31.945312 18.445312 68.152344 28.167968 104.828125 28.167968.621093 0 1.246093-.003906 1.871093-.007812 36.210938-.328125 71.933594-10.054688 103.308594-28.128906 2.300782-1.324219 3.976563-3.507813 4.667969-6.074219.6875-2.5625.328125-5.292969-1-7.589844l-71.464844-123.78125c10.269531-8.613281 17.511719-20.710937 19.910157-34.453125zm22.359374-127.664062c14.8125 10.0625 27.789063 23 37.878907 37.859374 1.9375 2.847657 5.082031 4.382813 8.285156 4.382813 1.933594 0 3.886719-.558594 5.605469-1.726563 4.570312-3.105468 5.761718-9.320312 2.65625-13.890624-11.777344-17.34375-27.003906-32.398438-44.398438-43.992188l14.03125-24.300781c50.785156 33.09375 82.980469 88.871093 86.195313 149.332031h-132.613281c-2.398438-13.742188-9.644532-25.835938-19.914063-34.449219zm-183.007812-41.652344 66.320312 114.871094c-10.269531 8.609374-17.511718 20.703124-19.910156 34.445312h-132.636718c3.265624-60.527344 35.472656-116.300781 86.226562-149.316406zm189.746094 328.648437c-54.050782 27.433594-118.460938 27.429688-172.425782-.015625l66.300782-114.835937c6.210937 2.277343 12.917968 3.519531 19.90625 3.519531 6.992187 0 13.695312-1.242188 19.90625-3.519531zm-86.21875-131.332031c-20.925782 0-37.957032-17.003906-37.996094-37.921875 0-.027344.003906-.050781.003906-.078125 0-.023438-.003906-.050781-.003906-.074219.039062-20.917969 17.070312-37.925781 37.996094-37.925781 20.953125 0 38 17.046875 38 38s-17.046875 38-38 38zm0 0"/><path d="m390.183594 208.296875c1.476562 4.0625 5.3125 6.59375 9.402344 6.59375 1.113281 0 2.25-.1875 3.363281-.585937 5.199219-1.855469 7.910156-7.578126 6.050781-12.78125-.007812-.023438-.023438-.070313-.039062-.109376-1.859376-5.160156-7.535157-7.863281-12.71875-6.042968-5.210938 1.828125-7.953126 7.535156-6.125 12.746094.019531.042968.046874.125.066406.179687zm0 0"/></svg>