<svg height="512pt" viewBox="0 0 512 512" width="512pt" xmlns="http://www.w3.org/2000/svg"><path d="m214.910156 256h69v39.667969h-69zm0 0" fill="#6a80ff"/><g fill="#d8d8e4"><path d="m256.035156 185.210938v70.789062h-40.253906v-40.183594"/><path d="m255.910156 296v186c0 11.046875-8.957031 20-20 20-11.046875 0-20-8.953125-20-20v-183zm0 0"/><path d="m204.125 296-96.949219 176.152344c-5.25 9.535156-1.90625 21.519531 7.519531 26.960937 9.703126 5.601563 22.113282 2.140625 27.515626-7.675781l73.570312-133.675781h40.253906l73.570313 133.675781c5.402343 9.816406 17.8125 13.277344 27.515625 7.675781 9.425781-5.441406 12.769531-17.425781 7.519531-26.960937l-94.671875-172.011719zm0 0"/></g><path d="m392.828125 92.3125-41.519531 23.972656-16.621094-28.785156 41.519531-23.972656zm0 0" fill="#6a80ff"/><path d="m81.105469 295.371094-35.460938-61.417969 40.441407-23.347656 35.460937 61.414062zm0 0" fill="#ff5d5d"/><path d="m320.753906 157.015625-37.027344-64.136719 40.535157-23.40625 37.03125 64.136719zm0 0" fill="#ff5d5d"/><path d="m75.984375 289.089844-31.871094-55.199219c-16.9375 12.277344-22.882812 34.957031-14.089843 53.992187 13.433593 8.707032 31.144531 9.761719 45.960937 1.207032zm0 0" fill="#6a80ff"/><path d="m118.359375 264.628906-27.710937-47.992187 197.363281-113.949219 27.707031 47.992188zm0 0" fill="#6a80ff"/><path d="m363.96875 22.234375c-2.757812-4.785156-8.875-6.421875-13.65625-3.660156-4.785156 2.761719-6.425781 8.875-3.660156 13.660156l.554687.960937-24.25 14-5-8.660156c-2.761719-4.78125-8.875-6.421875-13.660156-3.660156l-41.570313 24c-2.296874 1.324219-3.972656 3.511719-4.65625 6.070312-.511718 1.910157-.441406 3.910157.175782 5.753907l-181.207032 104.621093c-3.085937-3.488281-8.296874-4.449218-12.484374-2.03125l-41.570313 24c-2.296875 1.328126-3.972656 3.511719-4.660156 6.074219-.59375 2.214844-.402344 4.554688.519531 6.632813-19.347656 16.574218-24.8125 45.144531-11.625 67.988281 9.992188 17.304687 28.179688 26.992187 46.855469 26.988281 5.988281 0 12.019531-1 17.851562-3.058594 1.925781 2.636719 4.953125 4.105469 8.070313 4.105469 1.695312 0 3.414062-.433593 4.988281-1.339843l41.570313-24c2.296874-1.328126 3.972656-3.511719 4.65625-6.074219.511718-1.90625.441406-3.90625-.175782-5.753907l74.746094-43.152343v20.300781h-17.871094c-5.523437 0-10 4.476562-10 10v40c0 5.292969 4.113282 9.613281 9.316406 9.964844l-30.613281 55.621094c-2.660156 4.835937-.898437 10.917968 3.941407 13.582031 1.527343.84375 3.179687 1.242187 4.8125 1.242187 3.527343 0 6.949218-1.871094 8.769531-5.179687l31.773437-57.730469v41.460938l-72.460937 131.65625c-1.304688 2.371093-3.460938 4.078124-6.070313 4.808593-2.609375.726563-5.339844.378907-7.683594-.972656-4.679687-2.699219-6.363281-8.746094-3.757812-13.476563l22.011719-40c2.664062-4.839843.898437-10.917968-3.9375-13.582031-4.835938-2.664062-10.917969-.902343-13.582031 3.9375l-22.015626 40c-7.8125 14.195313-2.753906 32.339844 11.28125 40.441407 4.625 2.671874 9.75 4.035156 14.941407 4.035156 2.707031 0 5.433593-.371094 8.113281-1.121094 7.832031-2.183594 14.300781-7.308594 18.21875-14.429688l54.941406-99.816406v85.558594c0 16.542969 13.457032 30 30 30 16.539063 0 30-13.457031 30-30v-85.558594l54.9375 99.816406c3.917969 7.121094 10.386719 12.246094 18.21875 14.429688 2.683594.75 5.40625 1.121094 8.113282 1.121094 5.191406 0 10.316406-1.363282 14.941406-4.035156 14.035156-8.101563 19.09375-26.246094 11.28125-40.441407l-88.8125-161.367187c5.203125-.351563 9.320312-4.671875 9.320312-9.964844v-40c0-5.523438-4.480468-10-10-10h-17.875v-55.089844l46.226563-26.6875c1.925781 2.171875 4.660156 3.378906 7.476562 3.378906 1.695313 0 3.414063-.429687 4.988281-1.339843l41.570313-24c2.296875-1.328125 3.972656-3.511719 4.660156-6.074219.683594-2.558594.324219-5.289062-1-7.585938l-5-8.660156 24.246094-14 .554687.960938c1.855469 3.207031 5.214844 5 8.671876 5 1.695312 0 3.414062-.429688 4.988281-1.339844 4.785156-2.761719 6.421875-8.875 3.660156-13.660156zm-339.429688 245.75c-7.632812-13.222656-5.34375-29.496094 4.535157-40.144531l32.5 56.289062c-14.164063 3.230469-29.402344-2.921875-37.035157-16.144531zm59.105469 14.371094-42-72.746094 24.246094-14 42 72.746094zm152.265625 209.644531c-5.515625 0-10-4.484375-10-10v-176h20v176c0 5.515625-4.488281 10-10 10zm116.210938-1.546875c-2.34375 1.351563-5.074219 1.699219-7.683594.972656-2.609375-.730469-4.765625-2.4375-6.070312-4.8125l-72.457032-131.652343v-41.460938l89.972656 163.476562c2.601563 4.730469.917969 10.777344-3.761718 13.476563zm-78.210938-204.453125h-76v-20h76zm-27.875-40h-20.253906v-30.183594c0-.539062-.054688-1.070312-.136719-1.585937l20.390625-11.773438zm-124.390625 5.179688-15.226562-26.375 68.925781-39.792969c4.78125-2.761719 6.421875-8.878907 3.660156-13.660157-2.761718-4.78125-8.878906-6.421874-13.660156-3.660156l-68.925781 39.792969-8.773438-15.195313 180.421875-104.164062 34 58.890625zm201.742188-107.238282-21-36.375-21-36.371094 24.25-14 21 36.371094 16 27.714844 5 8.660156zm31.570312-41.320312-11-19.054688-11-19.050781 24.25-14 22 38.105469zm0 0"/><path d="m147.4375 409c2.632812 0 5.210938-1.070312 7.070312-2.929688 1.859376-1.859374 2.929688-4.441406 2.929688-7.070312s-1.070312-5.210938-2.929688-7.070312c-1.859374-1.859376-4.4375-2.929688-7.070312-2.929688-2.628906 0-5.210938 1.070312-7.070312 2.929688-1.859376 1.859374-2.929688 4.441406-2.929688 7.070312s1.070312 5.210938 2.929688 7.070312c1.859374 1.859376 4.441406 2.929688 7.070312 2.929688zm0 0"/><path d="m465.910156 0c-5.523437 0-10 4.476562-10 10v12.429688c0 5.523437 4.476563 10 10 10 5.519532 0 10-4.476563 10-10v-12.429688c0-5.523438-4.480468-10-10-10zm0 0"/><path d="m465.910156 59.570312c-5.523437 0-10 4.476563-10 10v12.429688c0 5.523438 4.476563 10 10 10 5.519532 0 10-4.476562 10-10v-12.429688c0-5.523437-4.480468-10-10-10zm0 0"/><path d="m501.910156 36h-12.429687c-5.523438 0-10 4.476562-10 10s4.476562 10 10 10h12.429687c5.519532 0 10-4.476562 10-10s-4.480468-10-10-10zm0 0"/><path d="m452.339844 46c0-5.523438-4.480469-10-10-10h-12.429688c-5.523437 0-10 4.476562-10 10s4.476563 10 10 10h12.429688c5.519531 0 10-4.476562 10-10zm0 0"/><path d="m63.910156 51c5.519532 0 10-4.476562 10-10v-12.429688c0-5.523437-4.480468-10-10-10-5.523437 0-10 4.476563-10 10v12.429688c0 5.519531 4.476563 10 10 10zm0 0"/><path d="m63.910156 110.566406c5.519532 0 10-4.476562 10-10v-12.429687c0-5.523438-4.480468-10-10-10-5.523437 0-10 4.476562-10 10v12.429687c0 5.523438 4.476563 10 10 10zm0 0"/><path d="m87.480469 74.566406h12.429687c5.519532 0 10-4.476562 10-10 0-5.519531-4.480468-10-10-10h-12.429687c-5.523438 0-10 4.480469-10 10 0 5.523438 4.476562 10 10 10zm0 0"/><path d="m27.910156 74.566406h12.429688c5.519531 0 10-4.476562 10-10 0-5.519531-4.480469-10-10-10h-12.429688c-5.523437 0-10 4.480469-10 10 0 5.523438 4.476563 10 10 10zm0 0"/><path d="m419.910156 207.9375c-5.523437 0-10 4.476562-10 10v12.429688c0 5.523437 4.476563 10 10 10 5.519532 0 10-4.476563 10-10v-12.429688c0-5.523438-4.480468-10-10-10zm0 0"/><path d="m419.910156 267.503906c-5.523437 0-10 4.476563-10 10v12.429688c0 5.523437 4.476563 10 10 10 5.519532 0 10-4.476563 10-10v-12.429688c0-5.523437-4.480468-10-10-10zm0 0"/><path d="m455.910156 243.9375h-12.429687c-5.523438 0-10 4.476562-10 10s4.476562 10 10 10h12.429687c5.519532 0 10-4.476562 10-10s-4.480468-10-10-10zm0 0"/><path d="m396.339844 243.9375h-12.429688c-5.523437 0-10 4.476562-10 10s4.476563 10 10 10h12.429688c5.519531 0 10-4.476562 10-10s-4.480469-10-10-10zm0 0"/><path d="m210.597656 150.121094c-1.859375-1.859375-4.4375-2.929688-7.070312-2.929688-2.640625 0-5.207032 1.070313-7.070313 2.929688-1.859375 1.859375-2.929687 4.429687-2.929687 7.070312 0 2.628906 1.070312 5.207032 2.929687 7.070313 1.863281 1.859375 4.429688 2.929687 7.070313 2.929687 2.632812 0 5.210937-1.070312 7.070312-2.929687 1.859375-1.863281 2.929688-4.441407 2.929688-7.070313 0-2.640625-1.070313-5.210937-2.929688-7.070312zm0 0"/></svg>