<svg height="512pt" viewBox="0 -26 512.00038 512" width="512pt" xmlns="http://www.w3.org/2000/svg"><path d="m236.183594 120.96875h39.632812v81.246094h-39.632812zm0 0" fill="#d8d8e4"/><path d="m206.769531 302.4375c0 25.71875 11.671875 48.703125 29.996094 63.972656 6.175781 1.460938 12.609375 2.257813 19.234375 2.257813 45.964844 0 83.226562-37.261719 83.226562-83.226563 0-25.71875-11.667968-48.703125-29.996093-63.96875-6.175781-1.464844-12.609375-2.261718-19.234375-2.261718-45.964844 0-83.226563 37.265624-83.226563 83.226562zm0 0" fill="#ff5d5d"/><path d="m224.515625 87.484375c0 10.261719 2.796875 19.867187 7.65625 28.117187 7.21875 3.4375 15.296875 5.367188 23.828125 5.367188 30.644531 0 55.484375-24.839844 55.484375-55.484375 0-10.261719-2.796875-19.867187-7.65625-28.117187-7.21875-3.4375-15.296875-5.367188-23.828125-5.367188-30.644531 0-55.484375 24.839844-55.484375 55.484375zm0 0" fill="#edf2fa"/><path d="m123.464844 384.839844-19.816406-34.320313 70.355468-40.621093 19.816406 34.320312zm0 0" fill="#d8d8e4"/><path d="m60.769531 364.367188c-26.539062 15.320312-35.632812 49.253906-20.308593 75.792968 1.402343 2.429688 2.96875 4.714844 4.664062 6.847656 15.199219 5.992188 32.882812 5.265626 48.128906-3.539062 26.539063-15.320312 35.632813-49.253906 20.308594-75.792969-1.402344-2.429687-2.964844-4.714843-4.664062-6.847656-15.195313-5.992187-32.882813-5.265625-48.128907 3.539063zm0 0" fill="#edf2fa"/><path d="m408.351562 350.507812-19.8125 34.320313-70.359374-40.621094 19.816406-34.320312zm0 0" fill="#d8d8e4"/><path d="m494.539062 423.160156c11.777344-20.394531 9.117188-45.152344-4.789062-62.476562-24.425781-8.027344-51.949219 1.84375-65.316406 24.992187-11.773438 20.394531-9.113282 45.152344 4.789062 62.480469 24.425782 8.023438 51.949219-1.847656 65.316406-24.996094zm0 0" fill="#edf2fa"/><path d="m509.742188 378.46875c-4.527344-16.894531-15.363282-31.015625-30.511719-39.761719-21.976563-12.6875-48.3125-11.128906-68.300781 1.753907l-63.519532-36.671876c1.1875-5.9375 1.816406-12.070312 1.816406-18.347656 0-40.984375-26.582031-75.875-63.410156-88.339844v-73.34375c21.152344-10.867187 35.667969-32.902343 35.667969-58.273437 0-36.109375-29.378906-65.484375-65.484375-65.484375s-65.484375 29.375-65.484375 65.484375c0 25.371094 14.515625 47.40625 35.667969 58.273437v73.34375c-36.828125 12.464844-63.410156 47.355469-63.410156 88.339844 0 6.277344.628906 12.410156 1.816406 18.347656l-63.519532 36.671876c-19.988281-12.886719-46.324218-14.441407-68.300781-1.753907-15.144531 8.746094-25.980469 22.867188-30.511719 39.761719-4.523437 16.894531-2.2031245 34.542969 6.542969 49.691406 8.746094 15.148438 22.867188 25.984375 39.761719 30.511719 5.644531 1.511719 11.367188 2.257813 17.058594 2.257813 11.34375 0 22.542968-2.976563 32.632812-8.800782 21.972656-12.683594 33.796875-36.269531 32.632813-60.027344l63.570312-36.699218c16.429688 14.46875 37.980469 23.265625 61.542969 23.265625 23.566406 0 45.113281-8.796875 61.546875-23.265625l63.570313 36.699218c-1.167969 23.753907 10.65625 47.34375 32.628906 60.027344 10.089844 5.828125 21.289062 8.800782 32.636718 8.800782 5.6875 0 11.414063-.746094 17.054688-2.257813 16.894531-4.527344 31.015625-15.363281 39.761719-30.511719 8.746093-15.148437 11.070312-32.792968 6.542969-49.691406zm-299.226563-312.984375c0-25.082031 20.402344-45.484375 45.484375-45.484375 25.078125 0 45.484375 20.402344 45.484375 45.484375s-20.40625 45.484375-45.484375 45.484375c-25.082031 0-45.484375-20.402344-45.484375-45.484375zm35.667969 126.730469v-61.984375c3.203125.484375 6.480468.738281 9.816406.738281s6.613281-.253906 9.816406-.738281v61.984375zm-157.929688 242.59375c-10.519531 6.078125-22.78125 7.691406-34.511718 4.546875-11.738282-3.148438-21.546876-10.671875-27.621094-21.195313-6.074219-10.519531-7.6875-22.777344-4.542969-34.515625 3.144531-11.734375 10.671875-21.542969 21.191406-27.617187 7.144531-4.125 14.953125-6.085938 22.667969-6.085938 15.730469 0 31.050781 8.160156 39.46875 22.734375 12.539062 21.722657 5.070312 49.59375-16.652344 62.132813zm38.238282-63.261719c-1.183594-3.015625-2.601563-5.980469-4.269532-8.871094-1.667968-2.886719-3.527344-5.597656-5.546875-8.128906l53.679688-30.992187 9.816406 17zm129.507812-12.878906c-40.378906 0-73.226562-32.847657-73.226562-73.226563s32.847656-73.226562 73.226562-73.226562c40.375 0 73.226562 32.851562 73.226562 73.226562 0 40.378906-32.847656 73.226563-73.226562 73.226563zm75.828125-18.113281 9.816406-17.003907 53.679688 30.992188c-2.019531 2.53125-3.878907 5.246093-5.546875 8.132812-1.667969 2.890625-3.085938 5.855469-4.269532 8.871094zm154.050781 77.605468c-6.074218 10.523438-15.882812 18.050782-27.617187 21.195313s-23.992188 1.53125-34.515625-4.546875c-21.722656-12.539063-29.191406-40.414063-16.648438-62.132813 8.414063-14.574219 23.734375-22.734375 39.464844-22.734375 7.714844 0 15.523438 1.960938 22.667969 6.085938 10.519531 6.074218 18.050781 15.882812 21.191406 27.617187 3.144531 11.738281 1.53125 23.996094-4.542969 34.515625zm0 0"/><path d="m232.121094 251.640625c-4.222656-3.519531-10.492188-2.964844-14.035156 1.222656-.023438.03125-.054688.070313-.074219.09375-3.535157 4.242188-2.964844 10.546875 1.277343 14.082031 1.871094 1.558594 4.140626 2.320313 6.398438 2.320313 2.839844 0 5.664062-1.207031 7.636719-3.542969.027343-.03125.058593-.066406.078125-.09375 3.535156-4.238281 2.964844-10.542968-1.28125-14.082031zm0 0"/><path d="m256 235.457031c-5.523438 0-10 4.476563-10 10 0 5.519531 4.476562 9.996094 10 9.996094 16.535156 0 29.984375 13.453125 29.984375 29.988281 0 5.523438 4.480469 10 10 10 5.523437 0 10-4.476562 10-10 0-27.5625-22.421875-49.984375-49.984375-49.984375zm0 0"/></svg>