<svg height="512pt" viewBox="0 -40 512 512" width="512pt" xmlns="http://www.w3.org/2000/svg"><path d="m174.613281 422h203.785157l-101.890626-176.484375zm0 0" fill="#898998"/><path d="m62 170h440v40h-440zm0 0" fill="#ffc66c"/><path d="m377 37h125v129h-125zm0 0" fill="#7d9bff"/><path d="m41 33h125v133h-125zm0 0" fill="#7d9bff"/><path d="m502 0h-156c-5.523438 0-10 4.476562-10 10v146h-160v-146c0-5.523438-4.476562-10-10-10h-156c-5.523438 0-10 4.476562-10 10v200c0 5.523438 4.476562 10 10 10h68v50.855469l-10.691406-10.6875c-3.902344-3.90625-10.234375-3.90625-14.140625 0-3.90625 3.902343-3.90625 10.234375 0 14.140625l27.761719 27.761718c1.953124 1.953126 4.511718 2.929688 7.070312 2.929688s5.117188-.976562 7.070312-2.929688l27.761719-27.761718c3.90625-3.90625 3.90625-10.238282 0-14.144532-3.902343-3.902343-10.234375-3.902343-14.140625 0l-10.691406 10.691407v-50.855469h140.679688l-113.738282 197c-1.789062 3.09375-1.789062 6.90625 0 10 1.785156 3.09375 5.085938 5 8.660156 5h244.796876c3.574218 0 6.875-1.90625 8.660156-5s1.785156-6.90625 0-10l-113.738282-197h140.679688v50.855469l-10.691406-10.6875c-3.902344-3.90625-10.234375-3.90625-14.140625 0-3.90625 3.902343-3.90625 10.234375 0 14.140625l27.761719 27.761718c1.953124 1.953126 4.511718 2.929688 7.070312 2.929688s5.117188-.976562 7.070312-2.929688l27.761719-27.761718c3.90625-3.902344 3.90625-10.234375 0-14.140625-3.902343-3.90625-10.234375-3.90625-14.140625 0l-10.691406 10.6875v-50.855469h68c5.523438 0 10-4.476562 10-10v-200c0-5.523438-4.476562-10-10-10zm-351.078125 412 78.085937-135.246094 32.957032 57.089844c1.851562 3.210938 5.214844 5.003906 8.671875 5.003906 1.695312 0 3.414062-.433594 4.988281-1.34375 4.785156-2.761718 6.421875-8.875 3.660156-13.660156l-38.734375-67.089844 15.449219-26.753906 105.078125 182zm258.222656-256 82.855469-82.855469v82.855469zm17.710938-136-70.855469 70.855469v-70.855469zm-70.855469 99.144531 99.144531-99.144531h36.855469v24.855469l-111.144531 111.144531h-24.855469zm-282.855469 36.855469 82.855469-82.855469v82.855469zm82.855469-111.144531-111.144531 111.144531h-24.855469v-36.855469l99.144531-99.144531h36.855469zm-65.144531-24.855469-70.855469 70.855469v-70.855469zm-70.855469 180v-24h58v24zm78 0v-24h316v24zm394 0h-58v-24h58zm0 0"/><path d="m292.078125 376c2.632813 0 5.210937-1.070312 7.070313-2.929688 1.863281-1.859374 2.929687-4.441406 2.929687-7.070312s-1.066406-5.210938-2.929687-7.070312c-1.859376-1.859376-4.4375-2.929688-7.070313-2.929688-2.636719 0-5.207031 1.070312-7.066406 2.929688-1.863281 1.859374-2.933594 4.441406-2.933594 7.070312s1.070313 5.210938 2.933594 7.070312c1.859375 1.859376 4.4375 2.929688 7.066406 2.929688zm0 0"/></svg>