<svg height="512pt" viewBox="0 0 512 512" width="512pt" xmlns="http://www.w3.org/2000/svg"><path d="m276.828125 40.375-67.097656 97.855469c-25.183594 36.730469-20.609375 86.195312 10.878906 117.683593 1.828125 1.828126 3.730469 3.539063 5.664063 5.179688 32.277343 10.929688 69.386718 3.546875 95.117187-22.179688 31.488281-31.488281 36.0625-80.953124 10.878906-117.683593zm0 0" fill="#7d9bff"/><path d="m52 405c0 23.238281 12.894531 44.972656 35.296875 63.511719 44.042969 20.761719 103.398437 33.488281 168.703125 33.488281 135.863281 0 246-55.070312 246-123 0-23.238281-12.894531-44.972656-35.296875-63.511719-44.042969-20.761719-103.398437-33.488281-168.703125-33.488281-135.863281 0-246 55.070312-246 123zm0 0" fill="#a7c5ff"/><path d="m447.867188 290.34375c-32.984376-19.238281-76.421876-33.046875-124.339844-39.742188 1.683594-1.480468 3.332031-3.011718 4.933594-4.613281 34.878906-34.882812 39.949218-89.726562 12.054687-130.410156l-76.269531-111.234375c-1.863282-2.71875-4.949219-4.34375-8.246094-4.34375s-6.382812 1.625-8.246094 4.34375l-76.269531 111.230469c-27.894531 40.6875-22.828125 95.53125 12.054687 130.410156 1.601563 1.601563 3.25 3.136719 4.933594 4.617187-47.914062 6.695313-91.351562 20.503907-124.335937 39.738282-41.359375 24.117187-64.136719 55.601562-64.136719 88.660156 0 36.839844 27.550781 70.902344 77.578125 95.917969 47.828125 23.914062 111.191406 37.082031 178.421875 37.082031s130.59375-13.167969 178.421875-37.082031c50.027344-25.015625 77.578125-59.078125 77.578125-95.917969 0-33.054688-22.777344-64.539062-64.132812-88.65625zm-259.886719-163.457031 68.019531-99.203125 68.019531 99.203125c22.453125 32.746093 18.371094 76.886719-9.703125 104.960937-15.574218 15.574219-36.285156 24.15625-58.316406 24.15625s-42.742188-8.582031-58.316406-24.160156c-28.074219-28.074219-32.15625-72.214844-9.703125-104.957031zm237.496093 330.140625c-45.101562 22.554687-105.289062 34.972656-169.476562 34.972656s-124.375-12.417969-169.476562-34.972656c-42.898438-21.449219-66.523438-49.160156-66.523438-78.027344 0-54.125 83.945312-101.855469 195.480469-111.300781 12.628906 5.441406 26.355469 8.300781 40.519531 8.300781s27.890625-2.859375 40.519531-8.300781c111.535157 9.445312 195.480469 57.179687 195.480469 111.300781 0 28.867188-23.625 56.578125-66.523438 78.027344zm0 0"/><path d="m364.328125 317.246094c-29.101563-12.902344-67.570313-20.007813-108.328125-20.007813s-79.226562 7.105469-108.328125 20.007813c-31.691406 14.050781-49.140625 33.714844-49.140625 55.371094 0 36.21875 48.972656 65.765624 121.863281 73.523437.359375.039063.714844.058594 1.070313.058594 5.046875 0 9.382812-3.8125 9.929687-8.941407.585938-5.492187-3.390625-10.417968-8.882812-11.003906-30.34375-3.230468-57.675781-10.902344-76.957031-21.609375-17.425782-9.675781-27.023438-21.050781-27.023438-32.023437 0-26.195313 56.457031-55.382813 137.46875-55.382813s137.46875 29.1875 137.46875 55.382813c0 23.277344-42.570312 46.089844-99.023438 53.0625-5.480468.679687-9.375 5.671875-8.699218 11.152344.679687 5.480468 5.675781 9.367187 11.152344 8.695312 32.167968-3.972656 60.167968-12.402344 80.976562-24.375 23.285156-13.398438 35.59375-30.183594 35.59375-48.535156 0-21.660156-17.449219-41.324219-49.140625-55.375zm0 0"/><path d="m256.4375 428h-.4375c-5.523438 0-10 4.476562-10 10s4.476562 10 10 10h.4375c5.523438 0 10-4.476562 10-10s-4.476562-10-10-10zm0 0"/><path d="m318.339844 368.667969c0-20.382813-32.316406-29.667969-62.339844-29.667969s-62.339844 9.285156-62.339844 29.667969c0 20.382812 32.316406 29.664062 62.339844 29.664062s62.339844-9.28125 62.339844-29.664062zm-62.339844-9.667969c24.234375 0 38.46875 6.261719 41.855469 9.667969-3.386719 3.402343-17.621094 9.664062-41.855469 9.664062s-38.46875-6.261719-41.855469-9.664062c3.386719-3.40625 17.621094-9.667969 41.855469-9.667969zm0 0"/><path d="m256 236c16.6875 0 32.375-6.496094 44.175781-18.296875 21.265625-21.265625 24.355469-54.703125 7.351563-79.507813-3.125-4.554687-9.351563-5.714843-13.90625-2.589843-4.554688 3.125-5.714844 9.347656-2.589844 13.902343 11.5625 16.863282 9.460938 39.59375-5 54.054688-8.019531 8.019531-18.6875 12.4375-30.03125 12.4375-5.523438 0-10 4.476562-10 10s4.476562 10 10 10zm0 0"/><path d="m212.152344 218.027344c1.949218 1.914062 4.480468 2.871094 7.011718 2.871094 2.585938 0 5.171876-.996094 7.128907-2.988282 3.875-3.933594 3.824219-10.265625-.113281-14.140625l-.210938-.210937c-3.90625-3.902344-10.238281-3.902344-14.144531 0-3.902344 3.90625-3.902344 10.238281 0 14.144531zm0 0"/></svg>