<svg height="511pt" viewBox="1 1 511 511.99975" width="511pt" xmlns="http://www.w3.org/2000/svg"><path d="m278.5 200c-44.183594 0-80 35.816406-80 80 0 14.945312 4.109375 28.925781 11.242188 40.894531 13.15625 9.496094 29.296874 15.105469 46.757812 15.105469 44.183594 0 80-35.816406 80-80 0-14.945312-4.109375-28.925781-11.246094-40.894531-13.152344-9.496094-29.292968-15.105469-46.753906-15.105469zm0 0" fill="#ff5d5d"/><path d="m266.5 283v-17h17c5.523438 0 10-4.476562 10-10s-4.476562-10-10-10h-17v-17c0-5.523438-4.476562-10-10-10s-10 4.476562-10 10v17h-17c-5.523438 0-10 4.476562-10 10s4.476562 10 10 10h17v17c0 5.523438 4.476562 10 10 10s10-4.476562 10-10zm0 0"/><path d="m371.109375 248.929688c-1.871094 1.859374-2.929687 4.441406-2.929687 7.070312s1.058593 5.210938 2.929687 7.070312c1.859375 1.859376 4.441406 2.929688 7.070313 2.929688 2.628906 0 5.210937-1.070312 7.070312-2.929688 1.859375-1.859374 2.929688-4.441406 2.929688-7.070312s-1.070313-5.210938-2.929688-7.070312c-1.859375-1.859376-4.441406-2.929688-7.070312-2.929688-2.640626 0-5.210938 1.070312-7.070313 2.929688zm0 0"/><path d="m509.570312 248.929688-20.039062-20.039063c-3.90625-3.90625-10.238281-3.90625-14.144531 0-3.902344 3.902344-3.902344 10.234375 0 14.140625l2.96875 2.96875h-62.078125c-5.523438 0-10 4.476562-10 10s4.476562 10 10 10h62.078125l-2.96875 2.96875c-3.902344 3.90625-3.902344 10.238281 0 14.144531 1.953125 1.953125 4.511719 2.929688 7.070312 2.929688 2.5625 0 5.121094-.976563 7.074219-2.929688l20.039062-20.039062c3.90625-3.910157 3.90625-10.242188 0-14.144531zm0 0"/><path d="m138.738281 359.621094-46.1875 46.183594v-4.195313c0-5.523437-4.476562-10-10-10-5.523437 0-10 4.476563-10 10v28.339844c0 5.523437 4.476563 10 10 10h28.34375c5.519531 0 10-4.476563 10-10 0-5.523438-4.480469-10-10-10h-4.199219l46.183594-46.1875c3.90625-3.902344 3.90625-10.234375 0-14.140625s-10.238281-3.90625-14.140625 0zm0 0"/><path d="m170.71875 331.78125c-2.628906 0-5.210938 1.070312-7.070312 2.929688-1.859376 1.859374-2.929688 4.4375-2.929688 7.070312 0 2.628906 1.070312 5.210938 2.929688 7.070312 1.859374 1.859376 4.441406 2.929688 7.070312 2.929688 2.632812 0 5.210938-1.070312 7.070312-2.929688 1.859376-1.859374 2.929688-4.441406 2.929688-7.070312 0-2.632812-1.070312-5.210938-2.929688-7.070312-1.859374-1.859376-4.4375-2.929688-7.070312-2.929688zm0 0"/><path d="m430.449219 391.609375c-5.523438 0-10 4.476563-10 10v4.195313l-93.664063-93.660157c12.328125-15.402343 19.714844-34.925781 19.714844-56.144531s-7.386719-40.742188-19.714844-56.144531l93.664063-93.660157v4.195313c0 5.523437 4.476562 10 10 10 5.519531 0 10-4.476563 10-10v-28.339844c0-5.523437-4.480469-10-10-10h-28.34375c-5.523438 0-10 4.476563-10 10 0 5.523438 4.476562 10 10 10h4.199219l-93.660157 93.664063c-12.949219-10.367188-28.8125-17.230469-46.144531-19.15625v-132.414063l2.96875 2.96875c1.953125 1.953125 4.511719 2.925781 7.070312 2.925781 2.558594 0 5.117188-.972656 7.070313-2.925781 3.90625-3.90625 3.90625-10.238281 0-14.144531l-20.039063-20.039062c-3.90625-3.90625-10.238281-3.90625-14.144531 0l-20.039062 20.039062c-3.90625 3.90625-3.90625 10.238281 0 14.144531 3.90625 3.902344 10.238281 3.902344 14.144531 0l2.96875-2.96875v132.414063c-17.332031 1.925781-33.195312 8.792968-46.144531 19.15625l-93.660157-93.664063h4.195313c5.523437 0 10-4.476562 10-10 0-5.523437-4.476563-10-10-10h-28.339844c-5.523437 0-10 4.476563-10 10v28.34375c0 5.519531 4.476563 10 10 10 5.523438 0 10-4.480469 10-10v-4.199219l93.664063 93.660157c-10.367188 12.949219-17.230469 28.8125-19.15625 46.144531h-132.414063l2.96875-2.96875c3.902344-3.90625 3.902344-10.238281 0-14.140625-3.90625-3.90625-10.238281-3.90625-14.144531 0l-20.039062 20.039063c-3.90625 3.902343-3.90625 10.234374 0 14.140624l20.039062 20.042969c1.953125 1.949219 4.511719 2.925781 7.070312 2.925781 2.558594 0 5.121094-.976562 7.070313-2.925781 3.90625-3.90625 3.90625-10.238281 0-14.144531l-2.964844-2.96875h132.414063c4.625 41.652344 37.789062 74.816406 79.441406 79.441406v132.414063l-2.96875-2.96875c-3.90625-3.902344-10.238281-3.902344-14.144531 0-3.902344 3.90625-3.902344 10.238281 0 14.144531l20.039062 20.039062c1.953125 1.953126 4.515625 2.929688 7.074219 2.929688s5.117188-.976562 7.070312-2.929688l20.039063-20.039062c3.90625-3.90625 3.90625-10.238281 0-14.144531-3.90625-3.902344-10.238281-3.902344-14.144531 0l-2.964844 2.972656v-132.417969c17.332031-1.925781 33.195312-8.789062 46.144531-19.15625l93.660157 93.664063h-4.195313c-5.523437 0-10 4.476562-10 10 0 5.523437 4.476563 10 10 10h28.339844c5.523437 0 10-4.476563 10-10v-28.339844c0-5.523437-4.480469-10-10-10zm-243.949219-135.609375c0-38.597656 31.402344-70 70-70s70 31.402344 70 70-31.402344 70-70 70-70-31.402344-70-70zm0 0"/></svg>