<svg height="512pt" viewBox="0 0 512 512" width="512pt" xmlns="http://www.w3.org/2000/svg"><path d="m293.230469 183.097656c-19.007813 19.007813-20.25 49.046875-3.742188 69.503906 18.597657 7.085938 40.433594 3.152344 55.414063-11.832031 19.007812-19.007812 20.25-49.046875 3.742187-69.503906-18.597656-7.085937-40.429687-3.152344-55.414062 11.832031zm0 0" fill="#36d28f"/><path d="m189.097656 283.230469c-20.34375 20.34375-20.34375 53.328125 0 73.671875.535156.535156 1.082032 1.046875 1.632813 1.550781 17.304687 4.519531 36.480469.011719 50.039062-13.550781 20.34375-20.34375 20.34375-53.328125 0-73.671875-.535156-.535157-1.082031-1.046875-1.632812-1.550781-17.304688-4.519532-36.480469-.007813-50.039063 13.550781zm0 0" fill="#ff5d5d"/><path d="m166.050781 140.601562c2.628907 0 5.210938-1.070312 7.070313-2.929687 1.859375-1.863281 2.929687-4.441406 2.929687-7.070313 0-2.632812-1.070312-5.210937-2.929687-7.070312s-4.441406-2.929688-7.070313-2.929688c-2.628906 0-5.210937 1.070313-7.070312 2.929688-1.871094 1.859375-2.929688 4.4375-2.929688 7.070312 0 2.628907 1.058594 5.207032 2.929688 7.070313 1.859375 1.859375 4.441406 2.929687 7.070312 2.929687zm0 0"/><path d="m359.238281 414.78125c-2.628906 0-5.207031 1.066406-7.066406 2.929688-1.863281 1.867187-2.933594 4.4375-2.933594 7.070312 0 2.628906 1.070313 5.207031 2.933594 7.066406 1.859375 1.871094 4.4375 2.933594 7.066406 2.933594 2.632813 0 5.210938-1.0625 7.070313-2.933594 1.859375-1.859375 2.929687-4.4375 2.929687-7.066406 0-2.632812-1.066406-5.210938-2.929687-7.070312-1.859375-1.859376-4.4375-2.929688-7.070313-2.929688zm0 0"/><path d="m396.242188 136.433594c31.191406-19.925782 67.449218-30.605469 105.355468-30.605469h.402344c5.523438 0 10-4.476563 10-10s-4.476562-10-10-10h-.402344c-25.601562 0-50.636718 4.472656-74.554687 13.273437l82.023437-82.023437c3.902344-3.90625 3.902344-10.238281 0-14.144531-3.90625-3.902344-10.238281-3.902344-14.144531 0l-82.023437 82.023437c8.800781-23.917969 13.273437-48.953125 13.273437-74.554687v-.402344c0-5.523438-4.480469-10-10-10-5.523437 0-10 4.476562-10 10v.402344c0 37.90625-10.679687 74.164062-30.605469 105.355468 2.730469-30.417968-7.65625-61.640624-30.675781-84.660156-20.054687-20.054687-46.714844-31.097656-75.078125-31.097656-28.359375 0-55.023438 11.042969-75.078125 31.097656l-163.636719 163.640625c-20.054687 20.050781-31.097656 46.714844-31.097656 75.074219s11.042969 55.023438 31.097656 75.078125c20.605469 20.605469 47.824219 31.105469 75.15625 31.101563 3.175782 0 6.351563-.152344 9.519532-.4375-31.195313 19.929687-67.460938 30.617187-105.371094 30.617187h-.402344c-5.523438 0-10 4.476563-10 10 0 5.519531 4.476562 10 10 10h.402344c25.601562 0 50.636718-4.472656 74.554687-13.273437l-82.019531 82.023437c-3.90625 3.90625-3.90625 10.238281 0 14.144531 1.953125 1.949219 4.511719 2.925782 7.070312 2.925782 2.558594 0 5.117188-.976563 7.070313-2.925782l82.023437-82.023437c-8.800781 23.917969-13.273437 48.953125-13.273437 74.554687v.402344c0 5.523438 4.480469 10 10 10 5.523437 0 10-4.476562 10-10v-.402344c0-37.917968 10.6875-74.191406 30.628906-105.386718-2.734375 30.4375 7.648438 61.6875 30.652344 84.691406 20.699219 20.699218 47.886719 31.046875 75.078125 31.046875 27.1875 0 54.375-10.347657 75.074219-31.046875l24.480469-24.480469c3.90625-3.902344 3.90625-10.234375 0-14.140625s-10.234376-3.90625-14.144532 0l-24.476562 24.480469c-33.601563 33.597656-88.269532 33.597656-121.871094 0-20.3125-20.3125-28.519531-48.539063-24.066406-75.222657 2.878906 17.386719 11.078125 33.84375 24.09375 46.859376 16.269531 16.269531 37.898437 25.230468 60.910156 25.230468 23.007812 0 44.636719-8.960937 60.90625-25.230468l135.304688-135.300782c33.585937-33.585937 33.585937-88.234375 0-121.820312-13.019532-13.019532-29.53125-21.222656-46.972657-24.089844 26.707031-4.5 54.972657 3.703125 75.332031 24.066406 33.601563 33.597656 33.601563 88.269532 0 121.867188l-88.574218 88.574218c-3.90625 3.90625-3.90625 10.238282 0 14.144532 1.953125 1.953125 4.511718 2.929687 7.070312 2.929687s5.117188-.976562 7.070313-2.929687l88.578125-88.574219c41.394531-41.398437 41.394531-108.757813 0-150.15625-23.019532-23.015625-54.242188-33.40625-84.660156-30.675781zm-117.941407 97.265625c-16.410156-16.414063-16.410156-43.117188 0-59.53125 7.953125-7.949219 18.523438-12.328125 29.765625-12.328125 11.246094 0 21.816406 4.378906 29.765625 12.328125 7.953125 7.949219 12.332031 18.519531 12.332031 29.765625 0 11.242187-4.378906 21.8125-12.332031 29.765625-7.949219 7.949219-18.519531 12.328125-29.765625 12.328125-11.242187 0-21.8125-4.378906-29.765625-12.328125zm29.765625-91.859375c-16.585937 0-32.179687 6.457031-43.90625 18.1875-21.804687 21.800781-23.960937 55.914062-6.496094 80.164062l-17.46875 17.46875c-10.496093-7.582031-23.058593-11.6875-36.261718-11.6875-16.585938 0-32.179688 6.457032-43.910156 18.1875-11.726563 11.726563-18.1875 27.320313-18.1875 43.90625 0 3.097656.226562 6.164063.671874 9.175782-6.136718-2.277344-11.71875-5.855469-16.476562-10.613282-8.710938-8.707031-13.503906-20.28125-13.503906-32.597656s4.792968-23.890625 13.503906-32.597656l115.402344-115.402344c8.707031-8.710938 20.285156-13.503906 32.597656-13.503906 12.316406 0 23.894531 4.796875 32.601562 13.503906 4.730469 4.730469 8.320313 10.328125 10.605469 16.476562-3.011719-.445312-6.074219-.667968-9.171875-.667968zm-133.898437 195.992187c-7.949219-7.949219-12.328125-18.519531-12.328125-29.765625 0-11.242187 4.378906-21.8125 12.328125-29.765625 7.949219-7.949219 18.519531-12.328125 29.765625-12.328125 11.242187 0 21.8125 4.378906 29.765625 12.328125 7.949219 7.949219 12.328125 18.519531 12.328125 29.765625 0 11.242188-4.378906 21.816406-12.328125 29.765625s-18.519531 12.328125-29.765625 12.328125-21.816406-4.378906-29.765625-12.328125zm29.765625 32.328125c16.585937 0 32.179687-6.457031 43.90625-18.1875 21.804687-21.800781 23.960937-55.914062 6.496094-80.164062l17.472656-17.472656c10.789062 7.769531 23.519531 11.664062 36.257812 11.660156 15.898438 0 31.804688-6.054688 43.910156-18.15625 11.726563-11.730469 18.1875-27.320313 18.1875-43.90625 0-3.097656-.226562-6.164063-.671874-9.171875 6.148437 2.285156 11.746093 5.875 16.480468 10.605469 8.707032 8.710937 13.5 20.285156 13.5 32.601562 0 12.3125-4.792968 23.890625-13.5 32.597656l-115.40625 115.402344c-8.707031 8.710938-20.285156 13.503906-32.597656 13.503906-12.316406 0-23.894531-4.792968-32.601562-13.503906-4.757813-4.757812-8.332032-10.339844-10.609376-16.476562 3.011719.445312 6.078126.667968 9.175782.667968zm-158.695313-39.414062c-33.597656-33.597656-33.597656-88.269532 0-121.867188l163.640625-163.640625c16.277344-16.273437 37.917969-25.238281 60.933594-25.238281 23.019531 0 44.660156 8.964844 60.933594 25.238281 20.355468 20.355469 28.558594 48.605469 24.070312 75.304688-2.867187-17.421875-11.070312-33.917969-24.09375-46.941407-16.269531-16.269531-37.902344-25.230468-60.910156-25.230468s-44.640625 8.960937-60.910156 25.230468l-24.480469 24.484376c-3.90625 3.90625-3.90625 10.238281 0 14.144531 3.902344 3.902343 10.234375 3.902343 14.140625 0l24.484375-24.488281c12.492187-12.488282 29.101563-19.371094 46.765625-19.371094 17.667969 0 34.277344 6.882812 46.769531 19.371094 12.875 12.875 19.617188 30.160156 19.375 47.707031-3.28125-8.792969-8.417969-16.796875-15.183593-23.5625-25.773438-25.773438-67.710938-25.773438-93.484376 0l-115.402343 115.402343c-25.769531 25.773438-25.769531 67.710938 0 93.484376 6.804687 6.804687 14.792969 11.921874 23.566406 15.191406-17.539063.25-34.820313-6.496094-47.710937-19.382813-12.488282-12.492187-19.371094-29.101562-19.371094-46.769531 0-17.664062 6.882812-34.273438 19.371094-46.765625l61.320312-61.316406c3.90625-3.90625 3.90625-10.238281 0-14.144531-3.90625-3.902344-10.238281-3.902344-14.144531 0l-61.316407 61.316406c-16.269531 16.273437-25.230468 37.902344-25.230468 60.910156s8.960937 44.640625 25.230468 60.910156c13.027344 13.027344 29.507813 21.214844 46.914063 24.082032-26.699219 4.476562-54.949219-3.730469-75.277344-24.058594zm398.390625-88.558594c0 17.664062-6.882812 34.273438-19.371094 46.765625l-135.304687 135.304687c-12.492187 12.488282-29.101563 19.371094-46.765625 19.371094-17.667969 0-34.277344-6.882812-46.769531-19.371094-12.886719-12.890624-19.632813-30.167968-19.382813-47.710937 3.269532 8.773437 8.386719 16.761719 15.191406 23.566406 12.886719 12.886719 29.8125 19.328125 46.742188 19.328125 16.925781 0 33.851562-6.441406 46.738281-19.328125l115.40625-115.402343c25.769531-25.773438 25.769531-67.710938 0-93.484376-6.761719-6.761718-14.757812-11.894531-23.546875-15.175781 17.542969-.234375 34.828125 6.507813 47.6875 19.371094 12.492188 12.488281 19.375 29.097656 19.375 46.765625zm0 0"/><path d="m213.933594 322.09375v-4.027344h4.027344c5.519531 0 10-4.476562 10-10 0-5.519531-4.480469-10-10-10h-4.027344v-4.023437c0-5.523438-4.480469-10-10-10-5.523438 0-10 4.476562-10 10v4.023437h-4.027344c-5.519531 0-10 4.480469-10 10 0 5.523438 4.480469 10 10 10h4.027344v4.027344c0 5.519531 4.476562 10 10 10 5.519531 0 10-4.480469 10-10zm0 0"/><path d="m332.09375 203.933594c0-5.523438-4.480469-10-10-10h-28.054688c-5.519531 0-10 4.476562-10 10 0 5.523437 4.480469 10 10 10h28.054688c5.519531 0 10-4.476563 10-10zm0 0"/></svg>