<svg height="511pt" viewBox="1 -14 511.99984 511" width="511pt" xmlns="http://www.w3.org/2000/svg"><path d="m173.5 35.996094h149.5v54.5h-149.5zm0 0" fill="#ff5d5d"/><path d="m323 26.496094h32.167969c4.324219 0 7.832031 3.507812 7.832031 7.835937v32.332031c0 4.324219-3.507812 7.832032-7.832031 7.832032h-32.167969zm0 0" fill="#d8d8e4"/><path d="m25.335938 357.59375c0 7.109375 1.859374 13.773438 5.109374 19.558594 5.78125 3.25 12.449219 5.109375 19.554688 5.109375 22.09375 0 40-17.910157 40-40 0-7.105469-1.859375-13.773438-5.109375-19.554688-5.78125-3.25-12.449219-5.113281-19.554687-5.113281-22.09375 0-40 17.910156-40 40zm0 0" fill="#36d28f"/><path d="m50 114.496094c5.523438 0 10-4.476563 10-10v-44h79v30c0 5.523437 4.480469 10 10 10h174c5.523438 0 10-4.476563 10-10v-6h22.167969c9.832031 0 17.832031-8 17.832031-17.832032v-6.492187c.800781.207031 1.636719.328125 2.5.328125h76.5v148h-30c-5.523438 0-10 4.476562-10 10 0 5.519531 4.476562 9.996094 10 9.996094h80c5.523438 0 10-4.476563 10-9.996094 0-5.523438-4.476562-10-10-10h-30v-158c0-5.523438-4.476562-10-10-10h-86.5c-.863281 0-1.699219.121094-2.5.328125v-6.496094c0-9.832031-8-17.832031-17.832031-17.832031h-22.167969v-6c0-5.523438-4.476562-10-10-10h-174c-5.519531 0-10 4.476562-10 10v30h-89c-5.519531 0-10 4.476562-10 10v54c0 5.519531 4.480469 9.996094 10 9.996094zm303-78v28h-20v-28zm-194-16h154v60h-154zm0 0"/><path d="m50 152.726562c2.632812 0 5.210938-1.058593 7.070312-2.917968 1.859376-1.871094 2.929688-4.441406 2.929688-7.070313 0-2.640625-1.070312-5.222656-2.929688-7.070312-1.859374-1.871094-4.4375-2.929688-7.070312-2.929688-2.640625 0-5.207031 1.058594-7.066406 2.929688-1.863282 1.847656-2.933594 4.429687-2.933594 7.070312 0 2.628907 1.070312 5.199219 2.933594 7.070313 1.859375 1.859375 4.425781 2.917968 7.066406 2.917968zm0 0"/><path d="m58.660156 359.496094 12.511719-21.667969c2.761719-4.78125 1.121094-10.898437-3.660156-13.660156-4.785157-2.761719-10.902344-1.121094-13.660157 3.660156l-3.851562 6.667969-3.847656-6.667969c-2.761719-4.78125-8.878906-6.417969-13.660156-3.660156-4.785157 2.765625-6.421876 8.878906-3.660157 13.660156l12.507813 21.667969c1.789062 3.09375 5.089844 5 8.660156 5 3.574219 0 6.875-1.90625 8.660156-5zm0 0"/><path d="m502 256.496094h-80c-5.523438 0-10 4.480468-10 10 0 5.523437 4.476562 10 10 10h30v148h-86.78125v-6.558594c0-18.4375-15.003906-33.441406-33.441406-33.441406-9.125 0-17.402344 3.675781-23.445313 9.621094-6.039062-5.945313-14.316406-9.621094-23.441406-9.621094s-17.402344 3.675781-23.441406 9.621094c-6.042969-5.945313-14.320313-9.621094-23.445313-9.621094-9.121094 0-17.402344 3.675781-23.441406 9.621094-6.039062-5.945313-14.320312-9.621094-23.445312-9.621094-18.4375 0-33.441407 15.003906-33.441407 33.441406v6.558594h-97.675781v-33.238282c22.796875-4.648437 40-24.847656 40-48.996093 0-24.144531-17.203125-44.347657-40-48.992188v-50.773437c0-1.671875-.417969-3.316406-1.21875-4.785156l-40-73.363282c-2.644531-4.847656-8.714844-6.636718-13.566406-3.992187-4.847656 2.644531-6.636719 8.71875-3.992188 13.566406l38.777344 71.125v48.222656c-22.792969 4.644531-40 24.847657-40 48.992188 0 24.148437 17.207031 44.347656 40 48.996093v43.238282c0 5.523437 4.480469 10 10 10h117.671875c5.523437 0 10-4.476563 10-10v-16.558594c0-7.410156 6.03125-13.441406 13.445313-13.441406 6.335937 0 11.660156 4.40625 13.074218 10.316406l-21.839844 26.625c-6.527343 7.957031-7.84375 18.679688-3.445312 27.980469 4.402344 9.300781 13.527344 15.078125 23.816406 15.078125 11.027344 0 20.164063-8.21875 21.625-18.847656.386719 1.273437.859375 2.535156 1.445313 3.769531 4.398437 9.300781 13.527343 15.078125 23.816406 15.078125 11.027344 0 20.164063-8.21875 21.625-18.847656.382813 1.273437.859375 2.535156 1.445313 3.769531 4.398437 9.300781 13.523437 15.078125 23.816406 15.078125 12.039062 0 21.835937-9.796875 21.835937-21.835938v-44.722656c0-7.410156 6.027344-13.441406 13.441407-13.441406 7.414062 0 13.441406 6.03125 13.441406 13.441406v16.558594c0 5.523437 4.480468 10 10 10h106.78125c5.523437 0 10-4.476563 10-10v-158h30c5.523437 0 10-4.476563 10-10 0-5.519532-4.472656-10-9.996094-10zm-482 85.765625c0-16.542969 13.460938-30 30-30 16.542969 0 30 13.457031 30 30s-13.457031 30-30 30c-16.539062 0-30-13.457031-30-30zm184.558594 120.398437c0 1.011719-.824219 1.835938-1.835938 1.835938-3.625 0-5.21875-2.539063-5.738281-3.632813-.515625-1.09375-1.46875-3.9375.832031-6.738281l6.742188-8.226562zm24.679687-21.222656c-2.117187 2.582031-3.675781 5.453125-4.679687 8.472656v-31.890625c0-.027343 0-.054687 0-.082031 0-7.414062 6.03125-13.441406 13.441406-13.441406 6.339844 0 11.65625 4.414062 13.066406 10.328125zm22.207031 21.222656c0 1.011719-.824218 1.835938-1.835937 1.835938-3.625 0-5.21875-2.539063-5.738281-3.632813-.515625-1.09375-1.46875-3.9375.832031-6.738281l6.742187-8.226562zm24.679688-21.222656c-2.117188 2.582031-3.675781 5.453125-4.679688 8.472656v-31.972656c0-7.410156 6.03125-13.441406 13.445313-13.441406 6.335937 0 11.652344 4.414062 13.0625 10.328125zm22.207031 21.222656c0 1.011719-.824219 1.835938-1.835937 1.835938-3.625 0-5.21875-2.539063-5.738282-3.632813-.515624-1.09375-1.46875-3.9375.832032-6.738281l6.742187-8.226562zm0 0"/></svg>