<svg height="512pt" viewBox="0 -54 512 512" width="512pt" xmlns="http://www.w3.org/2000/svg"><path d="m46 251h168v116h-168zm0 0" fill="#d8d8e4"/><path d="m90.832031 367c0 14.914062-12.085937 27-27 27-14.910156 0-27-12.085938-27-27 0-14.910156 12.089844-27 27-27 14.914063 0 27 12.089844 27 27zm0 0" fill="#ffc66c"/><path d="m187.167969 367c0 14.914062-12.089844 27-27 27-14.914063 0-27-12.085938-27-27 0-14.910156 12.085937-27 27-27 14.910156 0 27 12.089844 27 27zm0 0" fill="#ffc66c"/><path d="m334.667969 252.335938h167.332031v114.664062h-167.332031zm0 0" fill="#d8d8e4"/><path d="m378.832031 367c0 14.914062-12.085937 27-27 27-14.910156 0-27-12.085938-27-27 0-14.910156 12.089844-27 27-27 14.914063 0 27 12.089844 27 27zm0 0" fill="#ffc66c"/><path d="m475.167969 367c0 14.914062-12.089844 27-27 27-14.914063 0-27-12.085938-27-27 0-14.910156 12.085937-27 27-27 14.910156 0 27 12.089844 27 27zm0 0" fill="#ffc66c"/><path d="m74.5 140h101.5v107h-101.5zm0 0" fill="#7d9bff"/><path d="m361.5 138h102.5v109h-102.5zm0 0" fill="#7d9bff"/><path d="m502 237h-28v-118c0-5.519531-4.476562-10-10-10h-128c-5.523438 0-10 4.480469-10 10v118h-28c-5.523438 0-10 4.480469-10 10v39.058594l-7.46875 7.503906-9.191406-9.234375c-1.875-1.886719-4.425782-2.945313-7.082032-2.945313-.003906 0-.003906 0-.007812 0-2.65625 0-5.203125 1.054688-7.078125 2.9375l-9.257813 9.277344-9.3125-9.292968c-1.875-1.871094-4.414062-2.921876-7.0625-2.921876-.011718 0-.019531 0-.03125 0-2.65625.007813-5.203124 1.070313-7.074218 2.960938l-.433594.4375v-37.78125c0-5.519531-4.476562-10-10-10h-28v-118c0-5.519531-4.476562-10-10-10h-128c-5.523438 0-10 4.480469-10 10v118h-28c-5.523438 0-10 4.480469-10 10v120c0 5.523438 4.476562 10 10 10h18.21875c4.371094 15.558594 18.675781 27 35.613281 27s31.242188-11.441406 35.617188-27h25.101562c4.375 15.558594 18.679688 27 35.617188 27s31.242187-11.441406 35.617187-27h18.214844c5.523438 0 10-4.476562 10-10v-53.800781l7.578125-7.652344 9.292969 9.269531c1.871094 1.871094 4.414062 2.921875 7.0625 2.921875h.011718c2.652344-.003906 5.195313-1.058593 7.066407-2.9375l9.230469-9.253906 9.199218 9.246094c1.878906 1.886719 4.429688 2.945312 7.089844 2.945312s5.210938-1.0625 7.085938-2.945312l.382812-.382813v52.589844c0 5.523438 4.476562 10 10 10h18.21875c4.371094 15.558594 18.675781 27 35.613281 27s31.242188-11.441406 35.617188-27h25.101562c4.375 15.558594 18.679688 27 35.617188 27s31.242187-11.441406 35.617187-27h18.214844c5.523438 0 10-4.476562 10-10v-120c0-5.519531-4.476562-10-10-10zm-336 0h-61.855469l61.855469-61.855469zm-55.988281-108-52.011719 52.011719v-52.011719zm-52.011719 80.296875 80.296875-80.296875h27.703125v17.859375l-90.144531 90.140625h-17.855469zm5.832031 174.703125c-9.371093 0-17-7.625-17-17 0-9.371094 7.628907-17 17-17 9.375 0 17 7.628906 17 17 0 9.375-7.625 17-17 17zm96.335938 0c-9.375 0-17-7.625-17-17 0-9.371094 7.625-17 17-17 9.371093 0 17 7.628906 17 17 0 9.375-7.628907 17-17 17zm43.832031-27h-8.21875c-4.371094-15.554688-18.675781-27-35.613281-27s-31.242188 11.445312-35.617188 27h-25.101562c-4.375-15.554688-18.679688-27-35.617188-27s-31.238281 11.445312-35.613281 27h-8.21875v-60h65.917969c5.523437 0 10-4.476562 10-10 0-5.519531-4.476563-10-10-10h-65.917969v-20h184zm250-120h-61.855469l61.855469-61.855469zm-55.988281-108-52.011719 52.011719v-52.011719zm-52.011719 80.296875 80.296875-80.296875h27.703125v17.859375l-90.144531 90.140625h-17.855469zm5.832031 174.703125c-9.371093 0-17-7.625-17-17 0-9.371094 7.628907-17 17-17 9.375 0 17 7.628906 17 17 0 9.375-7.625 17-17 17zm96.335938 0c-9.375 0-17-7.625-17-17 0-9.371094 7.625-17 17-17 9.371093 0 17 7.628906 17 17 0 9.375-7.628907 17-17 17zm43.832031-27h-8.21875c-4.375-15.554688-18.675781-27-35.613281-27s-31.242188 11.445312-35.617188 27h-25.101562c-4.375-15.554688-18.679688-27-35.617188-27s-31.242187 11.445312-35.617187 27h-8.214844v-60h66.25c5.523438 0 10-4.476562 10-10 0-5.519531-4.476562-10-10-10h-66.25v-20h184zm0 0"/><path d="m64 39.800781h98.40625l-2.726562 2.730469c-3.90625 3.902344-3.90625 10.234375 0 14.140625 1.953124 1.953125 4.511718 2.929687 7.070312 2.929687s5.117188-.976562 7.070312-2.929687l19.800782-19.800781c3.902344-3.90625 3.902344-10.238282 0-14.140625l-19.800782-19.800781c-3.90625-3.902344-10.234374-3.902344-14.140624 0-3.90625 3.90625-3.90625 10.238281 0 14.144531l2.726562 2.726562h-98.40625c-5.523438 0-10 4.476563-10 10 0 5.523438 4.476562 10 10 10zm0 0"/><path d="m338.179688 56.671875c1.953124 1.953125 4.511718 2.929687 7.070312 2.929687s5.117188-.980468 7.070312-2.929687c3.90625-3.90625 3.90625-10.238281 0-14.144531l-2.726562-2.726563h98.40625c5.523438 0 10-4.476562 10-10 0-5.523437-4.476562-10-10-10h-98.40625l2.726562-2.730469c3.90625-3.902343 3.90625-10.234374 0-14.140624-3.90625-3.90625-10.234374-3.90625-14.140624 0l-19.800782 19.800781c-3.902344 3.902343-3.902344 10.234375 0 14.140625zm0 0"/><path d="m123.671875 277c-2.640625 0-5.210937 1.070312-7.070313 2.933594-1.871093 1.859375-2.929687 4.4375-2.929687 7.066406 0 2.632812 1.058594 5.210938 2.929687 7.070312 1.847657 1.859376 4.429688 2.929688 7.070313 2.929688 2.628906 0 5.207031-1.066406 7.066406-2.929688 1.859375-1.859374 2.933594-4.4375 2.933594-7.070312 0-2.628906-1.070313-5.207031-2.933594-7.066406-1.859375-1.863282-4.4375-2.933594-7.066406-2.933594zm0 0"/><path d="m411.671875 277c-2.644531 0-5.210937 1.070312-7.070313 2.933594-1.871093 1.859375-2.929687 4.4375-2.929687 7.066406 0 2.632812 1.058594 5.210938 2.929687 7.070312 1.859376 1.859376 4.4375 2.929688 7.070313 2.929688 2.628906 0 5.199219-1.066406 7.066406-2.929688 1.859375-1.859374 2.933594-4.4375 2.933594-7.070312 0-2.628906-1.070313-5.207031-2.933594-7.066406-1.859375-1.863282-4.4375-2.933594-7.066406-2.933594zm0 0"/></svg>