<svg height="512pt" viewBox="0 -80 512.0006 512" width="512pt" xmlns="http://www.w3.org/2000/svg"><path d="m501.996094 332.972656v-116.34375l-167.171875-46.679687 56.421875 97.722656zm0 0" fill="#fe8f8d"/><path d="m64.394531 341.398438h328.273438l-164.136719-284.292969zm0 0" fill="#d8d8e4"/><path d="m122.851562 145.949219 213.394532 97.726562-56.421875-97.726562zm0 0" fill="#fff"/><path d="m103 331.398438c-2.628906 0-5.207031 1.070312-7.066406 2.929687-1.863282 1.863281-2.933594 4.441406-2.933594 7.070313 0 2.628906 1.070312 5.210937 2.933594 7.070312 1.859375 1.859375 4.4375 2.929688 7.066406 2.929688 2.632812 0 5.210938-1.070313 7.070312-2.929688 1.859376-1.859375 2.929688-4.441406 2.929688-7.070312 0-2.628907-1.066406-5.210938-2.929688-7.070313-1.859374-1.859375-4.4375-2.929687-7.070312-2.929687zm0 0"/><path d="m507.078125 332.785156-163.484375-96.390625-42.855469-74.226562 198.570313 55.453125c.898437.25 1.804687.371094 2.695312.371094 4.375 0 8.390625-2.894532 9.625-7.3125 1.484375-5.320313-1.621094-10.835938-6.941406-12.324219l-218.242188-60.941407-76.449218-132.414062c-1.785156-3.09375-5.089844-5-8.660156-5-3.570313 0-6.875 1.90625-8.660157 5l-73.851562 127.917969-104.492188-50.195313c-4.976562-2.390625-10.953125-.292968-13.34375 4.683594s-.292969 10.953125 4.683594 13.34375l103.121094 49.539062-107.449219 186.109376c-1.785156 3.09375-1.785156 6.90625 0 10s5.085938 5 8.660156 5h54c5.519532 0 10-4.476563 10-10 0-5.519532-4.480468-10-10-10h-36.679687l99.632812-172.570313 202.226563 92.609375 46.167968 79.960938h-235.683593c-5.523438 0-10 4.480468-10 10 0 5.523437 4.476562 10 10 10h253c3.574219 0 6.875-1.90625 8.660156-5 1.789063-3.09375 1.789063-6.90625 0-10l-37.414063-64.804688 133.003907 78.421875c1.597656.9375 3.34375 1.386719 5.070312 1.386719 3.421875 0 6.757813-1.761719 8.625-4.921875 2.804688-4.757813 1.21875-10.890625-3.535156-13.695313zm-195.160156-111.25-143.210938-65.585937h105.34375zm-110.582031-191.535156 61.167968 105.949219h-122.335937zm0 0"/></svg>