<svg height="512pt" viewBox="0 0 511 512" width="512pt" xmlns="http://www.w3.org/2000/svg"><path d="m134.191406 416.894531-54.3125 54.3125c64.71875 46.285157 155.265625 40.382813 213.382813-17.734375l114.492187-114.492187-39.246094-39.246094-117.160156 117.160156c-32.351562 32.351563-84.804687 32.351563-117.15625 0zm0 0" fill="#ff5d5d"/><path d="m114.191406 400.894531c1.410156 1.410157 2.871094 2.734375 4.355469 4.023438-3.042969-5.410157-5.441406-11.085938-7.175781-16.921875-26.035156-32.523438-23.992188-80.113282 6.152344-110.261719l110.492187-110.488281-37.246094-37.246094-117.15625 117.15625c-48.5625 48.5625-60.675781 119.769531-36.34375 179.628906 6.164063 9.441406 13.386719 18.394532 21.675781 26.6875.445313.445313.902344.875 1.351563 1.3125zm0 0" fill="#a7c5ff"/><path d="m234.683594 160.578125-53.003906 53.007813-58.578126-58.578126 53.003907-53.007812zm0 0" fill="#fff"/><path d="m410.421875 336.3125-53.003906 53.007812-58.578125-58.578124 53.003906-53.007813zm0 0" fill="#fff"/><path d="m320.425781 416.308594c-2.640625 0-5.207031 1.070312-7.070312 2.929687-1.867188 1.863281-2.929688 4.441407-2.929688 7.070313 0 2.632812 1.0625 5.210937 2.929688 7.070312 1.863281 1.859375 4.429687 2.929688 7.070312 2.929688 2.632813 0 5.210938-1.070313 7.070313-2.929688s2.929687-4.4375 2.929687-7.070312c0-2.628906-1.070312-5.207032-2.929687-7.070313-1.859375-1.859375-4.4375-2.929687-7.070313-2.929687zm0 0"/><path d="m358.910156 270.664062c-3.902344-3.902343-10.238281-3.902343-14.140625 0l-117.160156 117.15625c-28.398437 28.402344-74.613281 28.402344-103.011719 0-28.402344-28.398437-28.402344-74.609374 0-103.011718l117.15625-117.160156c3.902344-3.902344 3.902344-10.234376 0-14.140626l-58.578125-58.578124c-3.90625-3.90625-10.238281-3.90625-14.144531 0l-54.042969 54.042968c-.003906 0-.003906.003906-.003906.003906h-.003906l-63.105469 63.109376c-68.5 68.5-68.5 179.957031 0 248.457031 33.183594 33.183593 77.300781 51.457031 124.226562 51.457031 46.929688 0 91.046876-18.273438 124.230469-51.457031 3.90625-3.90625 3.90625-10.238281 0-14.144531-3.902343-3.902344-10.238281-3.902344-14.140625 0-29.40625 29.40625-68.503906 45.601562-110.089844 45.601562-38.230468 0-74.355468-13.699219-102.785156-38.757812l44.59375-44.59375c36.425782 29.347656 90.03125 27.125 123.84375-6.683594l56.039063-56.039063 44.433593 44.433594-3.875 3.878906c-3.90625 3.90625-3.90625 10.238281 0 14.144531 3.90625 3.902344 10.238282 3.902344 14.140626 0l64.996093-64.996093c3.90625-3.90625 3.90625-10.238281 0-14.144531zm-182.808594-154.523437 44.4375 44.4375-39.902343 39.90625-44.4375-44.4375zm-110.082031 110.089844 56.035157-56.039063 44.4375 44.433594-56.039063 56.039062c-33.808594 33.808594-36.03125 87.417969-6.683594 123.84375l-44.589843 44.585938c-53.757813-61.074219-51.488282-154.539062 6.839843-212.863281zm290.351563 149.988281-44.4375-44.4375 39.90625-39.902344 44.4375 44.4375zm0 0"/><path d="m260.457031 226.601562c-1.871093 1.859376-2.929687 4.429688-2.929687 7.070313 0 2.628906 1.058594 5.207031 2.929687 7.066406 1.859375 1.863281 4.429688 2.933594 7.070313 2.933594 2.628906 0 5.210937-1.070313 7.070312-2.933594 1.859375-1.859375 2.929688-4.4375 2.929688-7.066406 0-2.640625-1.070313-5.210937-2.929688-7.070313-1.859375-1.871093-4.441406-2.929687-7.070312-2.929687-2.640625 0-5.210938 1.058594-7.070313 2.929687zm0 0"/><path d="m301.636719 153.691406c-.695313 3.304688.324219 6.742188 2.714843 9.128906l26.945313 26.945313-37.023437 18.964844c-4.914063 2.515625-6.859376 8.542969-4.339844 13.457031 1.769531 3.457031 5.273437 5.445312 8.910156 5.445312 1.53125 0 3.089844-.355468 4.546875-1.101562l49.25-25.222656c2.84375-1.460938 4.820313-4.191406 5.320313-7.347656.496093-3.160157-.546876-6.363282-2.808594-8.625l-25.816406-25.816407 58.285156-22.628906c5.148437-2 7.699218-7.792969 5.699218-12.941406-1.996093-5.148438-7.789062-7.703125-12.9375-5.703125l-72.578124 28.183594c-3.152344 1.222656-5.472657 3.953124-6.167969 7.261718zm0 0"/><path d="m267.523438 127c35.015624 0 63.5-28.484375 63.5-63.5s-28.484376-63.5-63.5-63.5c-35.015626 0-63.5 28.484375-63.5 63.5s28.488281 63.5 63.5 63.5zm0-107c23.988281 0 43.5 19.515625 43.5 43.5s-19.511719 43.5-43.5 43.5c-23.984376 0-43.5-19.515625-43.5-43.5s19.515624-43.5 43.5-43.5zm0 0"/><path d="m271.59375 81.710938c1.953125 1.953124 4.511719 2.929687 7.070312 2.929687 2.558594 0 5.117188-.976563 7.070313-2.929687 3.90625-3.90625 3.90625-10.238282 0-14.144532l-22.277344-22.277344c-3.90625-3.902343-10.238281-3.902343-14.144531 0-3.902344 3.90625-3.902344 10.238282 0 14.144532zm0 0"/><path d="m448.910156 181.386719c-35.015625 0-63.5 28.484375-63.5 63.5 0 35.011719 28.484375 63.5 63.5 63.5s63.5-28.488281 63.5-63.5c0-35.015625-28.484375-63.5-63.5-63.5zm0 107c-23.984375 0-43.5-19.515625-43.5-43.5 0-23.988281 19.515625-43.5 43.5-43.5s43.5 19.511719 43.5 43.5c0 23.984375-19.515625 43.5-43.5 43.5zm0 0"/><path d="m469.988281 223.804688c-3.902343-3.902344-10.234375-3.902344-14.140625 0l-6.9375 6.9375-6.9375-6.9375c-3.90625-3.902344-10.238281-3.902344-14.144531 0-3.902344 3.90625-3.902344 10.238281 0 14.144531l6.9375 6.9375-6.9375 6.9375c-3.902344 3.902343-3.902344 10.234375 0 14.140625 1.953125 1.953125 4.511719 2.929687 7.070313 2.929687 2.5625 0 5.121093-.976562 7.074218-2.929687l6.933594-6.9375 6.9375 6.9375c1.953125 1.953125 4.511719 2.929687 7.070312 2.929687 2.5625 0 5.121094-.976562 7.074219-2.929687 3.902344-3.902344 3.902344-10.234375 0-14.140625l-6.9375-6.9375 6.9375-6.9375c3.90625-3.90625 3.90625-10.238281 0-14.144531zm0 0"/></svg>