<svg height="512pt" viewBox="-54 0 512 512" width="512pt" xmlns="http://www.w3.org/2000/svg"><path d="m345.667969 95v72l-32-31.75-32 31.75v-72h-190.667969c-7.027344 0-13.628906-1.816406-19.367188-5h-20.632812v377c0 15.0625 8.332031 28.179688 20.632812 35h322.367188v-407zm-84.601563 240.101562-91.90625-53.0625 29.292969-50.742187 91.910156 53.0625zm0 0" fill="#36d28f"/><path d="m394 10h-344c-22.089844 0-40 17.910156-40 40s17.910156 40 40 40h344zm0 0" fill="#fff"/><path d="m114 251.769531 229.027344 132.230469h-229.027344zm0 0" fill="#fff"/><path d="m288.640625 286.613281-28.566406 49.480469-61.179688-35.324219 28.566407-49.476562zm0 0" fill="#ffc66c"/><path d="m345.667969 94h-35v47.226562l3-2.976562 16.515625 16.386719 12.484375-12.386719 3 2.976562zm0 0" fill="#ff5d5d"/><path d="m394 0h-344c-27.570312 0-50 22.429688-50 50v412c0 27.570312 22.429688 50 50 50h344c5.523438 0 10-4.476562 10-10v-492c0-5.523438-4.476562-10-10-10zm-344 20h334v60h-334c-16.542969 0-30-13.457031-30-30s13.457031-30 30-30zm241.667969 80h44v45.992188l-14.957031-14.839844c-1.949219-1.9375-4.496094-2.902344-7.042969-2.902344s-5.09375.96875-7.042969 2.902344l-14.957031 14.839844zm-231.667969 392v-299c0-5.523438-4.476562-10-10-10s-10 4.476562-10 10v297.28125c-11.640625-4.128906-20-15.246094-20-28.28125v-372.027344c8.363281 6.292969 18.753906 10.027344 30 10.027344h221.667969v70c0 4.035156 2.425781 7.679688 6.152343 9.230469 3.726563 1.554687 8.023438.710937 10.890626-2.132813l24.957031-24.761718 24.957031 24.761718c1.910156 1.894532 4.457031 2.902344 7.042969 2.902344 1.296875 0 2.601562-.253906 3.84375-.769531 3.726562-1.554688 6.15625-5.195313 6.15625-9.230469v-70h28.332031v392zm0 0"/><path d="m50 143.101562c-2.628906 0-5.210938 1.058594-7.070312 2.917969-1.859376 1.871094-2.929688 4.441407-2.929688 7.082031 0 2.628907 1.070312 5.207032 2.929688 7.070313 1.859374 1.859375 4.441406 2.929687 7.070312 2.929687s5.210938-1.070312 7.070312-2.929687c1.859376-1.871094 2.929688-4.441406 2.929688-7.070313 0-2.632812-1.070312-5.210937-2.929688-7.082031-1.859374-1.859375-4.441406-2.917969-7.070312-2.917969zm0 0"/><path d="m348.027344 375.339844-74.300782-42.898438 24.296876-42.082031c1.324218-2.296875 1.6875-5.023437 1-7.585937s-2.363282-4.746094-4.660157-6.074219l-91.910156-53.0625c-4.78125-2.761719-10.898437-1.121094-13.65625 3.660156l-24.296875 42.082031-45.5-26.269531c-3.09375-1.785156-6.90625-1.785156-10 0s-5 5.089844-5 8.660156v132.230469c0 5.523438 4.476562 10 10 10h229.027344c4.527344 0 8.488281-3.039062 9.660156-7.410156s-.738281-8.988282-4.660156-11.25zm-146.914063-129.382813 74.589844 43.0625-19.296875 33.421875-74.585938-43.0625zm-77.113281 23.132813 149.960938 86.582031c-2.398438 5.859375-4.035157 12.035156-4.886719 18.328125h-145.074219zm165.296875 104.910156c.511719-2.792969 1.261719-5.523438 2.210937-8.199219l14.199219 8.199219zm0 0"/></svg>