<svg height="511pt" viewBox="0 -76 511.99992 511" width="511pt" xmlns="http://www.w3.org/2000/svg"><path d="m324.734375 244.753906-142.078125-82.03125 58.332031-101.027344 142.074219 82.03125zm0 0" fill="#898998"/><path d="m430.789062 348.882812-371.789062-214.65625v214.65625zm0 0" fill="#ffc66c"/><path d="m507 340.222656-169.382812-97.792968 20.367187-35.28125 82.257813 47.492187-14.601563 3.914063c-5.335937 1.429687-8.5 6.910156-7.074219 12.246093 1.199219 4.46875 5.238282 7.414063 9.65625 7.414063.855469 0 1.726563-.109375 2.59375-.34375l37.921875-10.160156c5.335938-1.433594 8.5-6.914063 7.070313-12.25l-10.160156-37.921876c-1.429688-5.335937-6.914063-8.5-12.25-7.070312-5.332032 1.429688-8.5 6.914062-7.070313 12.246094l3.914063 14.605468-82.257813-47.492187 23.734375-41.109375c2.761719-4.78125 1.125-10.898438-3.660156-13.660156l-177.308594-102.367188c-4.78125-2.757812-10.898438-1.121094-13.660156 3.660156l-22.304688 38.636719-88.183594-50.914062 14.605469-3.914063c5.332031-1.429687 8.5-6.910156 7.070313-12.246094-1.429688-5.335937-6.914063-8.5-12.246094-7.070312l-37.925781 10.160156c-2.5625.6875-4.746094 2.363282-6.070313 4.660156-1.328125 2.296876-1.6875 5.027344-1 7.585938l10.164063 37.925781c1.195312 4.46875 5.234375 7.414063 9.652343 7.414063.855469 0 1.726563-.109375 2.59375-.34375 5.335938-1.429688 8.5-6.914063 7.070313-12.246094l-3.910156-14.605469 88.179687 50.910157-21.792968 37.753906-127.992188-73.894532c-3.09375-1.785156-6.90625-1.785156-10 0-3.09375 1.785157-5 5.089844-5 8.660157v284.058593c0 5.519532 4.476562 10 10 10h249.5c5.523438 0 10-4.480468 10-10 0-5.523437-4.476562-10-10-10h-239.5v-256.738281l121.644531 70.234375h.003907l41.714843 24.085938-48.707031 84.367187-3.914062-14.601562c-1.429688-5.335938-6.914063-8.503907-12.25-7.070313-5.332032 1.429688-8.5 6.910156-7.070313 12.246094l10.164063 37.921875c1.195312 4.46875 5.234374 7.414063 9.652343 7.414063.855469 0 1.726563-.109376 2.59375-.34375l37.921875-10.160157c5.335938-1.429687 8.5-6.910156 7.070313-12.246093-1.425781-5.335938-6.910157-8.503907-12.246094-7.070313l-14.601563 3.910156 48.707032-84.367187 118.273437 68.285156s.003907 0 .007813.003906l145.714844 84.128906h-123.429688c-5.523438 0-10 4.476563-10 10 0 5.519532 4.476562 10 10 10h160.75c4.523438 0 8.488281-3.039062 9.65625-7.414062 1.171875-4.371094-.738281-8.984375-4.65625-11.246094zm-297.589844-285.210937 159.988282 92.367187-49.101563 85.046875-159.988281-92.367187zm0 0"/><path d="m301 338.882812c-2.628906 0-5.210938 1.066407-7.070312 2.929688-1.859376 1.859375-2.929688 4.4375-2.929688 7.070312 0 2.628907 1.070312 5.207032 2.929688 7.066407 1.859374 1.863281 4.441406 2.933593 7.070312 2.933593s5.210938-1.070312 7.070312-2.933593c1.859376-1.859375 2.929688-4.4375 2.929688-7.066407 0-2.632812-1.070312-5.210937-2.929688-7.070312-1.859374-1.859375-4.441406-2.929688-7.070312-2.929688zm0 0"/></svg>