<svg height="512pt" viewBox="0 0 512 512" width="512pt" xmlns="http://www.w3.org/2000/svg"><path d="m145.136719 230.5c0 11.742188 4.175781 22.507812 11.117187 30.898438 3.957032 1.042968 8.105469 1.601562 12.382813 1.601562 26.789062 0 48.5-21.714844 48.5-48.5 0-11.742188-4.171875-22.507812-11.117188-30.898438-3.953125-1.042968-8.101562-1.601562-12.382812-1.601562-26.785157 0-48.5 21.714844-48.5 48.5zm0 0" fill="#36d28f"/><path d="m323.117188 229.5c0 11.886719 4.28125 22.769531 11.378906 31.203125 3.574218.839844 7.292968 1.296875 11.121094 1.296875 26.785156 0 48.5-21.714844 48.5-48.5 0-11.886719-4.285157-22.769531-11.382813-31.203125-3.574219-.839844-7.292969-1.296875-11.117187-1.296875-26.789063 0-48.5 21.714844-48.5 48.5zm0 0" fill="#ff5d5d"/><path d="m234.5 77.5c0 10.34375 3.25 19.925781 8.769531 27.800781 4.058594 1.101563 8.324219 1.699219 12.730469 1.699219 26.785156 0 48.5-21.714844 48.5-48.5 0-10.34375-3.25-19.925781-8.769531-27.800781-4.058594-1.101563-8.324219-1.699219-12.730469-1.699219-26.785156 0-48.5 21.714844-48.5 48.5zm0 0" fill="#ffc66c"/><path d="m299 262c-26.511719 0-48 21.488281-48 48s21.488281 48 48 48h203v-96zm0 0" fill="#edf2fa"/><path d="m97.5 262c-26.511719 0-48 21.488281-48 48s21.488281 48 48 48h135.3125c-16.957031-7.40625-28.8125-24.3125-28.8125-44 0-26.511719 21.488281-48 48-48h246v92h4v-96zm0 0" fill="#ff5d5d"/><path d="m502 358h-420c-39.765625 0-72 32.234375-72 72s32.234375 72 72 72h420zm0 0" fill="#fff"/><path d="m445.085938 458-40-39.6875-40 39.6875v-100h80zm0 0" fill="#ff5d5d"/><path d="m256.128906 492c-2.640625 0-5.207031 1.070312-7.070312 2.929688-1.859375 1.859374-2.929688 4.441406-2.929688 7.070312s1.070313 5.210938 2.929688 7.070312c1.863281 1.859376 4.429687 2.929688 7.070312 2.929688 2.632813 0 5.210938-1.070312 7.070313-2.929688 1.859375-1.859374 2.929687-4.441406 2.929687-7.070312s-1.070312-5.210938-2.929687-7.070312c-1.871094-1.859376-4.4375-2.929688-7.070313-2.929688zm0 0"/><path d="m502 252h-112.394531c9.023437-10.296875 14.511719-23.765625 14.511719-38.5 0-32.257812-26.246094-58.5-58.5-58.5-7.082032 0-13.875 1.265625-20.160157 3.582031l-31.910156-55.265625c12.796875-10.742187 20.953125-26.839844 20.953125-44.816406 0-32.257812-26.242188-58.5-58.5-58.5s-58.5 26.242188-58.5 58.5c0 18.054688 8.226562 34.222656 21.121094 44.960938l-31.824219 55.121093c-6.285156-2.316406-13.078125-3.582031-20.160156-3.582031-32.253907 0-58.5 26.242188-58.5 58.5 0 14.734375 5.488281 28.203125 14.511719 38.5h-64.648438c-31.980469 0-58 26.019531-58 58 0 23.6875 14.285156 44.09375 34.683594 53.089844-20.960938 14.871094-34.683594 39.308594-34.683594 66.910156 0 45.214844 36.785156 82 82 82h126c5.523438 0 10-4.476562 10-10s-4.476562-10-10-10h-126c-34.1875 0-62-27.8125-62-62s27.8125-62 62-62h273.085938v90c0 4.035156 2.429687 7.679688 6.15625 9.230469 3.726562 1.554687 8.019531.710937 10.886718-2.132813l32.957032-32.699218 32.957031 32.699218c1.910156 1.894532 4.457031 2.902344 7.046875 2.902344 1.292968 0 2.597656-.253906 3.839844-.769531 3.730468-1.554688 6.15625-5.195313 6.15625-9.230469v-90h36.914062v124h-195.875c-5.523438 0-10 4.476562-10 10 0 5.519531 4.476562 10 10 10h205.875c5.523438 0 10-4.480469 10-10v-240c0-5.523438-4.476562-10-10-10zm-117.882812-38.5c0 21.230469-17.273438 38.5-38.5 38.5-21.230469 0-38.5-17.269531-38.5-38.5s17.269531-38.5 38.5-38.5c21.226562 0 38.5 17.269531 38.5 38.5zm-173.488282 38.5c6.933594-7.914062 11.765625-17.703125 13.636719-28.5h63.722656c1.871094 10.796875 6.703125 20.585938 13.640625 28.5zm45.371094-232c21.230469 0 38.5 17.269531 38.5 38.5s-17.269531 38.5-38.5 38.5c-6.210938 0-12.078125-1.488281-17.277344-4.109375-.519531-.472656-1.089844-.898437-1.722656-1.261719-.636719-.367187-1.296875-.652344-1.96875-.863281-10.542969-6.878906-17.53125-18.769531-17.53125-32.265625 0-21.230469 17.269531-38.5 38.5-38.5zm-20.054688 93.457031c6.257813 2.289063 13.011719 3.542969 20.054688 3.542969 7.121094 0 13.945312-1.28125 20.265625-3.621094l31.886719 55.234375c-10.414063 8.707031-17.753906 20.960938-20.164063 34.886719h-63.722656c-2.410156-13.925781-9.75-26.183594-20.164063-34.886719zm-107.808593 100.042969c0-21.230469 17.273437-38.5 38.5-38.5 21.230469 0 38.5 17.269531 38.5 38.5s-17.269531 38.5-38.5 38.5c-21.226563 0-38.5-17.269531-38.5-38.5zm-70.136719 134.5c-20.953125 0-38-17.046875-38-38s17.046875-38 38-38h154.238281c-8.855469 10.1875-14.238281 23.472656-14.238281 38s5.382812 27.8125 14.238281 38zm377.085938 85.992188-22.957032-22.777344c-1.949218-1.9375-4.496094-2.902344-7.042968-2.902344-2.546876 0-5.09375.96875-7.042969 2.902344l-22.957031 22.777344v-65.992188h60zm10-85.992188h-189.085938c-20.953125 0-38-17.046875-38-38s17.046875-38 38-38h236v28h-86.914062c-5.523438 0-10 4.476562-10 10s4.476562 10 10 10h86.914062v28zm0 0"/><path d="m143.667969 300h-54.667969c-5.523438 0-10 4.476562-10 10s4.476562 10 10 10h54.667969c5.523437 0 10-4.476562 10-10s-4.480469-10-10-10zm0 0"/><path d="m89 416h86c5.523438 0 10-4.476562 10-10s-4.476562-10-10-10h-86c-5.523438 0-10 4.476562-10 10s4.476562 10 10 10zm0 0"/><path d="m279.65625 416c5.523438 0 10-4.476562 10-10s-4.476562-10-10-10h-47.65625c-5.523438 0-10 4.476562-10 10s4.476562 10 10 10zm0 0"/><path d="m289.65625 454c0-5.523438-4.476562-10-10-10h-190.65625c-5.523438 0-10 4.476562-10 10s4.476562 10 10 10h190.65625c5.523438 0 10-4.476562 10-10zm0 0"/><path d="m363.089844 300c-2.640625 0-5.21875 1.070312-7.078125 2.929688-1.863281 1.859374-2.921875 4.441406-2.921875 7.070312s1.058594 5.210938 2.921875 7.070312c1.859375 1.859376 4.4375 2.929688 7.078125 2.929688 2.628906 0 5.210937-1.070312 7.070312-2.929688 1.859375-1.859374 2.929688-4.441406 2.929688-7.070312s-1.070313-5.210938-2.929688-7.070312c-1.859375-1.859376-4.441406-2.929688-7.070312-2.929688zm0 0"/></svg>