<svg height="512pt" viewBox="0 -76 512 512" width="512pt" xmlns="http://www.w3.org/2000/svg"><path d="m50 203.753906h452v146.667969h-452zm0 0" fill="#ffc66c"/><path d="m184 30c-53.019531 0-96 42.980469-96 96 0 24.007812 8.8125 45.953125 23.375 62.785156 14.261719 8.394532 30.878906 13.214844 48.625 13.214844 53.019531 0 96-42.980469 96-96 0-24.003906-8.8125-45.953125-23.375-62.785156-14.261719-8.394532-30.878906-13.214844-48.625-13.214844zm0 0" fill="#7d9bff"/><path d="m502 192.421875h-280.683594c23.316406-16.589844 39.652344-42.367187 43.699219-72h159.34375l-10.691406 10.6875c-3.90625 3.90625-3.90625 10.238281 0 14.144531 1.953125 1.949219 4.511719 2.929688 7.070312 2.929688 2.558594 0 5.121094-.980469 7.070313-2.929688l27.761718-27.761718c3.90625-3.90625 3.90625-10.238282 0-14.144532l-27.761718-27.761718c-3.902344-3.902344-10.234375-3.902344-14.140625 0-3.90625 3.90625-3.90625 10.238281 0 14.144531l10.691406 10.6875h-158.507813c-2.910156-55.863281-49.273437-100.417969-105.851562-100.417969-58.449219 0-106 47.550781-106 106 0 35.617188 17.660156 67.191406 44.683594 86.421875h-88.683594c-5.523438 0-10 4.476563-10 10v148c0 5.519531 4.476562 10 10 10h492c5.523438 0 10-4.480469 10-10v-148c0-5.523437-4.476562-10-10-10zm-428-86.421875c0-47.421875 38.578125-86 86-86 45.542969 0 82.910156 35.59375 85.800781 80.421875h-16.136719c-5.519531 0-10 4.476563-10 10 0 5.519531 4.480469 10 10 10h15.101563c-6.878906 40.574219-42.261719 71.578125-84.765625 71.578125-47.421875 0-86-38.578125-86-86zm357.066406 234.421875h-53.214844l114.148438-114.152344v53.210938l-60.890625 60.890625c-.015625.015625-.027344.03125-.042969.050781zm-326.121094 0h-53.261718l128-128h53.257812l-127.972656 127.96875c-.007812.007813-.015625.019531-.023438.03125zm156.28125-128h53.253907l-126.925781 126.925781c-.339844.339844-.636719.703125-.917969 1.074219h-53.410157zm81.542969 0h53.253907l-67.90625 67.90625c-3.90625 3.902344-3.90625 10.234375 0 14.140625 1.953124 1.953125 4.511718 2.929688 7.070312 2.929688s5.121094-.976563 7.070312-2.929688l82.050782-82.046875h53.257812l-127.953125 127.949219c-.015625.015625-.027343.03125-.042969.050781h-134.800781zm-272.914062 0-49.855469 49.855469v-49.855469zm-49.855469 77.984375c.371094-.277344.734375-.578125 1.070312-.914062l77.070313-77.070313h53.257813l-128 128h-3.398438zm439.347656 50.015625 32.652344-32.65625v32.65625zm0 0"/><path d="m309.691406 302.898438c-2.632812 0-5.210937 1.070312-7.070312 2.929687s-2.929688 4.441406-2.929688 7.070313c0 2.628906 1.070313 5.210937 2.929688 7.070312s4.4375 2.929688 7.070312 2.929688c2.628906 0 5.207032-1.070313 7.070313-2.929688 1.859375-1.859375 2.929687-4.441406 2.929687-7.070312 0-2.628907-1.070312-5.210938-2.929687-7.070313-1.863281-1.859375-4.441407-2.929687-7.070313-2.929687zm0 0"/><path d="m190.171875 120.421875c2.628906 0 5.207031-1.070313 7.066406-2.933594 1.863281-1.859375 2.933594-4.4375 2.933594-7.066406 0-2.632813-1.070313-5.210937-2.933594-7.070313-1.859375-1.859374-4.4375-2.929687-7.066406-2.929687-2.640625 0-5.210937 1.066406-7.070313 2.929687-1.871093 1.859376-2.929687 4.4375-2.929687 7.070313 0 2.628906 1.058594 5.207031 2.929687 7.066406 1.859376 1.863281 4.429688 2.933594 7.070313 2.933594zm0 0"/><path d="m112 116c5.523438 0 10-4.476562 10-10 0-20.953125 17.046875-38 38-38 5.523438 0 10-4.476562 10-10s-4.476562-10-10-10c-31.980469 0-58 26.019531-58 58 0 5.523438 4.476562 10 10 10zm0 0"/></svg>