<svg height="512pt" viewBox="-27 0 512 512" width="512pt" xmlns="http://www.w3.org/2000/svg"><path d="m373.84375 260.988281c2.054688 8.671875 3.140625 17.714844 3.140625 27.011719 0 64.609375-52.375 116.984375-116.984375 116.984375-11.84375 0-23.273438-1.765625-34.046875-5.039063-63.199219-1.617187-113.9375-53.355468-113.9375-116.945312 0-7.527344.726563-14.882812 2.082031-22.011719h-73.097656v68.386719h6.132812c.425782 1.679688.882813 3.34375 1.351563 5h29.644531c4.476563 17.597656 11.441406 34.199219 20.492188 49.417969l-26.273438 26.269531 47.589844 47.589844 13.273438-13.273438c7.65625 4.554688 15.664062 8.578125 23.96875 12.023438l7.027343-7.023438c15.21875 9.050782 31.816407 16.015625 49.417969 20.492188v32.128906h61.753906v-37.128906c17.597656-4.476563 34.199219-11.441406 49.414063-20.492188l13.972656 13.972656c5.84375-2.707031 10.730469 9.914063 16.230469 6.640626l9.070312-7.339844 52.585938-52.589844-26.273438-26.269531c9.050782-15.21875 16.019532-31.816407 20.492188-49.417969h37.132812v-68.386719zm0 0" fill="#ff5d5d"/><path d="m330.703125 75.1875-25.976563 37.886719c-11.789062 17.195312-9.648437 40.351562 5.09375 55.09375.5625.5625 1.144532 1.105469 1.730469 1.636719 11.699219.503906 23.5625-3.703126 32.496094-12.636719 14.742187-14.742188 16.882813-37.898438 5.09375-55.09375zm0 0" fill="#7d9bff"/><path d="m284.820312 155.167969c-14.742187-14.742188-16.882812-37.898438-5.089843-55.09375l5.515625-8.046875-34.257813-49.964844-70.175781 102.34375c-26.808594 39.101562-21.941406 91.753906 11.582031 125.277344 3.445313 3.445312 7.089844 6.570312 10.886719 9.402344 32.902344 8.871093 69.503906.421874 95.328125-25.402344 23.414063-23.414063 32.828125-56.164063 27.253906-87.109375-14.238281 3.523437-29.914062-.28125-41.042969-11.40625zm0 0" fill="#a7c5ff"/><path d="m357.386719 96.417969-35.703125-52.074219c-1.867188-2.71875-4.953125-4.34375-8.25-4.34375s-6.382813 1.625-8.246094 4.34375l-20.257812 29.542969-47.679688-69.542969c-1.867188-2.71875-4.953125-4.34375-8.25-4.34375s-6.382812 1.625-8.246094 4.34375l-81.1875 118.410156c-29.519531 43.050782-24.15625 101.089844 12.757813 138 21.136719 21.140625 48.90625 31.710938 76.675781 31.710938s55.539062-10.570313 76.679688-31.710938c22.917968-22.914062 34.238281-54.257812 31.332031-86.417968 5.09375-2.507813 9.875-5.863282 14.105469-10.097657 18.140624-18.140625 20.777343-46.664062 6.269531-67.820312zm-65.847657 150.195312c-34.484374 34.480469-90.59375 34.484375-125.074218 0-30.105469-30.105469-34.480469-77.4375-10.40625-112.550781l72.941406-106.378906 43.804688 63.882812-3.324219 4.851563c-14.507813 21.15625-11.871094 49.679687 6.269531 67.820312 10.390625 10.386719 24.035156 15.582031 37.683594 15.582031 1.300781 0 2.597656-.0625 3.898437-.15625 1.269531 24.984376-7.945312 49.101563-25.792969 66.949219zm45.4375-96.515625c-12.980468 12.980469-34.105468 12.980469-47.085937 0-11.332031-11.332031-12.976563-29.152344-3.914063-42.371094l27.457032-40.046874 27.457031 40.046874c9.066406 13.21875 7.417969 31.039063-3.914063 42.371094zm0 0"/><path d="m275.378906 512h-92.753906c-5.523438 0-10-4.476562-10-10v-29.515625c-13.070312-3.886719-25.710938-9.128906-37.730469-15.648437l-20.886719 20.886718c-1.875 1.875-4.417968 2.925782-7.070312 2.925782s-5.195312-1.050782-7.070312-2.925782l-65.585938-65.589844c-1.875-1.875-2.929688-4.417968-2.929688-7.070312s1.054688-5.195312 2.929688-7.070312l20.886719-20.886719c-6.523438-12.019531-11.765625-24.65625-15.652344-37.730469h-29.515625c-5.523438 0-10-4.476562-10-10v-73.386719c0-5.519531 4.476562-10 10-10h105.15625c3.058594 0 5.945312 1.398438 7.84375 3.796875 1.894531 2.398438 2.589844 5.53125 1.886719 8.507813-1.90625 8.046875-2.871094 16.359375-2.871094 24.707031 0 44.003906 27.59375 84.15625 68.664063 99.921875 5.15625 1.976563 7.734374 7.761719 5.753906 12.917969-1.980469 5.15625-7.761719 7.730468-12.917969 5.75-23.722656-9.101563-43.992187-24.960938-58.617187-45.855469-14.96875-21.390625-22.882813-46.539063-22.882813-72.734375 0-5.699219.382813-11.386719 1.136719-17.011719h-83.152344v53.390625h27.132812c4.570313 0 8.5625 3.101563 9.6875 7.535156 4.175782 16.410157 10.699219 32.144532 19.398438 46.765626 2.335938 3.933593 1.710938 8.949218-1.523438 12.183593l-19.203124 19.199219 51.445312 51.445312 19.203125-19.203124c3.234375-3.230469 8.25-3.859376 12.183594-1.523438 14.621093 8.699219 30.355469 15.226562 46.765625 19.398438 4.433594 1.125 7.535156 5.117187 7.535156 9.6875v27.132812h72.753906v-27.132812c0-4.570313 3.105469-8.5625 7.535156-9.6875 16.414063-4.175782 32.148438-10.699219 46.769532-19.398438 3.933594-2.335938 8.949218-1.710938 12.183594 1.523438l19.203124 19.203124 51.441407-51.445312-19.199219-19.199219c-3.234375-3.234375-3.863281-8.253906-1.523438-12.183593 8.695313-14.621094 15.222657-30.355469 19.394532-46.769532 1.125-4.429687 5.117187-7.535156 9.691406-7.535156h27.132812v-53.386719h-83.15625c.753907 5.625 1.136719 11.3125 1.136719 17.011719 0 27.660156-8.742187 53.957031-25.277343 76.039062-15.980469 21.347657-38.742188 37.425782-64.09375 45.277344-5.273438 1.636719-10.875-1.316406-12.507813-6.59375-1.632813-5.273437 1.316406-10.875 6.59375-12.511718 45.027344-13.945313 75.28125-55.023438 75.28125-102.210938 0-8.347656-.964844-16.660156-2.867187-24.707031-.707032-2.976563-.011719-6.109375 1.886718-8.507813 1.894532-2.394531 4.785156-3.796875 7.84375-3.796875h105.15625c5.523438 0 10 4.480469 10 10v73.386719c0 5.523438-4.476562 10-10 10h-29.519531c-3.882813 13.070312-9.125 25.710938-15.648437 37.730469l20.886718 20.886719c3.90625 3.90625 3.90625 10.238281 0 14.144531l-65.585937 65.585937c-1.875 1.875-4.417969 2.929688-7.070313 2.929688s-5.195312-1.054688-7.070312-2.929688l-20.886719-20.886718c-12.019531 6.519531-24.660156 11.765624-37.730469 15.648437v29.515625c0 5.523438-4.476562 10-10 10zm0 0"/><path d="m229 409.984375c-5.519531 0-9.996094-4.480469-9.996094-10 0-5.523437 4.476563-10 9.996094-10h.441406.0625c5.492188 0 9.964844 4.4375 9.996094 9.9375.03125 5.523437-4.417969 10.027344-9.9375 10.058594zm0 0"/><path d="m229 252.488281c-5.519531 0-10.019531-4.476562-10.019531-10 0-5.519531 4.457031-9.996093 9.980469-9.996093h.039062c5.523438 0 10 4.476562 10 9.996093 0 5.523438-4.476562 10-10 10zm0 0"/><path d="m191.367188 238.796875c-2.277344 0-4.5625-.773437-6.441407-2.355469-1.492187-1.257812-2.945312-2.59375-4.320312-3.972656-23.296875-23.292969-26.683594-59.921875-8.050781-87.097656 3.121093-4.554688 9.347656-5.714844 13.902343-2.589844 4.554688 3.121094 5.714844 9.347656 2.589844 13.898438-13.1875 19.234374-10.789063 45.160156 5.699219 61.648437.980468.980469 2.011718 1.929687 3.070312 2.820313 4.222656 3.558593 4.761719 9.867187 1.203125 14.089843-1.980469 2.347657-4.804687 3.558594-7.652343 3.558594zm0 0"/></svg>