<svg height="512pt" viewBox="-152 0 512 512" width="512pt" xmlns="http://www.w3.org/2000/svg"><path d="m176.910156 348.148438v-265.390626c0-26.230468-13.957031-49.261718-34.832031-62.0625-3.246094-.445312-6.558594-.695312-9.925781-.695312-40.117188 0-72.753906 32.636719-72.753906 72.757812v265.390626c-13.597657 16.609374-21.402344 37.664062-21.402344 59.695312 0 35.550781 19.804687 66.554688 48.957031 82.578125 5.578125 1.03125 11.328125 1.578125 17.199219 1.578125 51.917968 0 94.15625-42.238281 94.15625-94.15625 0-22.027344-7.800782-43.085938-21.398438-59.695312zm-71.757812 101.496093c-23.636719 0-42.796875-19.164062-42.796875-42.796875 0-15.839844 8.609375-29.660156 21.398437-37.058594v-170.339843h42.796875v170.335937c12.789063 7.402344 21.398438 21.222656 21.398438 37.058594 0 23.636719-19.160157 42.800781-42.796875 42.800781zm0 0" fill="#a7c5ff"/><path d="m104.152344 61.355469c11.820312 0 21.398437 9.582031 21.398437 21.402343v117.691407h-42.796875v-117.695313c0-11.816406 9.582032-21.398437 21.398438-21.398437zm0 0" fill="#fff"/><path d="m146.949219 407.847656c0-15.839844-8.609375-29.660156-21.398438-37.058594v-160.339843h-18.796875v170.335937c-12.789062 7.402344-21.398437 21.222656-21.398437 37.058594 0 13.078125 5.871093 24.78125 15.117187 32.632812 1.214844.101563 2.4375.167969 3.679688.167969 23.636718 0 42.796875-19.164062 42.796875-42.796875zm0 0" fill="#ff5d5d"/><path d="m104.152344 51.355469c-17.3125 0-31.398438 14.085937-31.398438 31.398437v282.65625c-13.328125 9.890625-21.398437 25.660156-21.398437 42.433594 0 29.113281 23.683593 52.800781 52.796875 52.800781 29.113281 0 52.800781-23.6875 52.800781-52.800781 0-16.773438-8.070313-32.542969-21.398437-42.433594v-282.652344c-.003907-17.316406-14.089844-31.402343-31.402344-31.402343zm0 20c6.285156 0 11.398437 5.113281 11.398437 11.398437v107.691406h-22.796875v-107.6875c0-6.289062 5.113282-11.402343 11.398438-11.402343zm32.796875 336.492187c0 18.082032-14.710938 32.796875-32.796875 32.796875-18.085938 0-32.796875-14.714843-32.796875-32.796875 0-11.664062 6.285156-22.546875 16.40625-28.402344 3.089843-1.789062 4.992187-5.085937 4.992187-8.65625v-160.339843h22.796875v160.339843c0 3.570313 1.902344 6.867188 4.992188 8.65625 10.121093 5.855469 16.40625 16.738282 16.40625 28.402344zm0 0"/><path d="m186.910156 344.679688v-261.921876c0-45.632812-37.125-82.757812-82.757812-82.757812-45.632813 0-82.753906 37.125-82.753906 82.757812v87.097657c0 5.523437 4.476562 10 10 10 5.519531 0 10-4.476563 10-10v-87.097657c0-34.605468 28.152343-62.757812 62.753906-62.757812 34.140625 0 61.980468 27.40625 62.722656 61.371094h-8.15625c-5.519531 0-10 4.476562-10 10 0 5.523437 4.480469 10 10 10h8.191406v44.195312h-8.191406c-5.519531 0-10 4.480469-10 10 0 5.523438 4.480469 10 10 10h8.191406v44.195313h-8.191406c-5.519531 0-10 4.480469-10 10 0 5.523437 4.480469 10 10 10h8.191406v44.199219h-8.191406c-5.519531 0-10 4.476562-10 10 0 5.519531 4.480469 10 10 10h8.191406v44.195312h-8.191406c-5.519531 0-10 4.476562-10 10 0 5.519531 4.480469 10 10 10h13.273438c10.542968 14.421875 16.316406 31.886719 16.316406 49.6875 0 46.40625-37.753906 84.15625-84.15625 84.15625s-84.152344-37.75-84.152344-84.152344c0-19.339844 6.796875-38.289062 19.136719-53.363281 1.460937-1.785156 2.261719-4.023437 2.261719-6.332031v-97.816406c0-5.523438-4.476563-10-10-10-5.523438 0-10 4.476562-10 10v94.34375c-13.824219 18.148437-21.398438 40.433593-21.398438 63.167968 0 57.429688 46.722656 104.152344 104.152344 104.152344 57.433594 0 104.15625-46.722656 104.15625-104.152344 0-22.734375-7.578125-45.023437-21.398438-63.167968zm0 0"/><path d="m31.394531 221.671875c2.628907 0 5.207031-1.070313 7.066407-2.933594 1.871093-1.867187 2.933593-4.4375 2.933593-7.066406 0-2.632813-1.0625-5.210937-2.933593-7.070313-1.859376-1.871093-4.4375-2.929687-7.066407-2.929687-2.632812 0-5.210937 1.058594-7.070312 2.929687-1.859375 1.859376-2.929688 4.4375-2.929688 7.070313 0 2.628906 1.066407 5.207031 2.929688 7.066406 1.867187 1.863281 4.4375 2.933594 7.070312 2.933594zm0 0"/></svg>