<svg height="512pt" viewBox="0 0 512 512" width="512pt" xmlns="http://www.w3.org/2000/svg"><path d="m69 10h433v53h-433zm0 0" fill="#d8d8e4"/><path d="m363.164062 400h74v102h-74zm0 0" fill="#7d9bff"/><path d="m256.128906 20c2.632813 0 5.210938-1.070312 7.070313-2.929688 1.859375-1.859374 2.929687-4.441406 2.929687-7.070312s-1.070312-5.210938-2.929687-7.070312c-1.859375-1.859376-4.4375-2.929688-7.070313-2.929688-2.640625 0-5.21875 1.070312-7.070312 2.929688-1.867188 1.859374-2.929688 4.441406-2.929688 7.070312s1.0625 5.210938 2.929688 7.070312c1.863281 1.859376 4.429687 2.929688 7.070312 2.929688zm0 0"/><path d="m502 0h-203.667969c-5.519531 0-10 4.476562-10 10s4.480469 10 10 10h193.667969v34h-96.335938v-6c0-5.523438-4.476562-10-10-10-5.519531 0-10 4.476562-10 10v6h-237.664062v-6c0-5.523438-4.476562-10-10-10s-10 4.476562-10 10v6h-98v-34h194.558594c5.523437 0 10-4.476562 10-10s-4.476563-10-10-10h-204.558594c-5.523438 0-10 4.476562-10 10v54c0 5.523438 4.476562 10 10 10h108v18.660156c0 2.871094 1.234375 5.605469 3.394531 7.503906l5.105469 4.496094h-24.5c-4.511719 0-8.464844 3.019532-9.648438 7.371094-1.1875 4.351562.691407 8.960938 4.578126 11.246094l19.347656 11.382812h-14.277344c-4.511719 0-8.464844 3.019532-9.648438 7.371094-1.1875 4.351562.691407 8.960938 4.578126 11.246094l19.347656 11.382812h-14.277344c-4.511719 0-8.464844 3.019532-9.648438 7.371094-1.1875 4.351562.691407 8.960938 4.578126 11.246094l19.347656 11.382812h-14.277344c-4.511719 0-8.464844 3.019532-9.648438 7.371094-1.1875 4.351562.691407 8.960938 4.578126 11.246094l19.347656 11.382812h-14.277344c-4.3125 0-8.136719 2.761719-9.492188 6.855469-1.355468 4.089844.0625 8.59375 3.523438 11.167969l21.96875 16.339844v27.976562c0 5.523438 4.476562 10 10 10h9.5c3.03125 0 5.5 2.46875 5.5 5.5s-2.46875 5.5-5.5 5.5h-10c-5.523438 0-10 4.476562-10 10s4.476562 10 10 10h10c14.0625 0 25.5-11.4375 25.5-25.5 0-13.894531-11.171875-25.226562-25-25.496094v-23.003906c0-3.160156-1.496094-6.136719-4.03125-8.023438l-1.769531-1.316406h20.800781c4.511719 0 8.464844-3.019531 9.648438-7.375 1.1875-4.351562-.691407-8.957031-4.578126-11.246094l-19.347656-11.378906h14.277344c4.511719 0 8.464844-3.019531 9.648438-7.375 1.1875-4.351562-.691407-8.957031-4.578126-11.246094l-19.347656-11.378906h14.277344c4.511719 0 8.464844-3.019531 9.648438-7.375 1.1875-4.351562-.691407-8.957031-4.578126-11.246094l-19.347656-11.378906h14.277344c4.511719 0 8.464844-3.019531 9.648438-7.375 1.1875-4.351562-.691407-8.957031-4.578126-11.246094l-19.347656-11.378906h14.277344c4.160156 0 7.886719-2.574218 9.355469-6.46875 1.46875-3.894531.375-8.289062-2.75-11.039062l-21.605469-19.011719v-14.140625h237.664062v18.660156c0 2.296875.792969 4.527344 2.246094 6.3125l11.726563 14.414063h-29.972657c-4.222656 0-7.988281 2.652343-9.414062 6.628906-1.421875 3.976563-.195312 8.417969 3.066406 11.097656l29.425782 24.171875h-23.078126c-4.222656 0-7.988281 2.652344-9.414062 6.628906-1.421875 3.976563-.195312 8.417969 3.066406 11.101563l29.425782 24.171875h-23.078126c-4.222656 0-7.988281 2.652344-9.414062 6.628906-1.421875 3.976563-.195312 8.417969 3.066406 11.097656l29.425782 24.175782h-23.078126c-4.222656 0-7.988281 2.652344-9.414062 6.628906-1.421875 3.976562-.195312 8.417969 3.066406 11.097656l29.425782 24.171875h-23.078126c-4.007812 0-7.628906 2.398438-9.199218 6.085938-1.570313 3.691406-.785156 7.960937 1.996094 10.851562l23.203124 24.105469v6.546875c0 5.523437 4.480469 10 10 10h9.5c3.035157 0 5.5 2.46875 5.5 5.5 0 3.035156-2.464843 5.5-5.5 5.5h-23.414062c-5.523438 0-10 4.480469-10 10 0 5.523437 4.476562 10 10 10h3.414062v18.421875h-42c-5.519531 0-10 4.476562-10 10v104c0 5.523438 4.480469 10 10 10h104c5.523438 0 10-4.476562 10-10v-104c0-5.523438-4.476562-10-10-10h-42v-18.421875c14.0625 0 25.5-11.441406 25.5-25.5 0-13.894531-11.167968-25.230469-25-25.496094v-.582031c0-2.585938-1-5.070312-2.792968-6.933594l-9.699219-10.078125h27.492187c4.226563 0 7.992188-2.652343 9.417969-6.628906 1.421875-3.976563.195313-8.417969-3.066406-11.097656l-29.425781-24.175781h23.074218c4.226563 0 7.992188-2.652344 9.417969-6.628907 1.421875-3.976562.195313-8.417969-3.066406-11.097656l-29.425781-24.175781h23.074218c4.226563 0 7.992188-2.652344 9.417969-6.628906 1.421875-3.976563.195313-8.414063-3.066406-11.097657l-29.425781-24.171875h23.074218c4.226563 0 7.992188-2.652344 9.417969-6.628906 1.421875-3.976562.195313-8.417969-3.066406-11.097656l-29.425781-24.175782h23.074218c3.859376 0 7.375-2.222656 9.03125-5.703124 1.660157-3.488282 1.164063-7.613282-1.273437-10.609376l-22.757813-27.96875v-15.101562h106.335938c5.523438 0 10-4.476562 10-10v-54c0-5.523438-4.476562-10-10-10zm-122.976562 408-35.859376 35.855469v-35.855469zm4.285156 84 43.855468-43.855469v43.855469zm43.855468-72.144531-72.140624 72.144531h-11.859376v-19.855469l64.144532-64.144531h19.855468zm0 0"/></svg>