<svg height="512pt" viewBox="0 -114 512 512" width="512pt" xmlns="http://www.w3.org/2000/svg"><path d="m129.582031 156.210938c0 6.078124 1.363281 11.835937 3.789063 16.996093 4.691406 1.929688 9.824218 3.003907 15.210937 3.003907 22.09375 0 40-17.910157 40-40 0-6.082032-1.363281-11.839844-3.789062-17-4.6875-1.929688-9.824219-3-15.210938-3-22.089843 0-40 17.90625-40 40zm0 0" fill="#7d9bff"/><path d="m288.128906 228.859375c-21.902344 0-42.941406-3.675781-62.550781-10.429687-88.953125-14.222657-157.5-89.539063-161.273437-181.570313h-22.304688v238h460v-238h-21.871094c0 106.039063-85.964844 192-192 192zm0 0" fill="#ffc66c"/><path d="m502 18.859375h-53.871094c-5.523437 0-10 4.476563-10 10 0 100.355469-81.648437 182-182 182-34.523437 0-66.832031-9.664063-94.367187-26.425781 21.195312-5.796875 36.820312-25.214844 36.820312-48.222656 0-27.570313-22.429687-50-50-50-22.976562 0-42.371093 15.582031-48.199219 36.730468-16.65625-27.46875-26.253906-59.675781-26.253906-94.082031 0-5.523437-4.480468-10-10-10h-54.128906c-5.523438 0-10 4.476563-10 10v246c0 5.523437 4.476562 10 10 10h492c5.523438 0 10-4.476563 10-10v-246c0-5.523437-4.476562-10-10-10zm-10 20v7.9375c-.378906.28125-.746094.582031-1.089844.925781l-42.242187 42.242188c5.171875-16.25 8.347656-33.378906 9.214843-51.105469zm-72.222656 108.285156 72.222656-72.226562v134.792969l-53.542969 53.546874c-.5.496094-.933593 1.035157-1.300781 1.601563h-53.601562l56.847656-56.847656c3.90625-3.90625 3.90625-10.238281 0-14.144531-3.90625-3.902344-10.234375-3.902344-14.140625 0l-69.390625 69.390624c-.496094.496094-.929688 1.035157-1.300782 1.601563h-53.507812l71.992188-71.992187c.089843-.089844.164062-.1875.25-.28125 17.460937-12.636719 32.824218-27.992188 45.472656-45.441407zm-199.257813 117.714844 34.019531-34.019531c.53125.003906 1.058594.019531 1.589844.019531 21.292969 0 41.820313-3.324219 61.105469-9.460937l-43.457031 43.460937zm-81.542969 0 46.691407-46.6875c13.546875 5.054687 27.773437 8.695313 42.507812 10.746094l-35.941406 35.941406zm-81.539062 0 75.796875-75.796875c10.191406 7.832031 21.140625 14.722656 32.730469 20.527344l-55.273438 55.269531zm61.144531-128.648437c0-16.542969 13.457031-30 30-30s30 13.457031 30 30c0 16.539062-13.457031 30-30 30-7.71875 0-14.765625-2.933594-20.089843-7.742188-.738282-.730469-1.476563-1.46875-2.203126-2.210938-4.785156-5.316406-7.707031-12.347656-7.707031-20.046874zm-98.582031 2.84375c.371094-.277344.734375-.578126 1.070312-.914063l43.921876-43.921875c4.386718 12.792969 10.007812 25.015625 16.75 36.507812l-61.742188 61.742188zm34.371094-100.195313c.554687 11.359375 2.0625 22.472656 4.429687 33.265625l-38.800781 38.800781v-72.066406zm-34.371094 181.894531 72.957031-72.957031c5.753907 7.871094 12.066407 15.3125 18.871094 22.265625.871094.945312 1.78125 1.855469 2.726563 2.734375 1.117187 1.097656 2.25 2.1875 3.394531 3.261719l-88.089844 88.089844c-.226563.230468-.4375.464843-.640625.710937h-9.21875zm445.140625 44.105469 26.859375-26.863281v26.863281zm0 0"/><path d="m458.679688 185.597656c2.628906 0 5.210937-1.070312 7.070312-2.929687s2.929688-4.4375 2.929688-7.070313c0-2.636718-1.070313-5.21875-2.929688-7.078125s-4.441406-2.921875-7.070312-2.921875c-2.640626 0-5.210938 1.0625-7.070313 2.921875-1.867187 1.859375-2.929687 4.441407-2.929687 7.078125 0 2.632813 1.0625 5.210938 2.929687 7.070313 1.859375 1.859375 4.429687 2.929687 7.070313 2.929687zm0 0"/><path d="m159.757812 36.949219c.988282 4.714843 5.144532 7.953125 9.777344 7.953125.679688 0 1.367188-.066406 2.058594-.214844 4.613281-.964844 7.800781-4.964844 7.9375-9.472656 22.53125 14.804687 48.886719 22.753906 76.46875 22.753906 27.585938 0 53.941406-7.949219 76.46875-22.753906.140625 4.507812 3.328125 8.507812 7.9375 9.472656.691406.148438 1.382812.214844 2.0625.214844 4.632812 0 8.789062-3.238282 9.777344-7.953125l5.214844-24.898438c.617187-2.949219-.125-6.019531-2.027344-8.355469-1.898438-2.339843-4.75-3.695312-7.761719-3.695312h-23.492187c-5.523438 0-10 4.476562-10 10 0 4.164062 2.546874 7.734375 6.167968 9.238281-19.039062 12.195313-41.191406 18.734375-64.34375 18.734375-23.15625 0-45.308594-6.539062-64.347656-18.734375 3.621094-1.503906 6.167969-5.074219 6.167969-9.238281 0-5.523438-4.476563-10-10-10h-23.492188c-3.011719 0-5.863281 1.355469-7.761719 3.695312-1.898437 2.335938-2.644531 5.40625-2.027343 8.355469zm0 0"/></svg>