<svg height="512pt" viewBox="0 0 512.0005 512" width="512pt" xmlns="http://www.w3.org/2000/svg"><g fill="#898998"><path d="m375.816406 158.546875-3.664062 1.546875c-42.628906 17.964844-76.070313 52.5625-92.578125 95.777344h-47.402344c-16.511719-43.214844-49.949219-77.8125-92.578125-95.777344l-3.664062-1.546875zm0 0"/><path d="m327.695312 366.789062-3.761718-3.757812c-28.402344-28.386719-44.359375-66.894531-44.359375-107.050781h-47.402344c0 40.15625-15.957031 78.664062-44.359375 107.050781l-3.761719 3.757812zm0 0"/><path d="m116 148.058594c0 .042968.003906.089844.003906.132812 26.867188 17.894532 79.480469 30.054688 139.996094 30.054688 87.8125 0 159-25.605469 159-57.1875 0-.042969-.003906-.089844-.003906-.132813-26.867188-17.894531-79.480469-30.054687-139.996094-30.054687-87.8125 0-159 25.605468-159 57.1875zm0 0"/><path d="m244.109375 346.449219c-64.410156 7.308593-111.109375 28.96875-111.109375 54.550781 0 13.390625 12.804688 25.707031 34.242188 35.453125 25.347656 6.144531 55.886718 9.734375 88.757812 9.734375 87.8125 0 159-25.605469 159-57.1875 0-13.394531-12.804688-25.707031-34.238281-35.453125-12.652344-3.066406-26.597657-5.5-41.480469-7.164063zm0 0"/></g><path d="m109.570312 262.9375c1.859376-1.859375 2.929688-4.4375 2.929688-7.070312 0-2.628907-1.070312-5.207032-2.929688-7.070313-1.859374-1.859375-4.441406-2.929687-7.070312-2.929687s-5.210938 1.070312-7.070312 2.929687c-1.859376 1.863281-2.929688 4.441406-2.929688 7.070313 0 2.632812 1.070312 5.210937 2.929688 7.070312 1.859374 1.871094 4.441406 2.929688 7.070312 2.929688s5.210938-1.058594 7.070312-2.929688zm0 0"/><path d="m58.5 245.871094h-48.5c-5.523438 0-10 4.480468-10 10 0 5.523437 4.476562 10 10 10h48.5c5.523438 0 10-4.476563 10-10 0-5.519532-4.476562-10-10-10zm0 0"/><path d="m509.070312 248.929688-25.53125-25.535157c-3.902343-3.902343-10.234374-3.902343-14.140624 0-3.90625 3.90625-3.90625 10.238281 0 14.144531l8.332031 8.335938h-182.871094c16.816406-34.035156 45.566406-61.410156 80.6875-76.355469 40.746094-15.582031 49.453125-34.851562 49.453125-48.460937 0-14.011719-9.226562-34.035156-53.1875-49.847656-28.726562-10.332032-66.039062-16.371094-105.941406-17.230469v-19.964844l8.589844 8.585937c1.953124 1.953126 4.511718 2.929688 7.070312 2.929688s5.117188-.976562 7.070312-2.929688c3.90625-3.90625 3.90625-10.238281 0-14.144531l-25.53125-25.527343c-3.90625-3.90625-10.234374-3.90625-14.140624 0l-25.53125 25.53125c-3.90625 3.902343-3.90625 10.234374 0 14.140624s10.234374 3.90625 14.140624 0l8.332032-8.332031v19.71875c-39.804688.878907-77.015625 6.914063-105.6875 17.222657-43.957032 15.8125-53.183594 35.835937-53.183594 49.847656 0 13.171875 8.160156 31.65625 45.648438 46.957031l3.0625 1.289063c35.34375 14.898437 64.28125 42.375 81.175781 76.566406h-74.386719c-5.523438 0-10 4.476562-10 10 0 5.523437 4.476562 10 10 10h79.324219c-1.4375 20.933594-7.429688 40.972656-17.496094 58.964844-31.976563 3.84375-59.695313 11.089843-80.273437 21.03125-30.625 14.785156-37.054688 31.617187-37.054688 43.132812 0 14.011719 9.230469 34.035156 53.1875 49.847656 28.667969 10.308594 65.878906 16.34375 105.683594 17.222656v45.925782c0 5.523437 4.480468 10 10 10 5.523437 0 10-4.476563 10-10v-45.921875c39.902344-.855469 77.214844-6.894531 105.945312-17.230469 43.957032-15.808594 53.1875-35.832031 53.1875-49.847656 0-11.546875-6.464844-28.417969-37.257812-43.226563-20.628906-9.921875-48.367188-17.148437-80.347656-20.96875-10.054688-17.984375-16.042969-38.007812-17.476563-58.929687h188.0625l-8.585937 8.585937c-3.90625 3.90625-3.90625 10.238281 0 14.144531 1.953124 1.949219 4.511718 2.925782 7.070312 2.925782s5.117188-.976563 7.070312-2.925782l25.53125-25.53125c3.90625-3.90625 3.90625-10.238281 0-14.140624zm-104.070312-127.871094c0 8.800781-11.3125 19.148437-32.042969 27.910156-.34375.101562-.683593.21875-1.023437.363281l-3.152344 1.328125c-24 9.335938-59.117188 16.527344-102.90625 17.476563v-94.15625c86.460938 1.875 139.125 28.085937 139.125 47.078125zm-298 0c0-18.972656 52.558594-45.152344 138.871094-47.070313v94.140625c-86.3125-1.917968-138.871094-28.097656-138.871094-47.070312zm87.972656 62.9375c16.132813 2.347656 33.296875 3.75 50.972656 4.136718.585938 4.96875 4.800782 8.824219 9.925782 8.824219 5.121094 0 9.339844-3.851562 9.925781-8.816406 17.65625-.378906 34.804687-1.769531 50.925781-4.097656-18.710937 17.171875-33.78125 38.246093-43.871094 61.828125h-12.464843c3.25-1.648438 5.484375-5.015625 5.484375-8.914063v-10c0-5.519531-4.476563-10-10-10-5.519532 0-10 4.480469-10 10v10c0 3.898438 2.234375 7.265625 5.484375 8.914063h-12.460938c-10.097656-23.605469-25.183593-44.691406-43.921875-61.875zm210.027344 205.003906c0 18.988281-52.664062 45.203125-139.128906 47.074219v-9.117188c0-5.519531-4.476563-10-10-10-5.519532 0-10 4.480469-10 10v9.113281c-86.3125-1.917968-138.871094-28.101562-138.871094-47.070312 0-14.40625 30.148438-32.660156 81.679688-41.660156-2.519532 2.960937-5.160157 5.839844-7.9375 8.617187l-3.761719 3.761719c-3.90625 3.902344-3.910157 10.234375-.003907 14.140625 1.953126 1.953125 4.511719 2.933594 7.070313 2.933594s5.117187-.976563 7.070313-2.929688l3.761718-3.761719c28.152344-28.132812 44.613282-64.835937 46.980469-104.226562h28.023437c2.367188 39.390625 18.828126 76.09375 46.980469 104.226562l3.761719 3.761719c1.953125 1.953125 4.511719 2.929688 7.070312 2.929688 2.558594 0 5.117188-.980469 7.070313-2.933594 3.90625-3.90625 3.902344-10.238281-.003906-14.140625l-3.761719-3.761719c-2.796875-2.792969-5.453125-5.691406-7.980469-8.671875 51.722657 8.980469 81.980469 27.253906 81.980469 41.714844zm0 0"/><path d="m255.871094 266.957031c-5.519532 0-10 4.480469-10 10v10c0 5.523438 4.480468 10 10 10 5.523437 0 10-4.476562 10-10v-10c0-5.523437-4.476563-10-10-10zm0 0"/><path d="m255.871094 316.957031c-5.519532 0-10 4.480469-10 10v10c0 5.523438 4.480468 10 10 10 5.523437 0 10-4.476562 10-10v-10c0-5.523437-4.476563-10-10-10zm0 0"/><path d="m255.871094 366.957031c-5.519532 0-10 4.480469-10 10v10c0 5.523438 4.480468 10 10 10 5.523437 0 10-4.476562 10-10v-10c0-5.523437-4.476563-10-10-10zm0 0"/></svg>