<svg height="512pt" viewBox="0 -20 512 512" width="512pt" xmlns="http://www.w3.org/2000/svg"><path d="m75 10h427v70h-427zm0 0" fill="#a7c5ff"/><path d="m434 405.066406c0 12.503906 4.785156 23.890625 12.621094 32.433594 2.40625.371094 4.871094.566406 7.378906.566406 26.511719 0 48-21.492187 48-48 0-12.507812-4.785156-23.894531-12.621094-32.4375-2.40625-.371094-4.871094-.5625-7.378906-.5625-26.511719 0-48 21.488282-48 48zm0 0" fill="#ff5d5d"/><g fill="#b3b6c3"><path d="m75 432c0 10.414062 3.324219 20.042969 8.960938 27.90625 4.441406 1.359375 9.152343 2.09375 14.039062 2.09375 26.511719 0 48-21.488281 48-48 0-10.414062-3.324219-20.042969-8.960938-27.90625-4.441406-1.359375-9.152343-2.09375-14.039062-2.09375-26.511719 0-48 21.488281-48 48zm0 0"/><path d="m169 432c0 10.023438 3.074219 19.324219 8.328125 27.019531 5.195313 1.925781 10.808594 2.980469 16.671875 2.980469 26.511719 0 48-21.488281 48-48 0-10.023438-3.074219-19.324219-8.328125-27.019531-5.195313-1.925781-10.808594-2.980469-16.671875-2.980469-26.511719 0-48 21.488281-48 48zm0 0"/><path d="m264 432c0 9.792969 2.9375 18.894531 7.972656 26.488281 5.566406 2.257813 11.648438 3.511719 18.027344 3.511719 26.511719 0 48-21.488281 48-48 0-9.792969-2.9375-18.894531-7.972656-26.488281-5.566406-2.257813-11.648438-3.511719-18.027344-3.511719-26.511719 0-48 21.488281-48 48zm0 0"/></g><path d="m98 20c2.628906 0 5.210938-1.070312 7.070312-2.929688 1.859376-1.859374 2.929688-4.441406 2.929688-7.070312s-1.070312-5.210938-2.929688-7.070312c-1.859374-1.859376-4.441406-2.929688-7.070312-2.929688s-5.210938 1.070312-7.070312 2.929688c-1.859376 1.859374-2.929688 4.441406-2.929688 7.070312s1.070312 5.210938 2.929688 7.070312c1.859374 1.859376 4.441406 2.929688 7.070312 2.929688zm0 0"/><path d="m502 90c5.523438 0 10-4.476562 10-10v-70c0-5.523438-4.476562-10-10-10h-358.332031c-5.523438 0-10 4.476562-10 10s4.476562 10 10 10h348.332031v50h-472v-50h30c5.523438 0 10-4.476562 10-10s-4.476562-10-10-10h-40c-5.523438 0-10 4.476562-10 10v70c0 5.523438 4.476562 10 10 10h78v266.882812c-27.230469 4.753907-48 28.546876-48 57.117188 0 31.980469 26.019531 58 58 58 19.9375 0 37.558594-10.113281 48-25.480469 10.441406 15.367188 28.0625 25.480469 48 25.480469s37.558594-10.113281 48-25.480469c10.441406 15.367188 28.0625 25.480469 48 25.480469 31.980469 0 58-26.019531 58-58 0-28.570312-20.769531-52.363281-48-57.117188v-266.882812h77.160156l54.699219 246.464844c-21.027344 8.71875-35.859375 29.457031-35.859375 53.601562 0 31.980469 26.019531 58 58 58s58-26.019531 58-58c0-31.980468-26.019531-58-58-58-.878906 0-1.746094.027344-2.613281.066406l-53.738281-242.132812zm-10 300.066406c0 20.953125-17.046875 38-38 38s-38-17.046875-38-38 17.046875-38 38-38 38 17.046875 38 38zm-394 61.933594c-20.953125 0-38-17.046875-38-38s17.046875-38 38-38 38 17.046875 38 38-17.046875 38-38 38zm96 0c-20.953125 0-38-17.046875-38-38s17.046875-38 38-38 38 17.046875 38 38-17.046875 38-38 38zm134-38c0 20.953125-17.046875 38-38 38s-38-17.046875-38-38 17.046875-38 38-38 38 17.046875 38 38zm-48-57.117188c-15.753906 2.75-29.34375 11.859376-38 24.597657-8.65625-12.738281-22.246094-21.847657-38-24.597657v-191.882812c0-5.523438-4.476562-10-10-10s-10 4.476562-10 10v191.882812c-15.753906 2.75-29.34375 11.859376-38 24.597657-8.65625-12.738281-22.246094-21.847657-38-24.597657v-266.882812h172zm0 0"/><path d="m194 135c2.628906 0 5.210938-1.070312 7.070312-2.929688 1.859376-1.859374 2.929688-4.441406 2.929688-7.070312s-1.070312-5.210938-2.929688-7.070312c-1.859374-1.859376-4.441406-2.929688-7.070312-2.929688s-5.210938 1.070312-7.070312 2.929688c-1.859376 1.859374-2.929688 4.441406-2.929688 7.070312s1.070312 5.210938 2.929688 7.070312c1.859374 1.859376 4.441406 2.929688 7.070312 2.929688zm0 0"/></svg>