<svg height="512pt" viewBox="0 -27 512 512" width="512pt" xmlns="http://www.w3.org/2000/svg"><path d="m62.496094 60v350c0 16.214844 8.777344 30.367188 21.828125 38h373.675781c24.300781 0 44-19.699219 44-44v-350c0-16.214844-8.773438-30.367188-21.828125-38h-373.675781c-24.300782 0-44 19.699219-44 44zm0 0" fill="#a7c5ff"/><g fill="#fff"><path d="m442 293h-372c-11.046875 0-20-8.953125-20-20v-195c0-11.046875 8.953125-20 20-20h372c11.046875 0 20 8.953125 20 20v195c0 11.046875-8.953125 20-20 20zm0 0"/><path d="m221.21875 366c0 15.464844-12.535156 28-28 28s-28-12.535156-28-28 12.535156-28 28-28 28 12.535156 28 28zm0 0"/><path d="m346.78125 366c0 15.464844-12.535156 28-28 28s-28-12.535156-28-28 12.535156-28 28-28 28 12.535156 28 28zm0 0"/></g><path d="m458 0h-404c-29.773438 0-54 24.226562-54 54v350c0 29.773438 24.226562 54 54 54h404c29.773438 0 54-24.226562 54-54v-350c0-29.773438-24.226562-54-54-54zm34 404c0 18.746094-15.253906 34-34 34h-404c-18.746094 0-34-15.253906-34-34v-350c0-18.746094 15.253906-34 34-34h404c18.746094 0 34 15.253906 34 34zm0 0"/><path d="m442 48h-372c-16.542969 0-30 13.457031-30 30v195c0 16.542969 13.457031 30 30 30h250c5.523438 0 10-4.476562 10-10s-4.476562-10-10-10h-39.730469l88.199219-88.199219c3.902344-3.902343 3.902344-10.234375 0-14.140625-3.90625-3.90625-10.238281-3.90625-14.144531 0l-102.339844 102.339844h-181.984375c-5.515625 0-10-4.484375-10-10v-195c0-5.515625 4.484375-10 10-10h372c5.515625 0 10 4.484375 10 10v195c0 5.515625-4.484375 10-10 10h-38.332031c-5.523438 0-10 4.476562-10 10s4.476562 10 10 10h38.332031c16.542969 0 30-13.457031 30-30v-195c0-16.542969-13.457031-30-30-30zm0 0"/><path d="m365.671875 283c-2.632813 0-5.203125 1.070312-7.070313 2.929688-1.859374 1.859374-2.929687 4.441406-2.929687 7.070312s1.066406 5.210938 2.929687 7.070312c1.859376 1.859376 4.4375 2.929688 7.070313 2.929688 2.628906 0 5.207031-1.070312 7.066406-2.929688 1.859375-1.859374 2.933594-4.441406 2.933594-7.070312s-1.070313-5.210938-2.933594-7.070312c-1.859375-1.859376-4.4375-2.929688-7.066406-2.929688zm0 0"/><path d="m193.21875 328c-20.953125 0-38 17.046875-38 38s17.046875 38 38 38 38-17.046875 38-38-17.046875-38-38-38zm0 56c-9.925781 0-18-8.074219-18-18s8.074219-18 18-18 18 8.074219 18 18-8.074219 18-18 18zm0 0"/><path d="m318.78125 328c-20.953125 0-38 17.046875-38 38s17.046875 38 38 38 38-17.046875 38-38-17.046875-38-38-38zm0 56c-9.925781 0-18-8.074219-18-18s8.074219-18 18-18 18 8.074219 18 18-8.074219 18-18 18zm0 0"/><path d="m98.851562 158.976562c-3.90625 3.90625-3.90625 10.238282 0 14.144532 1.953126 1.953125 4.511719 2.929687 7.070313 2.929687s5.117187-.976562 7.070313-2.929687c.019531-.019532.066406-.066406.097656-.097656 3.871094-3.90625 3.828125-10.183594-.066406-14.078126-3.90625-3.90625-10.269532-3.871093-14.171876.03125zm0 0"/><path d="m406.332031 176.050781c2.5625 0 5.117188-.980469 7.070313-2.929687 3.90625-3.90625 3.90625-10.238282 0-14.144532-37.09375-37.097656-86.273438-59.949218-138.472656-64.355468-51.578126-4.347656-103.269532 9.433594-145.539063 38.804687-4.535156 3.152344-5.660156 9.382813-2.507813 13.917969 3.148438 4.535156 9.382813 5.660156 13.917969 2.507812 80.410157-55.871093 189.105469-46.085937 258.460938 23.269532 1.953125 1.949218 4.511719 2.929687 7.070312 2.929687zm0 0"/><path d="m256.128906 151.085938c-4.261718 0-8.054687 2.699218-9.449218 6.722656l-22.050782 63.582031c-1.808594 5.21875.957032 10.914063 6.171875 12.726563 5.21875 1.808593 10.917969-.953126 12.726563-6.171876l1.402344-4.042968h22.394531l1.402343 4.042968c1.433594 4.132813 5.308594 6.726563 9.449219 6.726563 1.085938 0 2.191407-.179687 3.277344-.554687 5.21875-1.8125 7.980469-7.507813 6.171875-12.726563l-22.050781-63.582031c-1.394531-4.023438-5.1875-6.722656-9.445313-6.722656zm-4.265625 52.8125 4.265625-12.292969 4.261719 12.292969zm0 0"/></svg>