<svg height="512pt" viewBox="0 -2 512 512" width="512pt" xmlns="http://www.w3.org/2000/svg"><g fill="#edf2fa"><path d="m131.316406 468.242188c0 16.4375-13.324218 29.757812-29.757812 29.757812s-29.753906-13.320312-29.753906-29.757812c0-16.433594 13.320312-29.753907 29.753906-29.753907s29.757812 13.320313 29.757812 29.753907zm0 0"/><path d="m316.898438 361.121094c0 16.433594-13.320313 29.757812-29.753907 29.757812-16.433593 0-29.757812-13.324218-29.757812-29.757812s13.324219-29.753906 29.757812-29.753906c16.433594 0 29.753907 13.320312 29.753907 29.753906zm0 0"/><path d="m440.503906 361.121094c0 16.433594-13.324218 29.757812-29.757812 29.757812s-29.757813-13.324218-29.757813-29.757812 13.324219-29.753906 29.757813-29.753906 29.757812 13.320312 29.757812 29.753906zm0 0"/><path d="m316.898438 146.878906c0 16.433594-13.320313 29.753906-29.753907 29.753906-16.433593 0-29.757812-13.320312-29.757812-29.753906s13.324219-29.757812 29.757812-29.757812c16.433594 0 29.753907 13.324218 29.753907 29.757812zm0 0"/><path d="m69.511719 146.878906c0 16.433594-13.320313 29.753906-29.753907 29.753906-16.4375 0-29.757812-13.320312-29.757812-29.753906s13.320312-29.757812 29.757812-29.757812c16.433594 0 29.753907 13.324218 29.753907 29.757812zm0 0"/><path d="m440.503906 146.878906c0 16.433594-13.324218 29.753906-29.757812 29.753906s-29.757813-13.320312-29.757813-29.753906 13.324219-29.757812 29.757813-29.757812 29.757812 13.324218 29.757812 29.757812zm0 0"/><path d="m255.097656 254c0 16.433594-13.324218 29.757812-29.757812 29.757812s-29.753906-13.324218-29.753906-29.757812 13.320312-29.757812 29.753906-29.757812 29.757812 13.324218 29.757812 29.757812zm0 0"/><path d="m131.355469 39.757812c0 16.433594-13.324219 29.753907-29.757813 29.753907s-29.753906-13.320313-29.753906-29.753907c0-16.4375 13.320312-29.757812 29.753906-29.757812s29.757813 13.320312 29.757813 29.757812zm0 0"/><path d="m69.511719 361.121094c0 16.433594-13.320313 29.757812-29.753907 29.757812-16.4375 0-29.757812-13.324218-29.757812-29.757812s13.320312-29.753906 29.757812-29.753906c16.433594 0 29.753907 13.320312 29.753907 29.753906zm0 0"/></g><path d="m244.972656 445.890625c-14.117187 2.324219-24.886718 14.578125-24.886718 29.351563 0 8.910156 3.921874 16.902343 10.125 22.355468 14.117187-2.324218 24.886718-14.578125 24.886718-29.355468 0-8.90625-3.921875-16.898438-10.125-22.351563zm0 0" fill="#ff5d5d"/><path d="m121.050781 231.492188c-13.617187 2.730468-23.875 14.753906-23.875 29.171874 0 8.996094 3.996094 17.050782 10.304688 22.507813 13.617187-2.730469 23.875-14.75 23.875-29.171875 0-8.992188-3.996094-17.050781-10.304688-22.507812zm0 0" fill="#ff5d5d"/><path d="m244.796875 17.25c-13.617187 2.730469-23.878906 14.753906-23.878906 29.171875 0 8.996094 3.996093 17.050781 10.304687 22.507813 13.617188-2.730469 23.875-14.753907 23.875-29.171876 0-8.996093-3.996094-17.050781-10.300781-22.507812zm0 0" fill="#ff5d5d"/><path d="m490.925781 230.847656c-13.566406 2.769532-23.773437 14.769532-23.773437 29.152344 0 9.355469 4.324218 17.699219 11.074218 23.152344 13.566407-2.769532 23.773438-14.769532 23.773438-29.152344 0-9.355469-4.320312-17.699219-11.074219-23.152344zm0 0" fill="#ff5d5d"/><path d="m472.242188 214.242188c-3.660157 0-7.203126.511718-10.574219 1.441406l-23.261719-40.289063c7.453125-7.230469 12.097656-17.339843 12.097656-28.515625 0-11.078125-4.558594-21.105468-11.890625-28.320312l8.335938-14.421875c2.765625-4.78125 1.128906-10.898438-3.648438-13.664063-4.78125-2.761718-10.898437-1.128906-13.664062 3.652344l-8.34375 14.425781c-3.363281-.925781-6.894531-1.429687-10.546875-1.429687-18.46875 0-34.035156 12.660156-38.480469 29.757812h-46.640625c-4.445312-17.097656-20.011719-29.757812-38.480469-29.757812-3.664062 0-7.207031.507812-10.574219 1.4375l-23.371093-40.476563c7.335937-7.214843 11.898437-17.246093 11.898437-28.328125 0-21.917968-17.835937-39.753906-39.757812-39.753906-18.46875 0-34.035156 12.660156-38.480469 29.757812h-46.78125c-4.445313-17.097656-20.011719-29.757812-38.480469-29.757812-21.921875 0-39.753906 17.835938-39.753906 39.757812 0 11.066407 4.546875 21.085938 11.871094 28.300782l-23.382813 40.503906c-3.371093-.933594-6.914062-1.441406-10.574219-1.441406-21.921874 0-39.757812 17.835937-39.757812 39.757812s17.835938 39.753906 39.757812 39.753906c3.660157 0 7.203126-.507812 10.574219-1.4375l23.382813 40.5c-7.324219 7.214844-11.871094 17.238282-11.871094 28.304688s4.546875 21.089844 11.871094 28.304688l-23.382813 40.5c-3.371093-.929688-6.914062-1.4375-10.574219-1.4375-21.921874 0-39.757812 17.832031-39.757812 39.753906s17.835938 39.757812 39.757812 39.757812c3.660157 0 7.203126-.507812 10.574219-1.441406l23.367188 40.476562c-7.335938 7.21875-11.898438 17.25-11.898438 28.328126 0 21.921874 17.835938 39.757812 39.757813 39.757812 18.46875 0 34.035156-12.660156 38.480468-29.757812h46.820313c4.445313 17.097656 20.011719 29.757812 38.480469 29.757812 21.921875 0 39.757812-17.835938 39.757812-39.757812 0-11.078126-4.5625-21.109376-11.898437-28.328126l23.371093-40.476562c3.367188.933594 6.914063 1.441406 10.574219 1.441406 18.46875 0 34.035157-12.660156 38.480469-29.757812h46.640625c4.445313 17.097656 20.011719 29.757812 38.480469 29.757812 3.574218 0 7.039062-.484375 10.339844-1.371094l8.0625 13.941407c1.855468 3.207031 5.210937 4.996093 8.667968 4.996093 1.699219 0 3.417969-.433593 4.996094-1.34375 4.78125-2.765624 6.414062-8.882812 3.652344-13.664062l-8.007813-13.847656c7.421875-7.226563 12.046875-17.3125 12.046875-28.46875 0-11.175782-4.644531-21.285156-12.097656-28.515625l23.261719-40.289063c3.371093.929688 6.914062 1.4375 10.574219 1.4375 21.921874.003906 39.757812-17.832031 39.757812-39.753906s-17.835938-39.757812-39.757812-39.757812zm-61.496094-87.121094c10.894531 0 19.757812 8.863281 19.757812 19.757812 0 10.894532-8.863281 19.753906-19.757812 19.753906-10.894532 0-19.757813-8.859374-19.757813-19.753906 0-10.894531 8.863281-19.757812 19.757813-19.757812zm-103.847656 19.757812c0 10.894532-8.859376 19.753906-19.753907 19.753906s-19.757812-8.859374-19.757812-19.753906c0-10.894531 8.863281-19.757812 19.757812-19.757812 10.890625 0 19.753907 8.863281 19.753907 19.757812zm-81.558594-126.878906c10.894531 0 19.757812 8.863281 19.757812 19.757812 0 10.890626-8.863281 19.753907-19.757812 19.753907-10.894532 0-19.753906-8.863281-19.753906-19.753907 0-10.894531 8.863281-19.757812 19.753906-19.757812zm-123.742188 0c10.894532 0 19.757813 8.863281 19.757813 19.757812 0 10.890626-8.863281 19.753907-19.757813 19.753907-10.894531 0-19.753906-8.863281-19.753906-19.753907 0-10.894531 8.859375-19.757812 19.753906-19.757812zm-81.597656 126.878906c0-10.894531 8.863281-19.757812 19.757812-19.757812 10.890626 0 19.753907 8.863281 19.753907 19.757812 0 10.894532-8.863281 19.753906-19.753907 19.753906-10.894531 0-19.757812-8.863281-19.757812-19.753906zm47.644531 28.300782c7.320313-7.214844 11.867188-17.234376 11.867188-28.300782s-4.546875-21.085937-11.867188-28.300781l23.382813-40.503906c3.371094.929687 6.910156 1.4375 10.570312 1.4375 18.46875 0 34.035156-12.660157 38.480469-29.753907h46.78125c4.449219 17.09375 20.011719 29.753907 38.484375 29.753907 3.644531 0 7.175781-.503907 10.535156-1.425781l23.378906 40.492187c-7.320312 7.214844-11.871093 17.234375-11.871093 28.300781 0 11.078125 4.5625 21.109375 11.894531 28.324219l-23.398438 40.46875c-3.359374-.925781-6.890624-1.429687-10.542968-1.429687-18.46875 0-34.035156 12.660156-38.480469 29.757812h-46.78125c-4.445313-17.097656-20.011719-29.757812-38.480469-29.757812-3.660156 0-7.203125.507812-10.570312 1.4375zm177.453125 78.820312c0 10.894531-8.863281 19.757812-19.757812 19.757812-10.894532 0-19.753906-8.863281-19.753906-19.757812s8.863281-19.757812 19.753906-19.757812c10.894531 0 19.757812 8.863281 19.757812 19.757812zm-163.253906 0c0-10.894531 8.859375-19.757812 19.753906-19.757812 10.894532 0 19.757813 8.863281 19.757813 19.757812s-8.863281 19.757812-19.757813 19.757812c-10.894531 0-19.753906-8.863281-19.753906-19.757812zm-61.84375 107.121094c0-10.894532 8.863281-19.753906 19.757812-19.753906 10.890626 0 19.753907 8.859374 19.753907 19.753906 0 10.894531-8.863281 19.757812-19.753907 19.757812-10.894531 0-19.757812-8.863281-19.757812-19.757812zm81.558594 126.878906c-10.894532 0-19.753906-8.863281-19.753906-19.757812 0-10.890626 8.859374-19.753907 19.753906-19.753907 10.894531 0 19.757812 8.863281 19.757812 19.753907 0 10.894531-8.863281 19.757812-19.757812 19.757812zm123.78125 0c-10.894532 0-19.753906-8.863281-19.753906-19.757812 0-10.890626 8.863281-19.753907 19.753906-19.753907 10.894531 0 19.757812 8.863281 19.757812 19.753907 0 10.894531-8.863281 19.757812-19.757812 19.757812zm10.539062-58.085938c-3.359375-.921874-6.890625-1.425781-10.539062-1.425781-18.46875 0-34.035156 12.660157-38.480469 29.753907h-46.820313c-4.445312-17.09375-20.011718-29.753907-38.480468-29.753907-3.648438 0-7.179688.503907-10.535156 1.425781l-23.378907-40.492187c7.320313-7.214844 11.867188-17.234375 11.867188-28.300781s-4.546875-21.085938-11.871094-28.300782l23.386719-40.503906c3.367187.929688 6.910156 1.4375 10.570312 1.4375 18.46875 0 34.035156-12.65625 38.480469-29.753906h46.78125c4.445313 17.097656 20.011719 29.753906 38.480469 29.753906 3.648437 0 7.179687-.503906 10.539062-1.429687l23.402344 40.472656c-7.335938 7.214844-11.894531 17.246094-11.894531 28.324219 0 11.066406 4.550781 21.085937 11.871093 28.300781zm51.265625-49.035156c-10.894531 0-19.757812-8.863281-19.757812-19.757812 0-7.308594 4-13.683594 9.914062-17.101563.003907-.003906.011719-.007812.015625-.007812.015625-.011719.03125-.023438.046875-.03125 2.886719-1.65625 6.222657-2.617188 9.78125-2.617188 10.894531 0 19.753907 8.863281 19.753907 19.757813 0 10.894531-8.859376 19.757812-19.753907 19.757812zm103.84375-19.757812c0-10.894532 8.863281-19.753906 19.757813-19.753906 10.894531 0 19.757812 8.859374 19.757812 19.753906 0 6.992187-3.660156 13.128906-9.15625 16.644531-.335937.144531-.667968.308594-.992187.5-.277344.15625-.535157.328125-.789063.507813-2.660156 1.335937-5.648437 2.105468-8.820312 2.105468-10.894532 0-19.757813-8.863281-19.757813-19.757812zm30.03125-38.402344c-3.277343-.875-6.722656-1.351562-10.273437-1.351562-18.46875 0-34.035156 12.65625-38.480469 29.753906h-46.640625c-4.445312-17.097656-20.011719-29.753906-38.480469-29.753906-3.652343 0-7.183593.503906-10.542969 1.429687l-23.402343-40.472656c7.335937-7.214844 11.898437-17.246094 11.898437-28.324219s-4.558594-21.109375-11.894531-28.324219l23.402344-40.472656c3.359375.925781 6.890625 1.429687 10.539062 1.429687 18.46875 0 34.035157-12.65625 38.480469-29.753906h46.640625c4.445313 17.097656 20.011719 29.753906 38.480469 29.753906 3.554687 0 6.996094-.472656 10.277344-1.351562l23.335937 40.417969c-7.324219 7.214843-11.871094 17.234375-11.871094 28.300781s4.546875 21.085938 11.871094 28.300781zm51.222657-48.960938c-10.890626 0-19.753907-8.863281-19.753907-19.757812s8.863281-19.757812 19.753907-19.757812c10.894531 0 19.757812 8.863281 19.757812 19.757812s-8.863281 19.757812-19.757812 19.757812zm0 0"/><path d="m455.4375 79.46875c2.640625 0 5.210938-1.058594 7.070312-2.917969 1.859376-1.871093 2.929688-4.441406 2.929688-7.070312 0-2.640625-1.070312-5.210938-2.929688-7.082031-1.859374-1.859376-4.4375-2.929688-7.070312-2.929688-2.628906 0-5.207031 1.070312-7.070312 2.929688-1.859376 1.859374-2.929688 4.441406-2.929688 7.082031 0 2.628906 1.070312 5.207031 2.929688 7.070312 1.863281 1.859375 4.441406 2.917969 7.070312 2.917969zm0 0"/><path d="m455.1875 428.519531c-2.628906 0-5.207031 1.070313-7.070312 2.929688-1.859376 1.859375-2.917969 4.429687-2.917969 7.070312 0 2.628907 1.058593 5.210938 2.917969 7.070313 1.863281 1.859375 4.441406 2.929687 7.070312 2.929687 2.640625 0 5.222656-1.070312 7.070312-2.929687 1.871094-1.859375 2.941407-4.441406 2.941407-7.070313 0-2.640625-1.070313-5.210937-2.941407-7.070312-1.847656-1.859375-4.429687-2.929688-7.070312-2.929688zm0 0"/></svg>