<svg height="512pt" viewBox="0 0 512 512" width="512pt" xmlns="http://www.w3.org/2000/svg"><path d="m47 336.128906v126.871094c0 18.757812 35.480469 34.492188 83.351562 38.820312 55.824219-1.910156 99.507813-19.007812 99.507813-39.820312h.140625v-150.871094zm0 0" fill="#7d9bff"/><path d="m103.429688 179.023438c-52.882813 2.894531-93.429688 19.5-93.429688 39.550781s40.546875 36.65625 93.429688 39.550781zm0 0" fill="#edf2fa"/><path d="m129.429688 178.722656v79.699219c56.265624-1.75 100.429687-18.921875 100.429687-39.847656 0-20.929688-44.164063-38.097657-100.429687-39.851563zm0 0" fill="#edf2fa"/><path d="m137.558594 111.085938c-10.488282 3.160156-18.128906 12.894531-18.128906 24.414062v165.933594c0 3.257812 1.074218 6.257812 2.867187 8.695312h8.4375c8.117187 0 14.695313-6.578125 14.695313-14.695312v-165.933594c0-7.242188-3.023438-13.773438-7.871094-18.414062zm0 0" fill="#feda9b"/><path d="m210.933594 289.539062c-16.164063-3.074218-34.925782-4.832031-54.933594-4.832031-3.394531 0-6.753906.050781-10.070312.152344v10.574219c0 8.117187-6.578126 14.695312-14.695313 14.695312h-21.605469c-8.117187 0-14.699218-6.578125-14.699218-14.695312v-4.636719c-29.5 6.492187-48.929688 17.558594-48.929688 30.121094 0 7.554687 7.035156 14.570312 19.066406 20.378906 16.164063 3.070313 34.925782 4.832031 54.933594 4.832031 60.75 0 110-16.214844 110-36.210937 0-7.558594-7.035156-14.574219-19.066406-20.378907zm0 0" fill="#feda9b"/><path d="m320 461c0 20.722656 43.304688 37.761719 98.777344 39.796875 47.734375-4.359375 83.082031-20.074219 83.082031-38.796875h.140625v-120.007812l-182 21zm0 0" fill="#7d9bff"/><path d="m375.097656 179.039062c-52.722656 2.949219-93.097656 19.527344-93.097656 39.535157 0 20.007812 40.375 36.585937 93.097656 39.535156zm0 0" fill="#edf2fa"/><path d="m400.765625 178.703125v79.742187c56.582031-1.636718 101.09375-18.863281 101.09375-39.871093 0-21.007813-44.511719-38.234375-101.09375-39.871094zm0 0" fill="#edf2fa"/><path d="m391.761719 177.558594v158.472656c0 2.964844.886719 5.71875 2.398437 8.027344h8.574219c8.117187 0 14.695313-6.578125 14.695313-14.695313v-158.46875c0-6.941406-2.773438-13.226562-7.269532-17.824219-10.625 3.078126-18.398437 12.871094-18.398437 24.488282zm0 0" fill="#feda9b"/><path d="m482.472656 323.515625c-15.828125-2.890625-34.0625-4.539063-53.472656-4.539063-3.90625 0-7.765625.066407-11.570312.199219v9.519531c0 8.117188-6.578126 14.695313-14.695313 14.695313h-21.605469c-8.117187 0-14.699218-6.578125-14.699218-14.695313v-3.324218c-28.65625 6.511718-47.429688 17.359375-47.429688 29.648437 0 7.617188 7.21875 14.679688 19.527344 20.5 15.828125 2.890625 34.0625 4.539063 53.472656 4.539063 60.75 0 110-16.132813 110-36.039063 0-7.617187-7.21875-14.679687-19.527344-20.503906zm0 0" fill="#feda9b"/><path d="m210.957031 184.964844c-14.566406-6.8125-33.671875-11.722656-55.527343-14.324219v-41.140625c0-19.574219-15.921876-35.5-35.5-35.5-19.574219 0-35.5 15.925781-35.5 35.5v41.140625c-21.875 2.601563-40.992188 7.523437-55.5625 14.339844-23.859376 11.160156-28.867188 24.429687-28.867188 33.59375v243.425781c0 32.824219 60.332031 50 119.929688 50 58.28125 0 117.253906-16.425781 119.832031-47.851562.152343-.691407.238281-1.410157.238281-2.148438v-243.425781c0-.734375-.085938-1.449219-.234375-2.140625-.769531-9.019532-6.714844-21.144532-28.808594-31.46875zm-126.527343 101.152344v9.316406c0 13.617187 11.078124 24.695312 24.695312 24.695312h21.609375c13.617187 0 24.695313-11.078125 24.695313-24.695312v-9.320313c45.742187 5.261719 64.429687 18.863281 64.429687 24.015625 0 2.960938-6.871094 9.914063-25.308594 15.949219-19.785156 6.480469-46.285156 10.050781-74.621093 10.050781-28.332032 0-54.835938-3.570312-74.621094-10.050781-18.4375-6.035156-25.308594-12.984375-25.308594-15.949219 0-5.148437 18.6875-18.753906 64.429688-24.011718zm-64.429688-2.765626v-35.933593c2.746094 1.6875 5.839844 3.351562 9.34375 4.972656 14.035156 6.476563 32.164062 11.214844 52.855469 13.847656-23.21875 2.703125-46.402344 8.238281-62.199219 17.113281zm137.652344-17.113281c20.929687-2.664062 39.234375-7.476562 53.304687-14.054687 3.382813-1.582032 6.378907-3.207032 9.042969-4.855469v36.097656c-15.800781-8.917969-39.050781-14.476562-62.347656-17.1875zm62.207031-47.664062c0 8.546875-22.339844 22.367187-64.429687 27.785156v-55.570313c42.089843 5.417969 64.429687 19.238282 64.429687 27.785157zm-115.429687-89.074219c0-8.546875 6.953124-15.5 15.5-15.5 8.546874 0 15.5 6.953125 15.5 15.5v165.933594c0 2.589844-2.105469 4.695312-4.695313 4.695312h-21.609375c-2.589844 0-4.695312-2.105468-4.695312-4.695312zm-20 61.289062v55.566407c-18.398438-2.382813-34.742188-6.601563-46.703126-12.125-13.070312-6.035157-17.726562-12.042969-17.726562-15.65625 0-8.542969 22.34375-22.363281 64.429688-27.785157zm109.8125 290.097657c-19.691407 7.167969-46.085938 11.113281-74.3125 11.113281-28.226563 0-54.617188-3.945312-74.3125-11.113281-17.695313-6.4375-25.617188-14.125-25.617188-18.886719v-.148438c0-.015624.003906-.03125.003906-.046874.101563-2.554688 2.390625-5.695313 6.445313-8.847657 4.359375-3.390625 5.148437-9.671875 1.757812-14.035156-2.039062-2.621094-5.121093-3.9375-8.207031-3.847656v-98.128907c5.070312 2.851563 11.335938 5.605469 19.085938 8.140626 21.738281 7.121093 50.453124 11.042968 80.84375 11.042968 30.390624 0 59.105468-3.921875 80.84375-11.042968 7.820312-2.5625 14.132812-5.339844 19.226562-8.21875v98.570312c-2.929688.003906-5.828125 1.285156-7.796875 3.753906-3.445313 4.316406-2.742187 10.609375 1.574219 14.054688 2.273437 1.8125 6.082031 5.363281 6.082031 8.753906 0 4.761719-7.921875 12.449219-25.617187 18.886719zm0 0"/><path d="m71.742188 415.886719c-7.199219 1.226562-14.097657 2.734375-20.5 4.488281-5.328126 1.460938-8.460938 6.960938-7.003907 12.285156 1.21875 4.445313 5.246094 7.363282 9.640625 7.363282.875 0 1.761719-.117188 2.644532-.359376 5.773437-1.578124 12.023437-2.945312 18.574218-4.0625 5.445313-.925781 9.105469-6.089843 8.179688-11.535156-.925782-5.441406-6.089844-9.113281-11.535156-8.179687zm0 0"/><path d="m130.566406 412.179688c-6.808594-.230469-13.863281-.238282-20.660156-.023438-5.519531.179688-9.847656 4.796875-9.671875 10.316406.175781 5.519532 4.792969 9.824219 10.316406 9.675782 6.359375-.207032 12.964844-.195313 19.34375.019531.113281.003906.226563.003906.34375.003906 5.367188 0 9.804688-4.257813 9.988281-9.660156.183594-5.519531-4.140624-10.148438-9.660156-10.332031zm0 0"/><path d="m189.230469 420.546875c-6.398438-1.777344-13.292969-3.308594-20.496094-4.554687-5.445313-.9375-10.617187 2.710937-11.558594 8.152343-.9375 5.441407 2.710938 10.617188 8.152344 11.558594 6.550781 1.128906 12.792969 2.515625 18.550781 4.113281.894532.246094 1.796875.367188 2.679688.367188 4.382812 0 8.402344-2.902344 9.632812-7.328125 1.476563-5.320313-1.640625-10.832031-6.960937-12.308594zm0 0"/><path d="m512 218.574219c0-.734375-.085938-1.449219-.234375-2.140625-.769531-9.019532-6.714844-21.144532-28.808594-31.472656-14.570312-6.808594-33.675781-11.722657-55.53125-14.324219-.140625-19.457031-16.007812-35.242188-35.496093-35.242188-19.488282 0-35.355469 15.785157-35.492188 35.242188-21.878906 2.605469-41 7.527343-55.574219 14.34375-23.855469 11.160156-28.863281 24.429687-28.863281 33.59375v243.425781c0 32.824219 60.332031 50 119.929688 50 58.28125 0 117.253906-16.425781 119.832031-47.851562.152343-.691407.238281-1.410157.238281-2.148438zm-155.570312 81.347656c-23.957032 2.601563-48.125 8.203125-64.429688 17.363281v-69.867187c2.746094 1.691406 5.84375 3.355469 9.351562 4.972656 14.53125 6.710937 33.460938 11.546875 55.078126 14.117187zm0 20.125v9.316406c0 13.617188 11.078124 24.695313 24.695312 24.695313h21.609375c13.617187 0 24.695313-11.078125 24.695313-24.695313v-9.316406c45.742187 5.257813 64.429687 18.863281 64.429687 24.011719 0 2.964844-6.871094 9.914062-25.308594 15.953125-19.785156 6.480469-46.285156 10.046875-74.621093 10.046875-28.332032 0-54.835938-3.566406-74.621094-10.046875-18.4375-6.039063-25.308594-12.988281-25.308594-15.953125 0-5.148438 18.6875-18.75 64.429688-24.011719zm71-53.539063c21.640624-2.574218 40.589843-7.414062 55.128906-14.136718 3.546875-1.640625 6.671875-3.324219 9.441406-5.039063v70.023438c-16.300781-9.203125-40.535156-14.828125-64.570312-17.433594zm64.429687-47.933593c0 8.605469-22.332031 22.378906-64.429687 27.789062v-55.574219c42.089843 5.417969 64.429687 19.238282 64.429687 27.785157zm-115.429687-47.679688c0-8.546875 6.953124-15.5 15.5-15.5 8.546874 0 15.5 6.953125 15.5 15.5v158.46875c0 2.589844-2.105469 4.695313-4.695313 4.695313h-21.609375c-2.589844 0-4.695312-2.105469-4.695312-4.695313zm-20 19.894531v55.566407c-18.394532-2.382813-34.738282-6.597657-46.695313-12.121094-13.074219-6.035156-17.734375-12.046875-17.734375-15.660156 0-8.542969 22.34375-22.363281 64.429688-27.785157zm109.8125 290.097657c-19.691407 7.167969-46.085938 11.113281-74.3125 11.113281-28.226563 0-54.617188-3.945312-74.3125-11.113281-17.695313-6.4375-25.617188-14.125-25.617188-18.886719v-.148438c0-.015624.003906-.03125.003906-.046874.101563-2.554688 2.390625-5.695313 6.445313-8.847657 4.359375-3.390625 5.148437-9.671875 1.757812-14.035156-2.039062-2.621094-5.121093-3.9375-8.207031-3.847656v-64.199219c5.070312 2.855469 11.335938 5.605469 19.085938 8.144531 21.738281 7.117188 50.453124 11.039063 80.84375 11.039063 30.390624 0 59.105468-3.921875 80.84375-11.039063 7.820312-2.5625 14.132812-5.339843 19.226562-8.222656v64.640625c-2.929688.003906-5.828125 1.285156-7.796875 3.753906-3.445313 4.316406-2.742187 10.609375 1.574219 14.054688 2.273437 1.8125 6.082031 5.363281 6.082031 8.753906 0 4.761719-7.921875 12.449219-25.617187 18.886719zm0 0"/><path d="m461.230469 420.546875c-6.398438-1.777344-13.292969-3.308594-20.496094-4.554687-5.449219-.9375-10.617187 2.710937-11.558594 8.152343-.9375 5.441407 2.710938 10.617188 8.152344 11.558594 6.550781 1.128906 12.792969 2.515625 18.550781 4.113281.894532.246094 1.796875.367188 2.679688.367188 4.382812 0 8.402344-2.902344 9.632812-7.328125 1.476563-5.320313-1.640625-10.832031-6.960937-12.308594zm0 0"/><path d="m402.566406 412.179688c-6.808594-.230469-13.863281-.238282-20.660156-.023438-5.519531.179688-9.847656 4.796875-9.671875 10.316406.175781 5.519532 4.792969 9.824219 10.316406 9.675782 6.359375-.207032 12.964844-.195313 19.34375.019531.113281.003906.226563.003906.34375.003906 5.367188 0 9.804688-4.257813 9.988281-9.660156.183594-5.519531-4.140624-10.148438-9.660156-10.332031zm0 0"/><path d="m343.742188 415.886719c-7.199219 1.226562-14.097657 2.734375-20.5 4.488281-5.328126 1.460938-8.460938 6.960938-7.003907 12.285156 1.21875 4.445313 5.246094 7.363282 9.640625 7.363282.875 0 1.761719-.117188 2.644532-.359376 5.773437-1.578124 12.023437-2.945312 18.574218-4.0625 5.445313-.925781 9.105469-6.089843 8.179688-11.535156-.925782-5.441406-6.089844-9.113281-11.535156-8.179687zm0 0"/><path d="m254.351562 20.207031-17.28125-17.277343c-3.90625-3.90625-10.234374-3.90625-14.140624 0l-17.28125 17.277343c-3.902344 3.90625-3.902344 10.238281 0 14.144531 3.90625 3.902344 10.238281 3.902344 14.144531 0l.207031-.210937v56.144531c0 5.523438 4.476562 10 10 10s10-4.476562 10-10v-56.144531l.207031.207031c1.953125 1.953125 4.511719 2.929688 7.070313 2.929688s5.121094-.976563 7.070312-2.929688c3.90625-3.902344 3.90625-10.234375.003906-14.140625zm0 0"/><path d="m282 64.21875c2.628906 0 5.210938-1.058594 7.070312-2.929688 1.859376-1.859374 2.929688-4.441406 2.929688-7.070312s-1.070312-5.210938-2.929688-7.070312c-1.859374-1.859376-4.441406-2.929688-7.070312-2.929688s-5.210938 1.070312-7.070312 2.929688c-1.859376 1.859374-2.929688 4.441406-2.929688 7.070312s1.070312 5.210938 2.929688 7.070312c1.859374 1.871094 4.441406 2.929688 7.070312 2.929688zm0 0"/><path d="m282 164.390625c2.652344 0 5.195312-1.054687 7.070312-2.929687l17.277344-17.28125c3.90625-3.90625 3.90625-10.234376 0-14.140626-3.902344-3.90625-10.234375-3.90625-14.140625 0l-.207031.207032v-39.960938c0-5.519531-4.476562-10-10-10s-10 4.480469-10 10v39.960938l-.207031-.207032c-3.902344-3.902343-10.238281-3.902343-14.140625 0-3.90625 3.90625-3.90625 10.234376 0 14.144532l17.277344 17.277344c1.875 1.875 4.417968 2.929687 7.070312 2.929687zm0 0"/></svg>