<svg height="512pt" viewBox="0 -126 512 512" width="512pt" xmlns="http://www.w3.org/2000/svg"><path d="m279 112c-67.503906 0-86.5625 94.140625-136.160156 138h272.320312c-5.257812-4.648438-10.171875-9.863281-14.839844-15.472656-35.269531-25.335938-55.199218-76.277344-82.980468-110.402344-10.996094-7.570312-23.496094-12.125-38.339844-12.125zm0 0" fill="#feda9b"/><path d="m240.128906 66c0 8.582031 2.710938 16.527344 7.3125 23.042969 2.796875.617187 5.703125.957031 8.6875.957031 22.089844 0 40-17.910156 40-40 0-8.585938-2.714844-16.527344-7.316406-23.042969-2.796875-.621093-5.703125-.957031-8.683594-.957031-22.09375 0-40 17.90625-40 40zm0 0" fill="#7d9bff"/><path d="m502 240h-54c-44.949219 0-68.492188-38.171875-93.417969-78.578125-18.339843-29.734375-37.148437-60.214844-65.425781-73.929687 10.394531-9.167969 16.972656-22.574219 16.972656-37.492188 0-27.570312-22.433594-50-50-50-27.570312 0-50 22.429688-50 50 0 14.875 6.535156 28.246094 16.878906 37.414062-28.371093 13.675782-47.214843 44.214844-65.589843 74.007813-24.925781 40.40625-48.46875 78.578125-93.417969 78.578125h-54c-5.523438 0-10 4.476562-10 10 0 5.519531 4.476562 10 10 10h186.332031c5.523438 0 10-4.480469 10-10 0-5.523438-4.476562-10-10-10h-75.410156c22.285156-17.453125 38.496094-43.722656 53.519531-68.078125 22.8125-36.988281 44.359375-71.921875 81.558594-71.921875s58.746094 34.933594 81.558594 71.921875c15.023437 24.355469 31.234375 50.625 53.519531 68.078125h-112.078125c-5.523438 0-10 4.476562-10 10 0 5.519531 4.476562 10 10 10h223c5.523438 0 10-4.480469 10-10 0-5.523438-4.476562-10-10-10zm-245.871094-220c16.539063 0 30 13.457031 30 30 0 16.539062-13.460937 30-30 30-16.542968 0-30-13.460938-30-30 0-16.542969 13.457032-30 30-30zm0 0"/><path d="m238.328125 240c-2.628906 0-5.207031 1.066406-7.066406 2.929688-1.863281 1.859374-2.933594 4.4375-2.933594 7.070312 0 2.628906 1.070313 5.210938 2.933594 7.066406 1.859375 1.863282 4.4375 2.933594 7.066406 2.933594 2.632813 0 5.210937-1.070312 7.070313-2.933594 1.871093-1.855468 2.929687-4.4375 2.929687-7.066406 0-2.632812-1.058594-5.210938-2.929687-7.070312-1.859376-1.863282-4.4375-2.929688-7.070313-2.929688zm0 0"/><path d="m90.753906 131.847656c2.558594 0 5.121094-.980468 7.070313-2.929687l47.25-47.25c1.289062 4.035156 5.066406 6.960937 9.527343 6.960937 5.523438 0 10-4.476562 10-10v-20.628906c0-5.523438-4.476562-10-10-10h-20.628906c-5.523437 0-10 4.476562-10 10 0 4.460938 2.925782 8.238281 6.960938 9.523438l-47.25 47.25c-3.90625 3.90625-3.90625 10.238281 0 14.144531 1.953125 1.949219 4.511718 2.929687 7.070312 2.929687zm0 0"/><path d="m392.253906 112.320312c-4.035156 1.285157-6.960937 5.0625-6.960937 9.523438 0 5.523438 4.476562 10 10 10h20.628906c5.523437 0 10-4.476562 10-10v-20.628906c0-5.523438-4.476563-10-10-10-4.460937 0-8.238281 2.925781-9.523437 6.960937l-47.25-47.25c-3.90625-3.902343-10.238282-3.902343-14.144532 0-3.902344 3.90625-3.902344 10.238281 0 14.144531zm0 0"/></svg>