<svg height="512pt" viewBox="0 -54 512.00077 512" width="512pt" xmlns="http://www.w3.org/2000/svg"><path d="m339.261719 10h-127.039063c59.9375 120.648438 59.777344 262.460938-.488281 382.996094h127.039063c-59.9375-120.648438-59.777344-262.460938.488281-382.996094zm0 0" fill="#ffc66c"/><path d="m10 116.117188c2.628906 0 5.210938-1.058594 7.070312-2.929688 1.859376-1.859375 2.929688-4.429688 2.929688-7.070312 0-2.628907-1.070312-5.207032-2.929688-7.070313-1.859374-1.859375-4.441406-2.929687-7.070312-2.929687s-5.210938 1.070312-7.070312 2.929687c-1.859376 1.863281-2.929688 4.441406-2.929688 7.070313 0 2.640624 1.070312 5.210937 2.929688 7.070312 1.859374 1.871094 4.441406 2.929688 7.070312 2.929688zm0 0"/><path d="m327.429688 194.929688c-1.863282 1.859374-2.929688 4.4375-2.929688 7.070312 0 2.628906 1.066406 5.207031 2.929688 7.066406 1.859374 1.859375 4.4375 2.933594 7.066406 2.933594 2.632812 0 5.210937-1.070312 7.070312-2.933594 1.863282-1.859375 2.929688-4.4375 2.929688-7.066406 0-2.632812-1.066406-5.210938-2.929688-7.070312-1.859375-1.863282-4.4375-2.929688-7.070312-2.929688-2.628906 0-5.207032 1.066406-7.066406 2.929688zm0 0"/><path d="m452.898438 226.703125c1.953124 1.953125 4.515624 2.929687 7.074218 2.929687s5.117188-.976562 7.070313-2.929687l14.703125-14.703125h20.25c5.523437 0 10-4.480469 10-10 0-5.523438-4.476563-10-10-10h-20.25l-14.703125-14.707031c-3.90625-3.902344-10.238281-3.902344-14.144531 0-3.902344 3.90625-3.902344 10.238281 0 14.144531l.5625.5625h-78.964844c-5.519532 0-10 4.476562-10 10 0 5.519531 4.480468 10 10 10h78.964844l-.5625.5625c-3.902344 3.902344-3.902344 10.234375 0 14.140625zm0 0"/><path d="m505.976562 328.824219c-8.035156-3.484375-16.128906-6.742188-24.28125-9.785157l-11.207031-18.289062c-2.886719-4.707031-9.042969-6.183594-13.75-3.300781-4.050781 2.484375-5.703125 7.386719-4.25 11.707031-45.136719-13.71875-91.84375-20.84375-139.496093-21.257812-11.742188-56.589844-11.742188-115.214844 0-171.804688 47.652343-.414062 94.359374-7.535156 139.496093-21.253906-1.453125 4.320312.195313 9.222656 4.25 11.703125 1.628907 1 3.433594 1.476562 5.214844 1.476562 3.363281 0 6.648437-1.699219 8.535156-4.777343l11.207031-18.285157c8.152344-3.042969 16.246094-6.300781 24.28125-9.785156 5.066407-2.195313 7.394532-8.085937 5.195313-13.152344-2.195313-5.066406-8.085937-7.390625-13.152344-5.195312-7.257812 3.148437-14.570312 6.101562-21.929687 8.875l-17.132813-10.5c-4.707031-2.886719-10.867187-1.40625-13.75 3.300781-2.886719 4.710938-1.410156 10.867188 3.300781 13.753906l3.121094 1.910156c-43.316406 13.683594-88.171875 21.007813-133.957031 21.867188 7.253906-27.984375 17.425781-55.339844 30.535156-81.558594 1.550781-3.101562 1.386719-6.78125-.4375-9.730468-1.820312-2.945313-5.039062-4.742188-8.503906-4.742188h-166.53125c-3.464844 0-6.683594 1.796875-8.503906 4.742188-1.824219 2.949218-1.988281 6.628906-.4375 9.730468 13.121093 26.246094 23.304687 53.636719 30.5625 81.652344h-31.75l-14.832031-14.832031c-3.90625-3.90625-10.238282-3.90625-14.144532 0-3.902344 3.902343-3.902344 10.234375 0 14.140625l.691406.691406h-87.988281c-5.523437 0-10 4.476562-10 10 0 5.519531 4.476563 10 10 10h87.730469l-.4375.433594c-3.902344 3.90625-3.902344 10.238281 0 14.144531 1.953125 1.953125 4.511719 2.929687 7.070312 2.929687 2.5625 0 5.121094-.976562 7.074219-2.929687l14.578125-14.578125h36.664063c5.195312 25.050781 8.089843 50.503906 8.683593 76h-45.09375l-14.832031-14.832031c-3.90625-3.902344-10.238281-3.902344-14.144531 0-3.902344 3.90625-3.902344 10.238281 0 14.144531l.691406.6875h-124.316406c-5.523438 0-10 4.480469-10 10 0 5.523438 4.476562 10 10 10h124.0625l-.433594.4375c-3.90625 3.90625-3.90625 10.238281 0 14.140625 1.953125 1.953125 4.511719 2.929687 7.070313 2.929687 2.558593 0 5.117187-.976562 7.070312-2.929687l14.578125-14.574219h45.34375c-.605468 25.410156-3.5 50.777344-8.679687 75.746094h-36.664063l-14.578125-14.578125c-3.90625-3.902344-10.238281-3.902344-14.144531 0-3.902344 3.90625-3.902344 10.238281 0 14.144531l.4375.433594h-124.0625c-5.523438 0-10 4.480469-10 10 0 5.523438 4.476562 10 10 10h124.316406l-.6875.691406c-3.90625 3.902344-3.90625 10.234375 0 14.140625 1.953125 1.953125 4.511719 2.929688 7.070313 2.929688 2.558593 0 5.117187-.976563 7.070312-2.929688l14.832031-14.832031h31.75c-7.257812 28.015625-17.4375 55.40625-30.5625 81.652344-1.550781 3.101562-1.382812 6.78125.4375 9.730468 1.824219 2.945313 5.042969 4.742188 8.507813 4.742188h166.527344c3.464843 0 6.683593-1.796875 8.507812-4.742188 1.820313-2.949218 1.988281-6.628906.4375-9.730468-13.109375-26.21875-23.28125-53.574219-30.539062-81.558594 45.785156.855469 90.640625 8.183594 133.957031 21.867188l-3.121094 1.910156c-4.710937 2.886718-6.1875 9.042968-3.300781 13.753906 1.886719 3.078125 5.171875 4.773438 8.535156 4.773438 1.78125 0 3.585938-.476563 5.214844-1.472657l17.132813-10.5c7.359374 2.769531 14.675781 5.726563 21.933593 8.875 1.292969.5625 2.644531.828125 3.972657.828125 3.863281 0 7.542968-2.253906 9.179687-6.027344 2.195313-5.066406-.128906-10.957031-5.195313-13.152343zm-313 55.171875 98.949219-98.949219c.902344 4.671875 1.878907 9.328125 2.929688 13.964844.082031.71875.242187 1.414062.46875 2.078125 2.058593 8.890625 4.398437 17.714844 7 26.460937l-56.445313 56.445313zm35.082032-181.863282s0-.003906 0-.007812c0 0 0-.003906 0-.007812 0-.039063 0-.078126 0-.117188 0-5.289062-.105469-10.582031-.300782-15.867188l63.46875-63.46875c-3.65625 19.855469-5.957031 39.957032-6.851562 60.109376l-58.070312 58.070312c1.15625-12.875 1.75-25.792969 1.753906-38.710938zm-5.875 71.117188 61.867187-61.867188c.359375 16.507813 1.65625 33 3.878907 49.375l-83.644532 83.644532c7.917969-23.164063 13.910156-46.996094 17.898438-71.152344zm77.328125-186.957031c-.429688.308593-.84375.648437-1.226563 1.03125l-72.308594 72.308593c-1.519531-15.519531-3.863281-30.964843-7.015624-46.242187l93.390624-93.390625h11.0625c-9.722656 21.398438-17.714843 43.597656-23.902343 66.292969zm-15.445313-66.292969-70.46875 70.46875c-6.332031-24.148438-14.695312-47.761719-25.015625-70.46875zm-9.902344 363.996094 35.109376-35.109375c4.210937 11.902343 8.921874 23.625 14.140624 35.109375zm0 0"/></svg>