<svg height="511pt" viewBox="0 0 511 511.99925" width="511pt" xmlns="http://www.w3.org/2000/svg"><path d="m394.378906 202.042969c0-64.699219-32.007812-121.921875-81.046875-156.703125-25.359375-12.351563-53.839843-19.285156-83.941406-19.285156-106.03125 0-191.988281 85.957031-191.988281 191.988281 0 64.699219 32.007812 121.921875 81.050781 156.707031 25.355469 12.347656 53.835937 19.28125 83.9375 19.28125 106.03125 0 191.988281-85.957031 191.988281-191.988281zm-164.988281 164.988281c-33.34375 0-64.121094-10.953125-88.949219-29.453125-51.359375-23.515625-87.039062-75.355469-87.039062-135.535156 0-82.285157 66.703125-148.988281 148.988281-148.988281 33.34375 0 64.125 10.953124 88.949219 29.457031 51.359375 23.511719 87.039062 75.351562 87.039062 135.53125 0 82.285156-66.703125 148.988281-148.988281 148.988281zm0 0" fill="#a7c5ff"/><path d="m352.375 338.644531-34.382812 34.382813 117.527343 117.527344c13.980469 13.976562 35.894531 15.171874 51.234375 3.597656 1.359375-11.503906-2.359375-23.488282-11.183594-32.3125zm0 0" fill="#ff5d5d"/><path d="m401.742188 346.007812-55.378907 55.378907-34.03125-34.027344 55.382813-55.378906zm0 0" fill="#fff"/><g fill="#6a80ff"><path d="m246.769531 202.019531c0-57.972656-19.867187-104.96875-44.378906-104.96875-24.507813 0-44.375 46.996094-44.375 104.96875 0 57.96875 19.867187 104.964844 44.375 104.964844 24.511719 0 44.378906-46.996094 44.378906-104.964844zm0 0"/><path d="m180.199219 163.59375c-50.207031 28.984375-80.96875 69.691406-68.714844 90.914062 12.253906 21.222657 62.886719 14.929688 113.089844-14.054687s80.96875-69.691406 68.714843-90.914063c-12.253906-21.222656-62.886718-14.929687-113.089843 14.054688zm0 0"/><path d="m180.210938 240.445312c50.203124 28.984376 100.835937 35.277344 113.089843 14.050782 12.253907-21.222656-18.511719-61.925782-68.714843-90.910156-50.203126-28.988282-100.835938-35.28125-113.089844-14.054688-12.253906 21.222656 18.507812 61.925781 68.714844 90.914062zm0 0"/></g><path d="m331.300781 73.585938c1.957031 1.976562 4.535157 2.96875 7.113281 2.96875 2.539063 0 5.082032-.964844 7.027344-2.890626 3.929688-3.882812 3.964844-10.214843.078125-14.144531l-.28125-.285156c-3.894531-3.914063-10.226562-3.929687-14.144531-.035156-3.914062 3.894531-3.929688 10.222656-.035156 14.140625zm0 0"/><path d="m202.390625 43.054688c-87.664063 0-158.988281 71.320312-158.988281 158.988281s71.324218 158.992187 158.988281 158.992187c87.667969 0 158.992187-71.324218 158.992187-158.992187s-71.324218-158.988281-158.992187-158.988281zm0 297.980468c-76.636719 0-138.988281-62.351562-138.988281-138.992187s62.351562-138.988281 138.988281-138.988281c76.640625 0 138.992187 62.347656 138.992187 138.988281s-62.351562 138.992187-138.992187 138.992187zm0 0"/><path d="m497.972656 428.101562-122.289062-122.289062c39.5-66.015625 38.773437-150.804688-5.816406-216.753906-3.09375-4.574219-9.308594-5.773438-13.886719-2.679688-4.574219 3.09375-5.773438 9.308594-2.679688 13.882813 48.675781 71.988281 39.328125 168.914062-22.222656 230.464843-70.957031 70.957032-186.414063 70.957032-257.371094 0-70.957031-70.957031-70.957031-186.410156 0-257.367187 62.015625-62.015625 159.402344-71.046875 231.566407-21.472656 4.554687 3.125 10.777343 1.972656 13.90625-2.582031 3.125-4.550782 1.972656-10.773438-2.582032-13.902344-80.105468-55.027344-188.203125-45.011719-257.03125 23.816406-78.753906 78.753906-78.753906 206.898438 0 285.652344 39.375 39.375 91.101563 59.0625 142.824219 59.0625 35.980469 0 71.953125-9.535156 103.78125-28.589844l122.277344 122.28125c9.585937 9.582031 22.171875 14.375 34.761719 14.375 12.589843 0 25.179687-4.792969 34.761718-14.375 9.285156-9.285156 14.398438-21.632812 14.398438-34.761719 0-13.128906-5.113282-25.476562-14.398438-34.761719zm-152.753906-83.230468c6.984375-6.984375 13.351562-14.386719 19.121094-22.121094l23.257812 23.257812-41.238281 41.238282-23.253906-23.25c7.710937-5.757813 15.109375-12.125 22.113281-19.125zm138.613281 138.613281c-11.371093 11.371094-29.871093 11.367187-41.238281 0l-82.09375-82.09375 41.238281-41.242187 82.09375 82.097656c5.507813 5.507812 8.542969 12.828125 8.542969 20.617187-.003906 7.789063-3.035156 15.113281-8.542969 20.621094zm0 0"/><path d="m249.75 127.808594c-1.625.199218-3.269531.449218-4.929688.71875-.59375-1.574219-1.203124-3.121094-1.839843-4.625-10.046875-23.765625-24.460938-36.851563-40.589844-36.851563s-30.542969 13.085938-40.589844 36.851563c-.636719 1.503906-1.246093 3.050781-1.839843 4.625-1.660157-.273438-3.304688-.519532-4.925782-.71875-25.601562-3.179688-44.144531 2.761718-52.207031 16.726562-8.066406 13.96875-3.9375 32.996094 11.617187 53.574219.984376 1.304687 2.019532 2.609375 3.085938 3.910156-1.066406 1.300781-2.101562 2.601563-3.085938 3.90625-15.554687 20.582031-19.683593 39.609375-11.617187 53.578125 6.640625 11.503906 20.390625 17.5625 39.347656 17.5625 4.050781 0 8.347657-.277344 12.859375-.835937 1.621094-.203125 3.265625-.449219 4.925782-.71875.59375 1.570312 1.203124 3.117187 1.839843 4.625 10.046875 23.761719 24.460938 36.847656 40.589844 36.847656s30.542969-13.085937 40.589844-36.847656c.636719-1.507813 1.246093-3.054688 1.839843-4.625 1.660157.269531 3.304688.515625 4.929688.71875 4.511719.558593 8.804688.835937 12.859375.835937 18.949219 0 32.703125-6.058594 39.347656-17.5625 8.0625-13.96875 3.9375-32.996094-11.621093-53.578125-.984376-1.304687-2.019532-2.605469-3.082032-3.90625 1.0625-1.300781 2.097656-2.605469 3.082032-3.910156 15.558593-20.578125 19.683593-39.605469 11.621093-53.574219-8.066406-13.96875-26.601562-19.90625-52.207031-16.726562zm2.464844 19.847656c3.65625-.457031 7.117187-.679688 10.324218-.679688 11.160157 0 19.28125 2.683594 22.097657 7.558594 3.632812 6.289063-.035157 18.464844-11.132813 32.769532-5.636718-5.355469-11.851562-10.597657-18.550781-15.632813-1.007813-8.292969-2.433594-16.269531-4.246094-23.804687.5-.066407 1.011719-.152344 1.507813-.210938zm-32.632813 84.132812c-5.710937 3.296876-11.464843 6.3125-17.191406 9.019532-5.722656-2.707032-11.476563-5.722656-17.1875-9.019532-5.871094-3.390624-11.332031-6.863281-16.417969-10.367187-.492187-6.15625-.769531-12.621094-.769531-19.402344 0-6.785156.277344-13.246093.769531-19.40625 5.085938-3.503906 10.546875-6.976562 16.417969-10.367187 5.710937-3.296875 11.464844-6.308594 17.1875-9.019532 5.726563 2.710938 11.480469 5.722657 17.191406 9.019532 5.871094 3.390625 11.332031 6.863281 16.417969 10.367187.492188 6.160157.769531 12.621094.769531 19.40625 0 6.78125-.277343 13.246094-.769531 19.402344-5.085938 3.503906-10.546875 6.976563-16.417969 10.367187zm12.667969 15.742188c-.320312 1.488281-.652344 2.949219-1 4.378906-1.425781-.417968-2.855469-.855468-4.296875-1.320312.875-.492188 1.753906-.976563 2.625-1.480469.898437-.519531 1.78125-1.050781 2.671875-1.578125zm-54.417969 3.058594c-1.441406.464844-2.875.902344-4.296875 1.320312-.347656-1.429687-.683594-2.890625-1.003906-4.378906.890625.527344 1.773438 1.058594 2.671875 1.578125.875.503906 1.753906.988281 2.628906 1.480469zm-29.785156-45.46875c-1.148437-1.039063-2.261719-2.074219-3.339844-3.101563 1.078125-1.03125 2.191407-2.066406 3.339844-3.105469-.011719 1.035157-.03125 2.066407-.03125 3.105469 0 1.039063.019531 2.066407.03125 3.101563zm24.484375-48.613282c.320312-1.492187.65625-2.949218 1.003906-4.378906 1.421875.414063 2.855469.855469 4.296875 1.316406-.875.492188-1.753906.976563-2.628906 1.480469-.898437.519531-1.78125 1.054688-2.671875 1.582031zm54.421875-3.0625c1.441406-.460937 2.875-.902343 4.296875-1.316406.347656 1.429688.679688 2.886719 1 4.378906-.890625-.527343-1.773438-1.058593-2.671875-1.578124-.871094-.507813-1.75-.992188-2.625-1.484376zm29.78125 45.46875c1.148437 1.039063 2.261719 2.074219 3.34375 3.105469-1.082031 1.027344-2.195313 2.0625-3.34375 3.101563.011719-1.035156.035156-2.066406.035156-3.101563 0-1.039062-.023437-2.070312-.035156-3.105469zm-54.34375-91.863281c7.265625 0 15.976563 9.265625 22.816406 26.027344-7.457031 2.203125-15.101562 4.964844-22.816406 8.25-7.710937-3.285156-15.355469-6.046875-22.8125-8.25 6.839844-16.761719 15.550781-26.027344 22.8125-26.027344zm-82.242187 47.484375c2.8125-4.878906 10.933593-7.558594 22.097656-7.558594 3.207031 0 6.667968.222657 10.324218.679688.496094.058594 1.003907.144531 1.507813.210938-1.8125 7.535156-3.238281 15.511718-4.246094 23.804687-6.699219 5.035156-12.914062 10.277344-18.550781 15.632813-11.097656-14.304688-14.765625-26.480469-11.132812-32.769532zm32.421874 101.847656c-16.375 2.03125-28.800781-.605468-32.421874-6.878906-3.632813-6.292968.035156-18.46875 11.132812-32.773437 5.636719 5.355469 11.851562 10.597656 18.550781 15.632812 1.007813 8.292969 2.433594 16.269531 4.246094 23.804688-.503906.070312-1.011719.152343-1.507813.214843zm49.820313 40.605469c-7.261719 0-15.972656-9.265625-22.8125-26.03125 7.457031-2.199219 15.101563-4.964843 22.8125-8.246093 7.714844 3.28125 15.359375 6.042968 22.816406 8.246093-6.839843 16.765625-15.550781 26.03125-22.816406 26.03125zm82.246094-47.484375c-3.625 6.277344-16.050781 8.914063-32.421875 6.878906-.496094-.0625-1.007813-.144531-1.507813-.214843 1.8125-7.535157 3.238281-15.511719 4.246094-23.804688 6.699219-5.035156 12.914063-10.277343 18.546875-15.632812 11.101562 14.304687 14.769531 26.480469 11.136719 32.773437zm0 0"/><path d="m202.390625 192.023438c-2.628906 0-5.207031 1.0625-7.066406 2.917968-1.863281 1.871094-2.929688 4.441406-2.929688 7.082032 0 2.628906 1.066407 5.210937 2.929688 7.070312 1.859375 1.859375 4.4375 2.929688 7.066406 2.929688 2.632813 0 5.210937-1.070313 7.070313-2.929688 1.859374-1.871094 2.929687-4.441406 2.929687-7.070312 0-2.628907-1.070313-5.210938-2.929687-7.082032-1.859376-1.855468-4.441407-2.917968-7.070313-2.917968zm0 0"/></svg>