<svg height="512pt" viewBox="0 0 512 512" width="512pt" xmlns="http://www.w3.org/2000/svg"><path d="m366.882812 155.066406h-11v-50h11c13.804688 0 25 11.195313 25 25 0 13.808594-11.195312 25-25 25zm0 0" fill="#fcc49d"/><path d="m145.117188 155.066406h11v-50h-11c-13.804688 0-25 11.195313-25 25 0 13.808594 11.195312 25 25 25zm0 0" fill="#fcc49d"/><path d="m222.175781 248.332031h95.648438v250.667969h-95.648438zm0 0" fill="#6a80ff"/><path d="m319.824219 256.332031h61v245.667969h121.175781v-88.863281c0-84.070313-61.667969-153.730469-142.230469-166.226563h-120.546875c-92.90625 0-168.222656 75.316406-168.222656 168.226563v86.863281h125.175781v-247.667969h123.648438zm0 0" fill="#d8d8e4"/><g fill="#fff"><path d="m317.824219 244.910156-61.824219 128.546875-61.824219-128.546875zm0 0"/><path d="m317.824219 244.910156v257.089844l91.03125-104.03125h-45.515625l38.90625-138.53125zm0 0"/><path d="m194.175781 244.910156v257.089844l-91.03125-104.03125h45.515625l-38.253906-138.820312zm0 0"/></g><path d="m291.429688 134.019531c0 5.246094 1.304687 10.183594 3.605468 14.515625 2.269532.53125 4.628906.816406 7.058594.816406 17.121094 0 31-13.878906 31-31 0-5.246093-1.308594-10.183593-3.609375-14.515624-2.265625-.527344-4.628906-.816407-7.054687-.816407-17.121094 0-31 13.878907-31 31zm0 0" fill="#a7c5ff"/><path d="m331.203125 44.09375c-14.980469-8.949219-32.488281-14.09375-51.203125-14.09375-55.230469 0-100 44.769531-100 100v34.910156c0 25.25 9.363281 48.3125 24.796875 65.910156 14.980469 8.945313 32.488281 14.089844 51.203125 14.089844 55.230469 0 100-44.769531 100-100v-34.910156c0-25.25-9.363281-48.308594-24.796875-65.90625zm-117.632813 103.925781c-17.121093 0-31-13.878906-31-31 0-17.121093 13.878907-31 31-31 17.121094 0 31 13.878907 31 31 0 17.121094-13.878906 31-31 31zm88.859376.332031c-17.121094 0-31-13.878906-31-31 0-17.121093 13.878906-31 31-31 17.121093 0 31 13.878907 31 31 0 17.121094-13.878907 31-31 31zm0 0" fill="#fcc49d"/><path d="m199.90625 136.6875c0 3.722656.65625 7.289062 1.859375 10.59375 3.457031 1.335938 7.210937 2.074219 11.140625 2.074219 17.121094 0 31-13.878907 31-31 0-3.722657-.660156-7.292969-1.859375-10.597657-3.460937-1.332031-7.214844-2.070312-11.140625-2.070312-17.121094 0-31 13.878906-31 31zm0 0" fill="#a7c5ff"/><path d="m226.984375 193c-8.5625 0-14.472656-8.6875-11.203125-16.601562 6.523438-15.789063 22.074219-26.898438 40.21875-26.898438s33.695312 11.109375 40.21875 26.898438c3.269531 7.914062-2.640625 16.601562-11.203125 16.601562zm0 0" fill="#d8d8e4"/><path d="m256 426.03125c2.628906 0 5.210938-1.070312 7.070312-2.933594 1.859376-1.859375 2.929688-4.4375 2.929688-7.066406 0-2.632812-1.070312-5.210938-2.929688-7.070312-1.859374-1.859376-4.441406-2.929688-7.070312-2.929688s-5.210938 1.066406-7.070312 2.929688c-1.859376 1.859374-2.929688 4.429687-2.929688 7.070312 0 2.628906 1.070312 5.207031 2.929688 7.066406 1.859374 1.863282 4.441406 2.933594 7.070312 2.933594zm0 0"/><path d="m256 452c-2.640625 0-5.210938 1.070312-7.070312 2.929688-1.859376 1.859374-2.929688 4.441406-2.929688 7.070312s1.070312 5.210938 2.929688 7.070312c1.859374 1.859376 4.441406 2.929688 7.070312 2.929688s5.210938-1.070312 7.070312-2.929688c1.859376-1.859374 2.929688-4.441406 2.929688-7.070312s-1.070312-5.210938-2.929688-7.070312c-1.859374-1.859376-4.429687-2.929688-7.070312-2.929688zm0 0"/><path d="m333.777344 234.910156h-14.605469c23.058594-16.230468 39.625-41.089844 44.972656-69.84375h2.738281c19.296876 0 35-15.699218 35-35 0-19.296875-15.703124-35-35-35h-1.898437c-7.3125-53.613281-53.394531-95.066406-108.984375-95.066406s-101.671875 41.453125-108.980469 95.066406h-1.898437c-19.300782 0-35 15.703125-35 35 0 19.300782 15.699218 35 35 35h2.738281c5.34375 28.753906 21.910156 53.613282 44.96875 69.84375h-14.601563c-98.277343 0-178.226562 79.953125-178.226562 178.226563v88.863281c0 5.523438 4.476562 10 10 10h492c5.523438 0 10-4.476562 10-10v-88.863281c0-98.273438-79.949219-178.226563-178.222656-178.226563zm-31.859375 20-45.917969 95.476563-45.917969-95.476563zm-54.929688 122.878906c1.664063 3.464844 5.167969 5.667969 9.011719 5.667969s7.347656-2.203125 9.011719-5.667969l42.8125-89.015624v203.226562h-103.648438v-203.226562zm134.894531-247.722656c0 8.273438-6.730468 15-15 15h-.886718c0-.050781.003906-.101562.003906-.15625v-29.84375h.882812c8.269532 0 15 6.730469 15 15zm-125.882812-110.066406c46.023438 0 84.085938 34.726562 89.367188 79.355469h-6.957032c-6.863281-13.066407-20.5625-22-36.316406-22-15.75 0-29.449219 8.933593-36.3125 22h-16.5625c-6.863281-13.066407-20.558594-22-36.3125-22s-29.453125 8.933593-36.3125 22h-9.960938c5.28125-44.628907 43.34375-79.355469 89.367188-79.355469zm5.121094 99.355469c.191406 7.902343 2.625 15.257812 6.695312 21.453125-3.824218-.859375-7.78125-1.308594-11.816406-1.308594-2.847656 0-5.652344.226562-8.398438.660156 3.820313-6.058594 6.09375-13.175781 6.277344-20.808594h7.242188zm-27.214844-1c0 11.578125-9.421875 21-21 21-11.582031 0-21-9.421875-21-21 0-11.582031 9.417969-21 21-21 11.578125 0 21 9.417969 21 21zm-8.882812 61.863281c5.199218-12.585938 17.359374-20.71875 30.976562-20.71875s25.777344 8.132812 30.976562 20.71875c.261719.628906.195313 1.246094-.195312 1.832031-.289062.433594-.832031.949219-1.761719.949219h-58.035156c-.933594 0-1.472656-.515625-1.761719-.949219-.394531-.585937-.460937-1.203125-.199218-1.832031zm56.070312-61.863281c0-11.582031 9.421875-21 21-21 11.582031 0 21 9.417969 21 21 0 11.578125-9.417969 21-21 21-11.578125 0-21-9.421875-21-21zm-135.976562 26.710937c-8.269532 0-15-6.726562-15-15 0-8.269531 6.730468-15 15-15h.882812v29.84375c0 .054688.003906.105469.003906.15625zm21 4.5v-30.214844h5.8125c.535156 22.148438 18.703124 40 40.976562 40 .503906 0 1.003906-.019531 1.503906-.035156-3.191406 3.949219-5.859375 8.394532-7.871094 13.261719-2.800781 6.78125-2.03125 14.476563 2.058594 20.59375 4.113282 6.152344 10.988282 9.828125 18.386719 9.828125h58.035156c7.394531 0 14.269531-3.675781 18.386719-9.828125 4.089844-6.117187 4.855469-13.8125 2.058594-20.59375-2.054688-4.964844-4.785156-9.492187-8.0625-13.5 1.542968.175781 3.105468.277344 4.691406.277344 22.273438 0 40.441406-17.855469 40.976562-40h2.8125v30.210937c-2.429687 47.472656-41.816406 85.347656-89.882812 85.347656s-87.449219-37.878906-89.882812-85.347656zm18.058593 105.34375v220.476563l-58.992187-67.417969h23.476562c3.121094 0 6.0625-1.457031 7.953125-3.941406 1.894531-2.480469 2.519531-5.703125 1.691407-8.710938l-35.835938-130.25c17.347656-6.554687 36.140625-10.152344 55.757812-10.152344h5.949219zm-164.175781 158.226563c0-60.445313 34.078125-113.078125 84.023438-139.710938l31.511718 114.542969h-32.390625c-3.921875 0-7.484375 2.292969-9.105469 5.867188-1.621093 3.570312-1.003906 7.761718 1.582032 10.714843l76.515625 87.449219h-152.136719zm472 78.863281h-152.136719l76.515625-87.449219c2.585938-2.953125 3.203125-7.144531 1.582032-10.714843-1.621094-3.574219-5.183594-5.867188-9.105469-5.867188h-32.390625l5.394531-19.617188c1.464844-5.328124-1.664063-10.832031-6.988281-12.296874-5.320313-1.460938-10.832032 1.664062-12.296875 6.992187l-8.875 32.269531c-.828125 3.007813-.207031 6.230469 1.6875 8.710938 1.890625 2.484375 4.832031 3.941406 7.953125 3.941406h23.476562l-58.992187 67.417969v-220.476563h5.953125c19.617187 0 38.40625 3.601563 55.757812 10.15625l-8.53125 31c-1.464844 5.328125 1.664063 10.832032 6.988282 12.296875.890624.242188 1.78125.359375 2.660156.359375 4.386718 0 8.414062-2.910156 9.636718-7.347656l7.6875-27.949219c49.949219 26.632813 84.023438 79.261719 84.023438 139.710938zm0 0"/><path d="m381.390625 322.359375c-2.628906 0-5.210937 1.070313-7.070313 2.929687-1.859374 1.859376-2.929687 4.429688-2.929687 7.070313 0 2.628906 1.070313 5.210937 2.929687 7.070313 1.859376 1.859374 4.441407 2.929687 7.070313 2.929687s5.210937-1.070313 7.070313-2.929687c1.859374-1.859376 2.929687-4.441407 2.929687-7.070313s-1.070313-5.210937-2.929687-7.070313c-1.859376-1.859374-4.429688-2.929687-7.070313-2.929687zm0 0"/></svg>