<svg height="512pt" viewBox="0 -44 512.00025 512" width="512pt" xmlns="http://www.w3.org/2000/svg"><path d="m73.296875 47.5h428.703125v346.5h-428.703125zm0 0" fill="#a7c5ff"/><path d="m509.070312 386.929688-19.796874-19.800782c-3.90625-3.902344-10.238282-3.902344-14.144532 0-3.902344 3.90625-3.902344 10.238282 0 14.144532l2.730469 2.726562h-162.859375c-5.523438 0-10 4.480469-10 10 0 5.523438 4.476562 10 10 10h162.855469l-2.726563 2.730469c-3.90625 3.902343-3.90625 10.234375 0 14.140625 1.953125 1.953125 4.511719 2.929687 7.070313 2.929687 2.558593 0 5.117187-.976562 7.070312-2.929687l19.800781-19.796875c3.90625-3.90625 3.90625-10.238281 0-14.144531zm0 0"/><path d="m275 384c-2.640625 0-5.210938 1.070312-7.070312 2.929688-1.859376 1.859374-2.929688 4.4375-2.929688 7.070312 0 2.628906 1.070312 5.210938 2.929688 7.070312 1.859374 1.859376 4.441406 2.929688 7.070312 2.929688s5.210938-1.070312 7.070312-2.929688c1.859376-1.859374 2.929688-4.441406 2.929688-7.070312 0-2.632812-1.070312-5.210938-2.929688-7.070312-1.859374-1.859376-4.429687-2.929688-7.070312-2.929688zm0 0"/><path d="m232.332031 384h-174.3125l433.980469-351.753906v5.753906c0 5.523438 4.476562 10 10 10s10-4.476562 10-10v-28c0-5.523438-4.476562-10-10-10h-28c-5.523438 0-10 4.476562-10 10s4.476562 10 10 10h1.347656l-435.550781 353.023438v-338.882813l2.730469 2.730469c1.953125 1.949218 4.511718 2.929687 7.070312 2.929687s5.117188-.980469 7.070313-2.929687c3.90625-3.90625 3.90625-10.238282 0-14.144532l-19.796875-19.796874c-3.90625-3.90625-10.238282-3.90625-14.144532 0l-19.796874 19.796874c-3.90625 3.90625-3.90625 10.238282 0 14.144532 3.90625 3.902344 10.234374 3.902344 14.140624 0l2.730469-2.730469v359.859375c0 5.519531 4.476563 10 10 10h202.53125c5.523438 0 10-4.480469 10-10 0-5.523438-4.476562-10-10-10zm0 0"/><path d="m225 20h9c5.523438 0 10-4.476562 10-10s-4.476562-10-10-10h-9c-5.523438 0-10 4.476562-10 10s4.476562 10 10 10zm0 0"/><path d="m174 20h9c5.523438 0 10-4.476562 10-10s-4.476562-10-10-10h-9c-5.523438 0-10 4.476562-10 10s4.476562 10 10 10zm0 0"/><path d="m123 20h9c5.523438 0 10-4.476562 10-10s-4.476562-10-10-10h-9c-5.523438 0-10 4.476562-10 10s4.476562 10 10 10zm0 0"/><path d="m276 20h9c5.523438 0 10-4.476562 10-10s-4.476562-10-10-10h-9c-5.523438 0-10 4.476562-10 10s4.476562 10 10 10zm0 0"/><path d="m378 20h9c5.523438 0 10-4.476562 10-10s-4.476562-10-10-10h-9c-5.523438 0-10 4.476562-10 10s4.476562 10 10 10zm0 0"/><path d="m327 20h9c5.523438 0 10-4.476562 10-10s-4.476562-10-10-10h-9c-5.523438 0-10 4.476562-10 10s4.476562 10 10 10zm0 0"/><path d="m429 20h9c5.523438 0 10-4.476562 10-10s-4.476562-10-10-10h-9c-5.523438 0-10 4.476562-10 10s4.476562 10 10 10zm0 0"/><path d="m72 20h9c5.523438 0 10-4.476562 10-10s-4.476562-10-10-10h-9c-5.523438 0-10 4.476562-10 10s4.476562 10 10 10zm0 0"/><path d="m512 279.667969c0-5.523438-4.476562-10-10-10s-10 4.476562-10 10v9c0 5.519531 4.476562 10 10 10s10-4.480469 10-10zm0 0"/><path d="m512 177.667969c0-5.523438-4.476562-10-10-10s-10 4.476562-10 10v9c0 5.519531 4.476562 10 10 10s10-4.480469 10-10zm0 0"/><path d="m512 75.667969c0-5.523438-4.476562-10-10-10s-10 4.476562-10 10v9c0 5.519531 4.476562 10 10 10s10-4.480469 10-10zm0 0"/><path d="m512 126.667969c0-5.523438-4.476562-10-10-10s-10 4.476562-10 10v9c0 5.519531 4.476562 10 10 10s10-4.480469 10-10zm0 0"/><path d="m512 228.667969c0-5.523438-4.476562-10-10-10s-10 4.476562-10 10v9c0 5.519531 4.476562 10 10 10s10-4.480469 10-10zm0 0"/><path d="m502 320.667969c-5.523438 0-10 4.476562-10 10v9c0 5.519531 4.476562 10 10 10s10-4.480469 10-10v-9c0-5.523438-4.476562-10-10-10zm0 0"/></svg>