<svg height="512pt" viewBox="-27 0 512 512" width="512pt" xmlns="http://www.w3.org/2000/svg"><g fill="#feda9b"><path d="m222 252c0 11.972656 3.769531 23.058594 10.171875 32.160156 7.964844 4.359375 17.105469 6.839844 26.828125 6.839844 30.929688 0 56-25.070312 56-56 0-11.972656-3.769531-23.058594-10.171875-32.160156-7.964844-4.359375-17.105469-6.839844-26.828125-6.839844-30.929688 0-56 25.070312-56 56zm0 0"/><path d="m223.5 83c0 13.398438 4.710938 25.695312 12.558594 35.332031 6.199218 2.363281 12.914062 3.667969 19.941406 3.667969 30.929688 0 56-25.070312 56-56 0-13.398438-4.710938-25.695312-12.558594-35.332031-6.199218-2.363281-12.914062-3.667969-19.941406-3.667969-30.929688 0-56 25.070312-56 56zm0 0"/><path d="m31 386.5625c0 10.070312 2.671875 19.511719 7.324219 27.675781 8.164062 4.652344 17.605469 7.324219 27.675781 7.324219 30.929688 0 56-25.070312 56-56 0-10.070312-2.671875-19.511719-7.324219-27.675781-8.164062-4.652344-17.605469-7.324219-27.675781-7.324219-30.929688 0-56 25.074219-56 56zm0 0"/></g><path d="m213.9375 475c0 14.910156-12.089844 27-27 27-14.914062 0-27-12.089844-27-27s12.085938-27 27-27c14.910156 0 27 12.089844 27 27zm0 0" fill="#fe8f8d"/><path d="m352.0625 475c0 14.910156-12.085938 27-27 27-14.910156 0-27-12.089844-27-27s12.089844-27 27-27c14.914062 0 27 12.089844 27 27zm0 0" fill="#fe8f8d"/><path d="m448 348c-2.628906 0-5.210938 1.070312-7.070312 2.929688-1.859376 1.859374-2.929688 4.441406-2.929688 7.070312s1.070312 5.210938 2.929688 7.070312c1.859374 1.859376 4.441406 2.929688 7.070312 2.929688s5.210938-1.070312 7.070312-2.929688c1.859376-1.859374 2.929688-4.441406 2.929688-7.070312s-1.070312-5.210938-2.929688-7.070312c-1.859374-1.859376-4.441406-2.929688-7.070312-2.929688zm0 0"/><path d="m448 383.667969c-5.523438 0-10 4.476562-10 10v71.332031h-77.320312c-4.375-15.558594-18.679688-27-35.617188-27-20.402344 0-37 16.597656-37 37s16.597656 37 37 37c16.9375 0 31.242188-11.441406 35.617188-27h87.320312c5.523438 0 10-4.476562 10-10v-81.332031c0-5.523438-4.476562-10-10-10zm-122.9375 108.332031c-9.375 0-17-7.625-17-17s7.625-17 17-17 17 7.625 17 17-7.625 17-17 17zm0 0"/><path d="m448 54h-127.113281c-5.660157-30.679688-32.59375-54-64.886719-54s-59.226562 23.320312-64.886719 54h-127.113281c-5.523438 0-10 4.476562-10 10v236.675781c-30.679688 5.664063-54 32.59375-54 64.886719 0 32.296875 23.320312 59.226562 54 64.886719v44.550781c0 5.523438 4.476562 10 10 10h87.320312c4.375 15.558594 18.679688 27 35.617188 27 20.402344 0 37-16.597656 37-37s-16.597656-37-37-37c-16.9375 0-31.242188 11.441406-35.617188 27h-77.320312v-33.9375c32.632812-3.964844 58-31.816406 58-65.5s-25.367188-61.535156-58-65.496094v-59.941406h116.777344c4.886718 31.605469 32.273437 55.875 65.222656 55.875s60.335938-24.269531 65.222656-55.871094h116.777344v82.621094c0 5.523438 4.476562 10 10 10s10-4.476562 10-10v-258.75c0-5.523438-4.476562-10-10-10zm-261.0625 404c9.375 0 17 7.625 17 17s-7.625 17-17 17-17-7.625-17-17 7.625-17 17-17zm69.0625-438c25.363281 0 46 20.636719 46 46s-20.636719 46-46 46-46-20.636719-46-46 20.636719-46 46-46zm-144 345.5625c0 25.363281-20.636719 46-46 46s-46-20.636719-46-46 20.636719-46 46-46 46 20.636719 46 46zm144-89.5625c-25.363281 0-46-20.636719-46-46s20.636719-46 46-46 46 20.636719 46 46-20.636719 46-46 46zm65.257812-55.871094c-4.777343-31.726562-32.21875-56.128906-65.257812-56.128906s-60.480469 24.402344-65.257812 56.128906h-116.742188v-146.128906h116.503906c3.960938 32.632812 31.8125 58 65.496094 58s61.535156-25.367188 65.496094-58h116.503906v146.128906zm0 0"/><path d="m278.511719 206.171875c-4.78125-2.761719-10.898438-1.121094-13.660157 3.660156l-8.851562 15.332031-8.851562-15.332031c-2.761719-4.78125-8.875-6.421875-13.660157-3.660156-4.785156 2.761719-6.421875 8.878906-3.660156 13.660156l17.511719 30.335938c1.785156 3.09375 5.089844 5 8.660156 5s6.875-1.90625 8.660156-5l17.511719-30.335938c2.761719-4.78125 1.125-10.898437-3.660156-13.660156zm0 0"/><path d="m56.550781 326.808594-22.046875 63.582031c-1.8125 5.21875.953125 10.914063 6.171875 12.726563 5.21875 1.808593 10.914063-.953126 12.722657-6.171876l1.402343-4.042968h22.398438l1.402343 4.042968c1.433594 4.132813 5.304688 6.726563 9.449219 6.726563 1.085938 0 2.191407-.179687 3.273438-.554687 5.21875-1.8125 7.980469-7.507813 6.171875-12.726563l-22.046875-63.582031c-1.398438-4.023438-5.1875-6.722656-9.449219-6.722656s-8.054688 2.699218-9.449219 6.722656zm5.1875 46.089844 4.261719-12.292969 4.261719 12.292969zm0 0"/><path d="m236.429688 85.570312c1.953124 1.953126 4.511718 2.929688 7.070312 2.929688s5.117188-.976562 7.070312-2.929688l5.429688-5.425781 5.429688 5.425781c1.953124 1.953126 4.511718 2.929688 7.070312 2.929688s5.117188-.976562 7.070312-2.929688c3.90625-3.902343 3.90625-10.234374 0-14.140624l-5.425781-5.429688 5.425781-5.429688c3.90625-3.90625 3.90625-10.234374 0-14.140624s-10.234374-3.90625-14.140624 0l-5.429688 5.425781-5.429688-5.425781c-3.90625-3.90625-10.234374-3.90625-14.140624 0-3.90625 3.902343-3.90625 10.234374 0 14.140624l5.425781 5.429688-5.425781 5.429688c-3.90625 3.90625-3.90625 10.234374 0 14.140624zm0 0"/></svg>