<svg height="512pt" viewBox="0 0 512 512" width="512pt" xmlns="http://www.w3.org/2000/svg"><path d="m502 58c0-22.644531-15.683594-41.609375-36.773438-46.667969h-359.226562c-26.511719 0-48 21.492188-48 48v280c0 22.644531 15.683594 41.613281 36.773438 46.667969h359.226562c26.511719 0 48-21.488281 48-48zm0 0" fill="#a7c5ff"/><path d="m58 58h396v280h-396zm0 0" fill="#fff"/><path d="m312.667969 462h-79.246094c-18.628906 3.410156-32.753906 19.71875-32.753906 39.332031h151.980469c-.355469-21.78125-18.113282-39.332031-39.980469-39.332031zm0 0" fill="#a7c5ff"/><path d="m246.667969 386.667969h49.332031v75.332031h-49.332031zm0 0" fill="#6a80ff"/><path d="m454 0h-396c-31.980469 0-58 26.019531-58 58v280c0 31.980469 26.019531 58 58 58h148v56h-6.667969c-27.570312 0-50 22.429688-50 50 0 5.523438 4.480469 10 10 10h193.335938c5.519531 0 10-4.476562 10-10 0-27.570312-22.429688-50-50-50h-6.667969v-56h148c31.980469 0 58-26.019531 58-58v-280c0-31.980469-26.019531-58-58-58zm-113.046875 492h-169.90625c4.128906-11.640625 15.25-20 28.285156-20h113.335938c13.035156 0 24.15625 8.359375 28.285156 20zm-54.953125-40h-60v-56h60zm206-114c0 20.953125-17.046875 38-38 38h-396c-20.953125 0-38-17.046875-38-38v-280c0-20.953125 17.046875-38 38-38h396c20.953125 0 38 17.046875 38 38zm0 0"/><path d="m331.121094 68c2.628906 0 5.207031-1.070312 7.066406-2.929688 1.863281-1.859374 2.933594-4.441406 2.933594-7.070312s-1.070313-5.210938-2.933594-7.070312c-1.859375-1.859376-4.4375-2.929688-7.066406-2.929688-2.632813 0-5.210938 1.070312-7.070313 2.929688-1.859375 1.859374-2.929687 4.441406-2.929687 7.070312s1.066406 5.210938 2.929687 7.070312c1.859375 1.859376 4.4375 2.929688 7.070313 2.929688zm0 0"/><path d="m454 48h-81.332031c-5.523438 0-10 4.476562-10 10s4.476562 10 10 10h71.332031v260h-376v-20h77.5c5.523438 0 10-4.476562 10-10s-4.476562-10-10-10h-77.5v-220h213.667969c5.519531 0 10-4.476562 10-10s-4.480469-10-10-10h-223.667969c-5.523438 0-10 4.476562-10 10v280c0 5.523438 4.476562 10 10 10h396c5.523438 0 10-4.476562 10-10v-280c0-5.523438-4.476562-10-10-10zm0 0"/><path d="m256.128906 351.558594c-2.628906 0-5.207031 1.070312-7.070312 2.933594-1.867188 1.859374-2.929688 4.4375-2.929688 7.066406 0 2.632812 1.0625 5.210937 2.929688 7.070312 1.863281 1.871094 4.441406 2.929688 7.070312 2.929688 2.632813 0 5.210938-1.058594 7.070313-2.929688 1.859375-1.859375 2.929687-4.4375 2.929687-7.070312 0-2.628906-1.070312-5.199219-2.929687-7.066406-1.859375-1.863282-4.4375-2.933594-7.070313-2.933594zm0 0"/><path d="m201.332031 180.128906h-29.5c-5.519531 0-10 4.476563-10 10 0 5.519532 4.480469 10 10 10h29.5c5.523438 0 10-4.480468 10-10 0-5.523437-4.476562-10-10-10zm0 0"/><path d="m211.332031 230.128906c0-5.523437-4.476562-10-10-10h-29.5c-5.519531 0-10 4.476563-10 10 0 5.519532 4.480469 10 10 10h29.5c5.523438 0 10-4.480468 10-10zm0 0"/><path d="m265.871094 162.972656c-17.507813 0-31.75 14.246094-31.75 31.75v34.25c0 5.523438 4.476562 10 10 10 5.523437 0 10-4.476562 10-10v-34.25c0-6.476562 5.269531-11.75 11.75-11.75 6.480468 0 11.75 5.273438 11.75 11.75v34.25c0 5.523438 4.476562 10 10 10 5.523437 0 10-4.476562 10-10v-34.25c0-6.476562 5.269531-11.75 11.75-11.75 6.480468 0 11.75 5.273438 11.75 11.75v34.25c0 5.523438 4.476562 10 10 10 5.523437 0 10-4.476562 10-10v-34.25c0-17.503906-14.242188-31.75-31.75-31.75-8.410156 0-16.0625 3.296875-21.75 8.652344-5.6875-5.355469-13.339844-8.652344-21.75-8.652344zm0 0"/><path d="m143.167969 151.128906c5.519531 0 10-4.480468 10-10 0-5.523437-4.480469-10-10-10h-44.835938c-5.519531 0-10 4.476563-10 10v88c0 5.519532 4.480469 10 10 10 5.523438 0 10-4.480468 10-10v-34h19.835938c5.519531 0 10-4.480468 10-10 0-5.523437-4.480469-10-10-10h-19.835938v-24zm0 0"/><path d="m389.167969 238.972656c5.175781 0 10.085937-1.152344 14.5-3.203125v9.230469c0 8.546875-6.953125 15.5-15.5 15.5-3.03125 0-5.5-2.46875-5.5-5.5 0-5.523438-4.480469-10-10-10-5.523438 0-10 4.476562-10 10 0 14.0625 11.4375 25.5 25.5 25.5 19.574219 0 35.5-15.925781 35.5-35.5v-47.527344c0-19.023437-15.476563-34.5-34.5-34.5-19.023438 0-34.5 15.476563-34.5 34.5v7c0 19.023438 15.476562 34.5 34.5 34.5zm-14.5-41.5c0-7.992187 6.503906-14.5 14.5-14.5 7.992187 0 14.5 6.507813 14.5 14.5v7c0 7.996094-6.507813 14.5-14.5 14.5-7.996094 0-14.5-6.503906-14.5-14.5zm0 0"/><path d="m179.511719 290.929688c-1.863281 1.859374-2.933594 4.441406-2.933594 7.070312s1.070313 5.210938 2.933594 7.070312c1.859375 1.859376 4.4375 2.929688 7.066406 2.929688 2.640625 0 5.210937-1.070312 7.070313-2.929688 1.871093-1.859374 2.929687-4.441406 2.929687-7.070312s-1.058594-5.210938-2.929687-7.070312c-1.859376-1.859376-4.4375-2.929688-7.070313-2.929688-2.628906 0-5.199219 1.070312-7.066406 2.929688zm0 0"/></svg>