<svg height="511pt" viewBox="0 -20 511.99983 511" width="511pt" xmlns="http://www.w3.org/2000/svg"><path d="m54 462.5h448l-448-258.652344zm0 0" fill="#ffc66c"/><path d="m155.601562 235.949219c0 10.804687 2.351563 21.054687 6.542969 30.292969 11.285157 7.066406 24.617188 11.164062 38.914063 11.164062 40.570312 0 73.457031-32.886719 73.457031-73.457031 0-10.804688-2.351563-21.054688-6.542969-30.292969-11.285156-7.066406-24.617187-11.164062-38.914062-11.164062-40.570313 0-73.457032 32.886718-73.457032 73.457031zm0 0" fill="#a7c5ff"/><path d="m443.546875 187.378906-21.546875-38.285156-7.988281 13.832031-210.316407-121.425781-14.605468 25.296875 184.894531 106.75-7.984375 13.832031zm0 0" fill="#ff5d5d"/><path d="m507 453.839844-290.722656-167.847656c38.773437-7.175782 68.238281-41.222657 68.238281-82.042969 0-46.019531-37.4375-83.457031-83.457031-83.457031-46.019532 0-83.457032 37.4375-83.457032 83.457031 0 9.761719 1.699219 19.125 4.789063 27.835937l-107.390625-62c-3.09375-1.785156-6.90625-1.785156-10 0s-5 5.085938-5 8.660156v284.054688c0 5.523438 4.476562 10 10 10h492c4.523438 0 8.488281-3.039062 9.65625-7.414062 1.171875-4.371094-.738281-8.984376-4.65625-11.246094zm-305.941406-313.347656c34.992187 0 63.457031 28.46875 63.457031 63.457031 0 34.992187-28.464844 63.457031-63.457031 63.457031-34.992188 0-63.457032-28.464844-63.457032-63.457031 0-34.988281 28.464844-63.457031 63.457032-63.457031zm-181.058594 312.007812v-256.734375l444.679688 256.734375zm0 0"/><path d="m158.667969 60.78125 201.65625 116.425781-2.984375 5.171875c-1.789063 3.09375-1.789063 6.902344 0 10 1.785156 3.09375 5.085937 5 8.660156 5h79c3.550781 0 6.839844-1.886718 8.632812-4.953125 1.792969-3.070312 1.824219-6.859375.082032-9.953125l-39-69.28125c-1.761719-3.132812-5.070313-5.074218-8.660156-5.097656-3.640626-.011719-6.921876 1.890625-8.714844 5l-2.988282 5.171875-88.136718-50.886719c-4.78125-2.761718-10.898438-1.121094-13.660156 3.660156-2.761719 4.785157-1.125 10.898438 3.660156 13.660157l96.796875 55.886719c2.296875 1.328124 5.027343 1.6875 7.589843 1 2.074219-.554688 3.898438-1.757813 5.222657-3.414063l22.070312 39.207031h-44.671875c.835938-2.027344.996094-4.28125.421875-6.421875-.6875-2.5625-2.363281-4.746093-4.660156-6.070312l-201.65625-116.429688 14.027344-24.296875 43.308593 25.003906c4.785157 2.761719 10.898438 1.125 13.660157-3.660156 2.761719-4.78125 1.125-10.898437-3.660157-13.660156l-51.96875-30.003906c-4.78125-2.757813-10.898437-1.121094-13.660156 3.660156l-24.03125 41.621094c-1.324218 2.296875-1.683594 5.023437-.996094 7.585937s2.363282 4.746094 4.660157 6.074219zm0 0"/><path d="m272.890625 69.691406c2.628906 0 5.207031-1.070312 7.070313-2.929687 1.859374-1.859375 2.929687-4.441407 2.929687-7.070313 0-2.640625-1.070313-5.210937-2.929687-7.070312-1.863282-1.871094-4.441407-2.929688-7.070313-2.929688-2.640625 0-5.210937 1.058594-7.070313 2.929688-1.859374 1.859375-2.929687 4.429687-2.929687 7.070312 0 2.628906 1.070313 5.210938 2.929687 7.070313 1.859376 1.859375 4.4375 2.929687 7.070313 2.929687zm0 0"/><path d="m70.167969 281.105469 71.867187 41.492187c1.578125.910156 3.296875 1.339844 4.992188 1.339844 3.457031 0 6.816406-1.792969 8.667968-5 2.761719-4.785156 1.125-10.898438-3.660156-13.660156l-71.867187-41.492188c-4.78125-2.761718-10.898438-1.125-13.660157 3.660156-2.761718 4.78125-1.121093 10.898438 3.660157 13.660157zm0 0"/><path d="m184.578125 345.609375c2.617187 0 5.230469-1.023437 7.195313-3.054687 3.835937-3.972657 3.722656-10.304688-.25-14.140626l-.070313-.066406c-3.972656-3.835937-10.269531-3.691406-14.105469.28125-3.835937 3.972656-3.6875 10.339844.285156 14.175782 1.941407 1.871093 4.445313 2.804687 6.945313 2.804687zm0 0"/></svg>