<svg height="512pt" viewBox="0 0 512 512" width="512pt" xmlns="http://www.w3.org/2000/svg"><path d="m236.882812 228.140625 10.945313-59.425781-59.597656 105.65625h72.839843l-3.355468 10h30.355468l-17.914062 53.367187 78.386719-99.597656h-84.660157l1.839844-10zm0 0" fill="#ff5d5d"/><path d="m387.652344 130.347656c0 3.28125.496094 6.445313 1.414062 9.425782 3.863282 1.652343 8.117188 2.574218 12.585938 2.574218 17.675781 0 32-14.328125 32-32 0-3.28125-.496094-6.449218-1.410156-9.425781-3.863282-1.65625-8.121094-2.574219-12.589844-2.574219-17.671875 0-32 14.324219-32 32zm0 0" fill="#a7c5ff"/><path d="m499.847656 195c-.328125-1.007812-.683594-2-1.027344-3h-46.972656c-6.671875-20.429688-16.464844-39.441406-28.792968-56.5-5.539063 4.589844-12.648438 7.347656-20.402344 7.347656-17.671875 0-32-14.328125-32-32 0-7.875 2.851562-15.082031 7.570312-20.65625-17.496094-12.917968-37.105468-23.144531-58.222656-30.039062v-47.152344h-80v50.152344c-62.289062 20.339844-111.507812 69.558594-131.847656 131.847656h-50.152344v125h2.152344c.328125 1.007812.683594 2 1.027344 3h46.972656c20.339844 62.285156 69.558594 111.507812 131.847656 131.847656v47.152344h80v-50.152344c62.289062-20.339844 111.507812-69.5625 131.847656-131.847656h50.152344v-125zm-280.625 212 43.851563-130.628906h-105.484375l108.066406-191.582032-26.773438 145.351563h119.527344zm0 0" fill="#edf2fa"/><path d="m98.847656 418.652344c0 4.980468 1.136719 9.695312 3.167969 13.898437 2.65625.714844 5.449219 1.101563 8.332031 1.101563 17.671875 0 32-14.324219 32-32 0-4.976563-1.140625-9.691406-3.167968-13.894532-2.660157-.714843-5.449219-1.105468-8.332032-1.105468-17.675781 0-32 14.328125-32 32zm0 0" fill="#a7c5ff"/><path d="m365.40625 223.769531c-1.671875-3.441406-5.164062-5.628906-8.996094-5.628906h-107.519531l24.601563-133.539063c.886718-4.804687-1.832032-9.546874-6.425782-11.214843-4.59375-1.660157-9.71875.234375-12.121094 4.488281l-108.066406 191.582031c-1.746094 3.097657-1.71875 6.886719.074219 9.957031 1.792969 3.070313 5.078125 4.957032 8.636719 4.957032h91.578125l-39.425781 117.445312c-1.546876 4.613282.445312 9.667969 4.726562 11.980469 1.503906.8125 3.132812 1.203125 4.75 1.203125 2.980469 0 5.910156-1.335938 7.863281-3.816406l139.1875-176.859375c2.371094-3.011719 2.808594-7.109375 1.136719-10.554688zm-120.324219 129.664063 25.472657-75.878906c1.019531-3.050782.515624-6.410157-1.363282-9.023438-1.878906-2.609375-4.902344-4.160156-8.117187-4.160156h-88.363281l70.277343-124.589844-15.941406 86.546875c-.539063 2.917969.25 5.929687 2.148437 8.210937 1.898438 2.28125 4.714844 3.601563 7.6875 3.601563h98.933594zm0 0"/><path d="m60.152344 310h-40.152344v-108h40.152344c4.324218 0 8.160156-2.78125 9.503906-6.894531 19.339844-59.214844 66.234375-106.109375 125.449219-125.449219 4.113281-1.34375 6.894531-5.179688 6.894531-9.503906v-40.152344h108v40.152344c0 4.324218 2.78125 8.160156 6.894531 9.503906 16.566407 5.410156 32.289063 13.003906 46.855469 22.613281-2.625 5.476563-4.097656 11.609375-4.097656 18.078125 0 23.15625 18.84375 42 42 42 23.160156 0 42-18.84375 42-42 0-23.160156-18.839844-42-42-42-9.425782 0-18.136719 3.121094-25.152344 8.382813-14.515625-9.777344-30.105469-17.726563-46.5-23.703125v-43.027344c0-5.523438-4.476562-10-10-10h-128c-5.523438 0-10 4.476562-10 10v43.027344c-59.714844 21.785156-107.1875 69.257812-128.972656 128.972656h-43.027344c-5.523438 0-10 4.476562-10 10v128c0 5.523438 4.476562 10 10 10h50.152344c5.519531 0 10-4.476562 10-10s-4.476563-10-10-10zm363.5-199.652344c0 12.128906-9.867188 22-22 22-12.128906 0-22-9.871094-22-22 0-12.132812 9.871094-22 22-22 12.132812 0 22 9.867188 22 22zm0 0"/><path d="m502 182h-50.152344c-5.519531 0-10 4.476562-10 10s4.480469 10 10 10h40.152344v108h-40.152344c-4.324218 0-8.160156 2.78125-9.503906 6.894531-19.339844 59.214844-66.234375 106.109375-125.449219 125.449219-4.113281 1.34375-6.894531 5.179688-6.894531 9.503906v40.152344h-108v-40.152344c0-4.324218-2.78125-8.160156-6.894531-9.503906-16.554688-5.40625-32.289063-13.007812-46.851563-22.617188 2.621094-5.476562 4.09375-11.605468 4.09375-18.074218 0-23.15625-18.84375-42-42-42-23.160156 0-42 18.84375-42 42 0 23.160156 18.839844 42 42 42 9.433594 0 18.152344-3.128906 25.171875-8.398438 14.515625 9.773438 30.097657 17.746094 46.480469 23.71875v43.027344c0 5.523438 4.476562 10 10 10h128c5.519531 0 10-4.476562 10-10v-43.027344c59.714844-21.785156 107.1875-69.257812 128.972656-128.972656h43.027344c5.523438 0 10-4.476562 10-10v-128c0-5.523438-4.476562-10-10-10zm-391.652344 241.652344c-12.132812 0-22-9.867188-22-22 0-12.128906 9.867188-22 22-22 12.128906 0 22 9.871094 22 22 0 12.132812-9.871094 22-22 22zm0 0"/><path d="m351.453125 385.472656c2.058594 0 4.132813-.632812 5.914063-1.941406 20.703124-15.21875 35.847656-36.113281 43.785156-60.425781 1.714844-5.25-1.148438-10.894531-6.398438-12.609375-5.25-1.71875-10.898437 1.148437-12.613281 6.398437-6.632813 20.320313-19.296875 37.792969-36.617187 50.519531-4.449219 3.273438-5.40625 9.53125-2.132813 13.980469 1.957031 2.667969 4.992187 4.078125 8.0625 4.078125zm0 0"/><path d="m317.027344 382.097656c-.035156.011719-.15625.050782-.1875.0625-5.242188 1.746094-8.082032 7.414063-6.335938 12.652344 1.394532 4.191406 5.292969 6.84375 9.476563 6.84375 1.046875 0 2.113281-.164062 3.160156-.515625.015625-.003906.089844-.027344.105469-.03125 5.238281-1.710937 8.078125-7.332031 6.382812-12.578125-1.699218-5.246094-7.355468-8.121094-12.601562-6.433594zm0 0"/></svg>