<svg height="512pt" viewBox="-3 0 512 512" width="512pt" xmlns="http://www.w3.org/2000/svg"><path d="m495.625 128.015625-20.488281-11.828125c.433593-3.339844.683593-6.734375.683593-10.191406 0-3.457032-.25-6.851563-.683593-10.191406l20.488281-11.828126-18.914062-32.757812-2.238282 1.292969c-5.378906-4.128907-11.300781-7.582031-17.652344-10.21875v-5.191407l-11.679687 6.742188c-5.378906-4.128906-11.300781-7.582031-17.652344-10.214844v-14.960937h-30.667969v23.625c-6.351562 2.636719-12.273437 6.089843-17.652343 10.21875l-20.484375-11.828125-30 51.960937 20.488281 11.828125c-.433594 3.335938-.683594 6.734375-.683594 10.191406 0 3.453126.25 6.851563.683594 10.1875l-20.488281 11.828126 18.914062 32.757812 2.238282-1.289062c5.378906 4.128906 11.300781 7.578124 17.652343 10.214843v5.191407l11.679688-6.742188c5.378906 4.132812 11.304687 7.582031 17.65625 10.21875v14.960938h30.664062v-23.628907c6.351563-2.636719 12.273438-6.085937 17.652344-10.214843l20.484375 11.824218zm0 0" fill="#fe8f8d"/><path d="m276.839844 475.566406 48.808594-48.808594-20.390626-20.394531c7.023438-11.8125 12.433594-24.695312 15.90625-38.355469h28.820313v-71.996093h-28.820313c-3.472656-13.664063-8.882812-26.546875-15.90625-38.359375l20.390626-20.390625-25.910157-25.914063-16.75-17.34375c-10.839843-6.449218-10.234375 10.226563-22.652343 6.75l-5.988282 5.988282c-11.8125-7.023438-24.699218-12.433594-38.359375-15.90625v-19.820313h-30.996093v28.820313c-13.660157 3.472656-26.546876 8.878906-38.355469 15.90625l-19.484375-19.480469c-1.003906.390625-2.015625.773437-3.011719 1.1875l-48.808594 48.8125 20.394531 20.390625c-7.027343 11.8125-12.433593 24.699218-15.90625 38.355468h-28.824218v72h28.824218c3.472657 13.660157 8.878907 26.542969 15.90625 38.355469l-20.394531 20.394531 25.910157 25.910157 4.394531-4.394531c10.839843 6.449218 22.59375 11.511718 35.007812 14.988281l5.992188-5.988281c11.8125 7.023437 24.695312 12.433593 38.355469 15.90625v19.820312h31v-28.820312c13.660156-3.472657 26.542968-8.878907 38.355468-15.90625l19.480469 19.480468c1.007813-.390625 2.015625-.773437 3.011719-1.1875zm0 0" fill="#6a80ff"/><path d="m259.988281 332.007812c0 44.179688-35.816406 79.996094-79.996093 79.996094-44.179688 0-79.996094-35.816406-79.996094-79.996094 0-44.179687 35.816406-79.996093 79.996094-79.996093 44.179687 0 79.996093 35.816406 79.996093 79.996093zm0 0" fill="#fff"/><path d="m215.992188 512h-72c-5.519532 0-9.996094-4.476562-9.996094-10v-21.25c-9.195313-2.84375-18.113282-6.539062-26.644532-11.050781l-15.035156 15.039062c-1.875 1.875-4.421875 2.925781-7.070312 2.925781-2.652344 0-5.195313-1.050781-7.074219-2.925781l-50.90625-50.910156c-1.875-1.875-2.929687-4.417969-2.929687-7.070313 0-2.652343 1.054687-5.195312 2.929687-7.070312l15.035156-15.039062c-4.507812-8.53125-8.207031-17.445313-11.050781-26.640626h-21.25c-5.523438 0-10-4.476562-10-10v-71.996093c0-5.523438 4.476562-10 10-10h21.25c2.84375-9.195313 6.542969-18.113281 11.050781-26.644531l-15.035156-15.035157c-1.875-1.875-2.929687-4.417969-2.929687-7.070312 0-2.652344 1.054687-5.195313 2.929687-7.070313l50.90625-50.910156c1.878906-1.875 4.421875-2.929688 7.074219-2.929688 2.648437 0 5.195312 1.054688 7.070312 2.929688l15.035156 15.035156c8.53125-4.511718 17.445313-8.207031 26.644532-11.050781v-21.25c0-5.523437 4.476562-10 9.996094-10h72c5.519531 0 10 4.476563 10 10v21.25c9.195312 2.84375 18.109374 6.542969 26.640624 11.050781l15.039063-15.039062c3.902344-3.902344 10.234375-3.902344 14.140625 0l50.910156 50.910156c1.875 1.875 2.929688 4.417969 2.929688 7.070312 0 2.652344-1.054688 5.195313-2.929688 7.070313l-15.039062 15.039063c4.511718 8.53125 8.210937 17.445312 11.050781 26.640624h21.253906c5.519531 0 9.996094 4.476563 9.996094 10v72c0 5.519532-4.476563 9.996094-9.996094 9.996094h-21.253906c-2.839844 9.195313-6.539063 18.113282-11.050781 26.644532l15.039062 15.035156c1.875 1.875 2.929688 4.421875 2.929688 7.070312 0 2.652344-1.054688 5.199219-2.929688 7.074219l-50.910156 50.90625c-3.90625 3.90625-10.234375 3.90625-14.140625 0l-15.039063-15.035156c-8.53125 4.507812-17.445312 8.207031-26.640624 11.050781v21.25c0 5.523438-4.480469 10-10 10zm-62-20h52v-18.820312c0-4.574219 3.101562-8.566407 7.535156-9.691407 12.53125-3.1875 24.546875-8.167969 35.707031-14.808593 3.929687-2.339844 8.949219-1.714844 12.183594 1.523437l13.324219 13.320313 36.765624-36.769532-13.320312-13.320312c-3.234375-3.234375-3.863281-8.253906-1.523438-12.183594 6.640626-11.164062 11.625-23.175781 14.808594-35.710938 1.128906-4.429687 5.121094-7.535156 9.691406-7.535156h18.824219v-51.996094h-18.824219c-4.570312 0-8.5625-3.101562-9.691406-7.535156-3.1875-12.535156-8.167968-24.546875-14.808594-35.710937-2.339843-3.929688-1.710937-8.945313 1.523438-12.183594l13.320312-13.320313-36.765624-36.769531-13.324219 13.324219c-3.234375 3.234375-8.25 3.863281-12.183594 1.523438-11.164063-6.640626-23.175781-11.625-35.707031-14.808594-4.433594-1.128906-7.535156-5.117188-7.535156-9.691406v-18.824219h-52v18.824219c0 4.574218-3.101563 8.5625-7.535157 9.691406-12.53125 3.183594-24.542969 8.167968-35.707031 14.808594-3.933594 2.335937-8.949219 1.710937-12.183594-1.523438l-13.320312-13.320312-36.769532 36.769531 13.320313 13.320312c3.234375 3.234375 3.863281 8.253907 1.523437 12.183594-6.640624 11.164063-11.621093 23.175781-14.808593 35.710937-1.128907 4.429688-5.117188 7.535157-9.691407 7.535157h-18.820312v51.996093h18.820312c4.574219 0 8.566407 3.101563 9.691407 7.535157 3.1875 12.53125 8.171875 24.546875 14.8125 35.710937 2.335937 3.929688 1.710937 8.949219-1.523438 12.183594l-13.324219 13.320312 36.769532 36.769532 13.320312-13.324219c3.234375-3.234375 8.253906-3.859375 12.183594-1.523437 11.164062 6.644531 23.179688 11.625 35.710938 14.808593 4.429687 1.128907 7.535156 5.121094 7.535156 9.691407v18.820312zm0 0"/><path d="m179.992188 422.003906c-49.625 0-89.996094-40.371094-89.996094-89.996094 0-33.0625 18.070312-63.394531 47.160156-79.167968 4.855469-2.628906 10.925781-.828125 13.558594 4.027344 2.632812 4.855468.828125 10.925781-4.027344 13.558593-22.632812 12.269531-36.691406 35.863281-36.691406 61.582031 0 38.597657 31.402344 69.996094 69.996094 69.996094 38.597656 0 70-31.398437 70-69.996094 0-26.925781-15.734376-51.773437-40.082032-63.304687-4.992187-2.363281-7.121094-8.324219-4.757812-13.316406 2.363281-4.988281 8.324218-7.117188 13.316406-4.757813 31.296875 14.820313 51.519531 46.765625 51.519531 81.378906 0 49.625-40.371093 89.996094-89.996093 89.996094zm0 0"/><path d="m180.117188 262.011719h-.125c-5.519532 0-10-4.476563-10-10 0-5.523438 4.480468-10 10-10h.125c5.523437 0 10 4.476562 10 10 0 5.523437-4.476563 10-10 10zm0 0"/><path d="m427.488281 211.992188h-60c-5.519531 0-9.996093-4.476563-9.996093-10v-17.238282c-2.8125-1.429687-5.550782-3.015625-8.199219-4.746094l-14.941407 8.625c-4.78125 2.761719-10.894531 1.121094-13.65625-3.660156l-30-51.960937c-1.328124-2.296875-1.6875-5.023438-1-7.585938s2.363282-4.746093 4.660157-6.070312l14.9375-8.625c-.089844-1.597657-.132813-3.179688-.132813-4.734375 0-1.554688.042969-3.136719.132813-4.734375l-14.9375-8.625c-2.296875-1.324219-3.972657-3.507813-4.660157-6.070313s-.328124-5.292968 1-7.585937l30-51.960938c2.757813-4.78125 8.875-6.421875 13.65625-3.660156l14.941407 8.625c2.648437-1.730469 5.386719-3.3125 8.199219-4.746094v-17.238281c0-5.523438 4.476562-10 9.996093-10h60c5.519531 0 10 4.476562 10 10v17.238281c2.8125 1.429688 5.546875 3.015625 8.199219 4.746094l14.9375-8.625c4.78125-2.761719 10.898438-1.125 13.660156 3.660156l29.996094 51.957031c2.761719 4.78125 1.125 10.898438-3.660156 13.660157l-14.9375 8.625c.089844 1.597656.136718 3.179687.136718 4.734375 0 1.550781-.046874 3.132812-.136718 4.730468l14.9375 8.625c4.785156 2.761719 6.421875 8.878907 3.660156 13.660157l-29.996094 51.957031c-2.761718 4.785156-8.878906 6.421875-13.660156 3.660156l-14.9375-8.625c-2.652344 1.730469-5.390625 3.316406-8.199219 4.75v17.238282c0 5.523437-4.476562 10-10 10zm-50-20h40v-13.628907c0-4.042969 2.433594-7.6875 6.167969-9.234375 5.472656-2.273437 10.652344-5.273437 15.394531-8.914062 3.210938-2.464844 7.585938-2.75 11.089844-.726563l11.824219 6.824219 20-34.640625-11.828125-6.824219c-3.496094-2.019531-5.4375-5.945312-4.914063-9.949218.394532-3.058594.597656-6.050782.597656-8.902344 0-2.851563-.203124-5.847656-.597656-8.902344-.523437-4.003906 1.417969-7.929688 4.914063-9.949219l11.828125-6.828125-20-34.636718-11.824219 6.824218c-3.503906 2.023438-7.878906 1.738282-11.089844-.726562-4.746093-3.644532-9.925781-6.640625-15.394531-8.914063-3.734375-1.546875-6.167969-5.191406-6.167969-9.234375v-13.628906h-40v13.628906c0 4.039063-2.433593 7.683594-6.164062 9.234375-5.472657 2.269531-10.652344 5.269531-15.398438 8.910157-3.207031 2.464843-7.585937 2.753906-11.089843.730468l-11.824219-6.828125-20 34.640625 11.828125 6.828125c3.496094 2.019531 5.4375 5.945313 4.914062 9.949219-.394531 3.050781-.597656 6.042969-.597656 8.902344 0 2.855468.203125 5.851562.597656 8.898437.523438 4.003907-1.417968 7.929688-4.914062 9.949219l-11.828125 6.828125 20 34.640625 11.824219-6.828125c3.503906-2.019531 7.882812-1.734375 11.089843.730469 4.742188 3.640625 9.925781 6.640625 15.398438 8.914062 3.730469 1.546875 6.164062 5.191406 6.164062 9.234375zm0 0"/><path d="m433.488281 105.996094c0 19.882812-16.117187 36-36 36-19.878906 0-35.996093-16.117188-35.996093-36 0-19.882813 16.117187-36 35.996093-36 19.882813 0 36 16.117187 36 36zm0 0" fill="#fff"/><path d="m397.488281 151.992188c-25.363281 0-45.996093-20.632813-45.996093-45.996094 0-25.363282 20.632812-46 45.996093-46s46 20.636718 46 46c0 25.363281-20.636719 45.996094-46 45.996094zm0-71.996094c-14.335937 0-26 11.664062-26 26 0 14.335937 11.664063 26 26 26 14.335938 0 26-11.664063 26-26 0-14.335938-11.664062-26-26-26zm0 0"/></svg>