<svg height="512pt" viewBox="-38 0 512 512" width="512pt" xmlns="http://www.w3.org/2000/svg"><path d="m192.5 398h77.5v103.5h-77.5zm0 0" fill="#7d9bff"/><path d="m290 295.707031v-165.707031c0-24.0625-11.816406-45.355469-29.953125-58.429688-3.707031-.589843-7.503906-.902343-11.378906-.902343-39.765625 0-72 32.234375-72 72v165.707031c0 2.851562.578125 5.570312 1.621093 8.042969h91.003907c11.4375 0 20.707031-9.273438 20.707031-20.710938zm0 0" fill="#d8d8e4"/><path d="m426 379.582031h-15.972656v-123.582031h-24.054688v121.582031h-15.972656l28.585938 48.894531zm0 0" fill="#ffc66c"/><path d="m90 229.582031h-15.972656v-121.582031h-24.054688v123.582031h-15.972656l27.414062 46.894531zm0 0" fill="#ffc66c"/><path d="m246.1875 52.992188c3.667969-5.425782 5.8125-11.964844 5.8125-18.992188 0-18.746094-15.25-34-34-34-18.746094 0-34 15.253906-34 34 0 7.027344 2.144531 13.566406 5.8125 18.992188-31.371094 11.519531-53.8125 41.691406-53.8125 77.007812v165.707031c0 16.933594 13.777344 30.707031 30.707031 30.707031h41.292969v21.546876c0 5.523437 4.480469 10 10 10h4.328125c1.757813 0 3.1875 1.429687 3.1875 3.1875 0 1.753906-1.429687 3.183593-3.1875 3.183593h-9.75c-5.519531 0-10 4.476563-10 10 0 3.871094 2.207031 7.222657 5.421875 8.882813v4.785156h-42c-5.519531 0-10 4.476562-10 10v104c0 5.523438 4.480469 10 10 10h104c5.523438 0 10-4.476562 10-10v-104c0-5.523438-4.476562-10-10-10h-42v-4.371094c10.050781-2.535156 17.515625-11.652344 17.515625-22.480468 0-10.832032-7.464844-19.949219-17.515625-22.484376v-12.246093h41.292969c16.933593 0 30.707031-13.777344 30.707031-30.707031v-165.710938c0-35.316406-22.441406-65.488281-53.8125-77.007812zm-34.328125 355.007812-35.859375 35.855469v-35.855469zm4.285156 84 43.855469-43.855469v43.855469zm43.855469-72.140625-72.140625 72.140625h-11.859375v-19.859375l64.144531-64.140625h19.855469zm-56-385.859375c0-7.71875 6.28125-14 14-14s14 6.28125 14 14-6.28125 14-14 14-14-6.28125-14-14zm65.292969 272.417969h-102.585938c-5.902343 0-10.707031-4.804688-10.707031-10.707031v-165.710938c0-34.1875 27.8125-62 62-62 32.050781 0 58.496094 24.441406 61.679688 55.667969h-19.277344c-5.523438 0-10 4.476562-10 10 0 5.523437 4.476562 10 10 10h19.597656v20h-19.597656c-5.523438 0-10 4.476562-10 10 0 5.523437 4.476562 10 10 10h19.597656v20h-19.597656c-5.523438 0-10 4.476562-10 10 0 5.523437 4.476562 10 10 10h19.597656v20h-19.597656c-5.523438 0-10 4.476562-10 10 0 5.523437 4.476562 10 10 10h19.597656v32.042969c0 5.902343-4.804688 10.707031-10.707031 10.707031zm0 0"/><path d="m218 81c-5.519531 0-10 4.476562-10 10v186.667969c0 5.523437 4.480469 10 10 10 5.523438 0 10-4.476563 10-10v-186.667969c0-5.523438-4.476562-10-10-10zm0 0"/><path d="m434.675781 374.605469c-1.78125-3.105469-5.09375-5.023438-8.675781-5.023438h-5.972656v-13.25c0-5.523437-4.476563-10-10-10-5.519532 0-10 4.476563-10 10v23.25c0 5.046875 3.742187 9.222657 8.601562 9.902344l-22.628906 38.703125-22.625-38.703125c4.859375-.679687 8.597656-4.855469 8.597656-9.902344v-113.582031h28.058594v11.667969c0 5.523437 4.476562 10 10 10 5.519531 0 10-4.476563 10-10v-21.667969c0-5.523438-4.480469-10-10-10h-48.058594c-5.523437 0-10 4.476562-10 10v113.582031h-5.972656c-3.582031 0-6.890625 1.917969-8.671875 5.023438-1.785156 3.109375-1.769531 6.929687.039063 10.023437l40 68.417969c1.792968 3.066406 5.082031 4.953125 8.632812 4.953125 3.554688 0 6.839844-1.886719 8.632812-4.953125l40-68.417969c1.808594-3.089844 1.824219-6.914062.042969-10.023437zm0 0"/><path d="m410.03125 306.421875c-2.632812 0-5.210938 1.066406-7.070312 2.929687-1.859376 1.859376-2.929688 4.4375-2.929688 7.070313 0 2.628906 1.066406 5.207031 2.929688 7.066406 1.859374 1.863281 4.4375 2.933594 7.070312 2.933594 2.628906 0 5.210938-1.070313 7.066406-2.933594 1.863282-1.859375 2.933594-4.4375 2.933594-7.066406 0-2.632813-1.070312-5.210937-2.933594-7.070313-1.855468-1.863281-4.4375-2.929687-7.066406-2.929687zm0 0"/><path d="m90 219.582031h-5.972656v-113.582031c0-5.523438-4.476563-10-10-10h-48.054688c-5.523437 0-10 4.476562-10 10v113.582031h-5.972656c-3.582031 0-6.890625 1.917969-8.671875 5.023438-1.785156 3.109375-1.769531 6.929687.039063 10.023437l40 68.417969c1.792968 3.066406 5.082031 4.953125 8.632812 4.953125 3.554688 0 6.839844-1.886719 8.632812-4.953125l40-68.417969c1.808594-3.09375 1.824219-6.914062.042969-10.023437-1.78125-3.105469-5.09375-5.023438-8.675781-5.023438zm-40 58.605469-22.625-38.703125c4.859375-.679687 8.597656-4.855469 8.597656-9.902344v-113.582031h28.058594v113.582031c0 5.046875 3.738281 9.222657 8.597656 9.902344zm0 0"/></svg>