<svg height="512pt" viewBox="-59 0 511 512" width="512pt" xmlns="http://www.w3.org/2000/svg"><path d="m194.5625 10h151.875v52h-151.875zm0 0" fill="#a7c5ff"/><path d="m194.5 204.128906c0 19.066406 6.683594 36.570313 17.820312 50.316406 11.347657 6.171876 24.351563 9.683594 38.179688 9.683594 44.183594 0 80-35.820312 80-80 0-19.070312-6.683594-36.574218-17.820312-50.320312-11.347657-6.171875-24.351563-9.679688-38.179688-9.679688-44.183594 0-80 35.816406-80 80zm0 0" fill="#7d9bff"/><path d="m110.5 307.898438c-44.183594 0-80 35.816406-80 80 0 17.574218 5.683594 33.8125 15.289062 47.011718 12.765626 8.621094 28.148438 13.652344 44.710938 13.652344 44.183594 0 80-35.816406 80-80 0-17.574219-5.683594-33.8125-15.289062-47.011719-12.765626-8.621093-28.148438-13.652343-44.710938-13.652343zm0 0" fill="#7d9bff"/><path d="m118.5 368.5625c0 15.464844-12.535156 28-28 28s-28-12.535156-28-28 12.535156-28 28-28 28 12.535156 28 28zm0 0" fill="#fff"/><path d="m250.5 211.8125c-15.1875 0-27.5-12.308594-27.5-27.5v-120.3125h55v120.3125c0 15.191406-12.3125 27.5-27.5 27.5zm0 0" fill="#edf2fa"/><path d="m307.832031 398h74.667969v103.332031h-74.667969zm0 0" fill="#7d9bff"/><path d="m320.5 240.625v75.792969c0 5.523437 4.476562 10 10 10s10-4.476563 10-10v-132.289063c0-34.453125-19.1875-65.367187-50.070312-80.679687-.789063-.390625-1.605469-.65625-2.429688-.828125v-28.621094h58.4375c5.523438 0 10-4.476562 10-10v-54c0-5.523438-4.476562-10-10-10s-10 4.476562-10 10v44h-171.875v-44c0-5.523438-4.476562-10-10-10s-10 4.476562-10 10v54c0 5.523438 4.476562 10 10 10h58.4375v28.742188c-.980469.160156-1.953125.46875-2.890625.9375-30.597656 15.390624-49.609375 46.214843-49.609375 80.449218v127.9375c-16.511719-20.421875-41.753906-33.503906-70-33.503906s-53.488281 13.082031-70 33.503906v-44.066406c0-5.523438-4.476562-10-10-10s-10 4.476562-10 10v92.898438 7.664062c0 49.628906 40.375 90 90 90s90-40.371094 90-90v-127.9375c16.511719 20.421875 41.753906 33.503906 70 33.503906s53.488281-13.082031 70-33.503906zm-230 197.9375c-38.597656 0-70-31.402344-70-70s31.402344-70 70-70 70 31.402344 70 70-31.402344 70-70 70zm177.5-364.5625v110.3125c0 9.652344-7.851562 17.5-17.5 17.5s-17.5-7.847656-17.5-17.5v-110.3125zm-17.5 180.128906c-38.597656 0-70-31.402344-70-70 0-24.273437 12.292969-46.34375 32.5-59.125v59.308594c0 20.679688 16.820312 37.5 37.5 37.5s37.5-16.820312 37.5-37.5v-59.320312c20.214844 12.777343 32.5 34.824218 32.5 59.132812 0 38.601562-31.402344 70.003906-70 70.003906zm0 0"/><path d="m90.5 330.5625c-20.953125 0-38 17.046875-38 38s17.046875 38 38 38 38-17.046875 38-38-17.046875-38-38-38zm0 56c-9.925781 0-18-8.074219-18-18s8.074219-18 18-18 18 8.074219 18 18-8.074219 18-18 18zm0 0"/><path d="m330.5 348c-2.628906 0-5.210938 1.070312-7.070312 2.929688-1.859376 1.859374-2.929688 4.441406-2.929688 7.070312s1.070312 5.210938 2.929688 7.070312c1.859374 1.859376 4.441406 2.929688 7.070312 2.929688s5.210938-1.070312 7.070312-2.929688c1.859376-1.859374 2.929688-4.441406 2.929688-7.070312s-1.070312-5.210938-2.929688-7.070312c-1.859374-1.859376-4.429687-2.929688-7.070312-2.929688zm0 0"/><path d="m10.5 238c2.628906 0 5.210938-1.070312 7.070312-2.929688 1.859376-1.859374 2.929688-4.441406 2.929688-7.070312s-1.070312-5.210938-2.929688-7.070312c-1.859374-1.859376-4.441406-2.929688-7.070312-2.929688-2.640625 0-5.210938 1.070312-7.070312 2.929688-1.859376 1.859374-2.929688 4.429687-2.929688 7.070312s1.070312 5.210938 2.929688 7.070312c1.859374 1.859376 4.441406 2.929688 7.070312 2.929688zm0 0"/><path d="m10.5 198.269531c5.523438 0 10-4.480469 10-10v-178.269531c0-5.523438-4.476562-10-10-10s-10 4.476562-10 10v178.269531c0 5.519531 4.476562 10 10 10zm0 0"/><path d="m382.5 388h-104c-5.523438 0-10 4.476562-10 10v104c0 5.523438 4.476562 10 10 10h104c5.523438 0 10-4.476562 10-10v-104c0-5.523438-4.476562-10-10-10zm-58.144531 20-35.855469 35.855469v-35.855469zm-35.855469 64.140625 64.140625-64.140625h19.859375v11.859375l-72.144531 72.140625h-11.855469zm40.144531 19.859375 43.855469-43.855469v43.855469zm0 0"/></svg>